# Blender 4.0.2
# www.blender.org
mtllib Frog_Eyes.mtl
o Eyes
v 0.656886 0.339963 0.248292
v 0.788436 0.440457 0.343868
v 0.606639 0.440457 0.402938
v 0.494281 0.440458 0.248292
v 0.606639 0.440457 0.093646
v 0.788436 0.440457 0.152717
v 0.707133 0.603064 0.402938
v 0.525336 0.603064 0.343868
v 0.525336 0.603064 0.152717
v 0.707133 0.603064 0.093646
v 0.819490 0.603063 0.248292
v 0.656886 0.703558 0.248292
v 0.627352 0.367113 0.339190
v 0.734209 0.367113 0.304470
v 0.704675 0.426182 0.395369
v 0.811532 0.426183 0.248292
v 0.734209 0.367113 0.192115
v 0.561310 0.367114 0.248292
v 0.531775 0.426183 0.339191
v 0.627352 0.367113 0.157394
v 0.531775 0.426183 0.157394
v 0.704675 0.426182 0.101216
v 0.829786 0.521760 0.304470
v 0.829786 0.521760 0.192115
v 0.656886 0.521760 0.430090
v 0.763744 0.521760 0.395370
v 0.483986 0.521760 0.304470
v 0.550028 0.521760 0.395370
v 0.550028 0.521760 0.101215
v 0.483986 0.521760 0.192115
v 0.763744 0.521760 0.101215
v 0.656886 0.521760 0.066495
v 0.781997 0.617338 0.339191
v 0.609097 0.617338 0.395369
v 0.502240 0.617338 0.248292
v 0.609097 0.617338 0.101216
v 0.781997 0.617338 0.157394
v 0.686420 0.676407 0.339190
v 0.752462 0.676407 0.248292
v 0.579563 0.676407 0.304470
v 0.579563 0.676407 0.192115
v 0.686420 0.676407 0.157394
v 0.656886 0.339963 -0.268285
v 0.788436 0.440457 -0.172710
v 0.606639 0.440457 -0.113639
v 0.494281 0.440458 -0.268285
v 0.606639 0.440457 -0.422931
v 0.788436 0.440457 -0.363861
v 0.707133 0.603064 -0.113639
v 0.525336 0.603064 -0.172710
v 0.525336 0.603064 -0.363861
v 0.707133 0.603064 -0.422931
v 0.819491 0.603063 -0.268285
v 0.656886 0.703558 -0.268285
v 0.627352 0.367113 -0.177387
v 0.734209 0.367113 -0.212108
v 0.704675 0.426182 -0.121209
v 0.811532 0.426183 -0.268285
v 0.734209 0.367113 -0.324463
v 0.561310 0.367114 -0.268285
v 0.531775 0.426183 -0.177387
v 0.627352 0.367113 -0.359183
v 0.531775 0.426183 -0.359184
v 0.704675 0.426182 -0.415362
v 0.829786 0.521760 -0.212108
v 0.829786 0.521760 -0.324463
v 0.656886 0.521760 -0.086488
v 0.763744 0.521760 -0.121208
v 0.483986 0.521760 -0.212108
v 0.550028 0.521760 -0.121208
v 0.550028 0.521760 -0.415363
v 0.483986 0.521760 -0.324463
v 0.763744 0.521760 -0.415363
v 0.656886 0.521760 -0.450083
v 0.781997 0.617338 -0.177387
v 0.609097 0.617338 -0.121209
v 0.502240 0.617338 -0.268285
v 0.609097 0.617338 -0.415362
v 0.781997 0.617338 -0.359184
v 0.686420 0.676407 -0.177387
v 0.752462 0.676407 -0.268285
v 0.579563 0.676407 -0.212108
v 0.579563 0.676407 -0.324463
v 0.686420 0.676407 -0.359183
vn -0.0000 -1.0000 -0.0000
vn 0.4253 -0.8507 0.3090
vn -0.1625 -0.8507 0.5000
vn 0.7236 -0.4472 0.5257
vn 0.8506 -0.5257 -0.0000
vn -0.5257 -0.8507 -0.0000
vn -0.1625 -0.8507 -0.5000
vn 0.4253 -0.8507 -0.3090
vn 0.9511 -0.0000 0.3090
vn -0.2764 -0.4472 0.8506
vn 0.2629 -0.5257 0.8090
vn -0.0000 -0.0000 1.0000
vn -0.8944 -0.4472 -0.0000
vn -0.6882 -0.5257 0.5000
vn -0.9511 -0.0000 0.3090
vn -0.2764 -0.4472 -0.8506
vn -0.6882 -0.5257 -0.5000
vn -0.5878 -0.0000 -0.8090
vn 0.7236 -0.4472 -0.5257
vn 0.2629 -0.5257 -0.8090
vn 0.5878 -0.0000 -0.8090
vn 0.5878 -0.0000 0.8090
vn -0.5878 -0.0000 0.8090
vn -0.9511 -0.0000 -0.3090
vn -0.0000 -0.0000 -1.0000
vn 0.9511 -0.0000 -0.3090
vn 0.2764 0.4472 0.8506
vn 0.6882 0.5257 0.5000
vn 0.1625 0.8507 0.5000
vn -0.7236 0.4472 0.5257
vn -0.2629 0.5257 0.8090
vn -0.4253 0.8507 0.3090
vn -0.7236 0.4472 -0.5257
vn -0.8506 0.5257 -0.0000
vn -0.4253 0.8507 -0.3090
vn 0.2764 0.4472 -0.8506
vn -0.2629 0.5257 -0.8090
vn 0.1625 0.8507 -0.5000
vn 0.8944 0.4472 -0.0000
vn 0.6882 0.5257 -0.5000
vn 0.5257 0.8507 -0.0000
vn -0.0000 1.0000 -0.0000
vt 0.000137 0.818094
vt 0.078846 0.772652
vt 0.078846 0.863536
vt 0.157555 0.727210
vt 0.078846 0.681768
vt 0.157555 0.636325
vt 0.000137 0.091021
vt 0.078846 0.045579
vt 0.078846 0.136463
vt 0.000137 0.272789
vt 0.078846 0.227347
vt 0.078846 0.318231
vt 0.000137 0.454558
vt 0.078846 0.409115
vt 0.078846 0.500000
vt 0.236264 0.681768
vt 0.157555 0.908978
vt 0.157555 0.818094
vt 0.236264 0.863536
vt 0.157555 0.181905
vt 0.157555 0.091021
vt 0.236264 0.136463
vt 0.157555 0.363673
vt 0.157555 0.272789
vt 0.236264 0.318231
vt 0.157555 0.545442
vt 0.157555 0.454558
vt 0.236264 0.499999
vt 0.236264 0.772652
vt 0.236264 0.954420
vt 0.236264 0.227347
vt 0.236264 0.409115
vt 0.236264 0.590883
vt 0.314972 0.818094
vt 0.314972 0.727210
vt 0.393681 0.772652
vt 0.314972 0.999863
vt 0.314972 0.908978
vt 0.393681 0.954420
vt 0.314972 0.272789
vt 0.314972 0.181905
vt 0.393681 0.227347
vt 0.314972 0.454557
vt 0.314972 0.363673
vt 0.393681 0.409115
vt 0.314972 0.636325
vt 0.314972 0.545442
vt 0.393681 0.590883
vt 0.393681 0.499999
vt 0.472390 0.545441
vt 0.393681 0.318231
vt 0.472390 0.363673
vt 0.393681 0.136463
vt 0.472390 0.181905
vt 0.314972 0.091021
vt 0.393681 0.863536
vt 0.472390 0.908978
vt 0.393681 0.681768
vt 0.472390 0.727210
vt 0.236263 0.045579
vt 0.157555 0.000137
vt 0.078846 0.590883
vt 0.000137 0.636326
vt 0.472665 0.818094
vt 0.551373 0.772651
vt 0.551373 0.863536
vt 0.630082 0.727210
vt 0.551373 0.681768
vt 0.630082 0.636325
vt 0.472665 0.091021
vt 0.551373 0.045579
vt 0.551373 0.136463
vt 0.472665 0.272789
vt 0.551373 0.227347
vt 0.551373 0.318231
vt 0.472665 0.454557
vt 0.551373 0.409115
vt 0.551373 0.499999
vt 0.708791 0.681767
vt 0.630082 0.908978
vt 0.630082 0.818094
vt 0.708791 0.863536
vt 0.630082 0.181905
vt 0.630082 0.091021
vt 0.708791 0.136463
vt 0.630082 0.363673
vt 0.630082 0.272789
vt 0.708791 0.318231
vt 0.630082 0.545441
vt 0.630082 0.454557
vt 0.708791 0.499999
vt 0.708791 0.772651
vt 0.708791 0.954420
vt 0.708791 0.227347
vt 0.708791 0.409115
vt 0.708791 0.590883
vt 0.787499 0.818093
vt 0.787499 0.727210
vt 0.866208 0.772651
vt 0.787499 0.999863
vt 0.787499 0.908978
vt 0.866208 0.954420
vt 0.787499 0.272789
vt 0.787499 0.181905
vt 0.866208 0.227347
vt 0.787499 0.454557
vt 0.787499 0.363673
vt 0.866208 0.409115
vt 0.787499 0.636325
vt 0.787499 0.545442
vt 0.866208 0.590883
vt 0.866208 0.499999
vt 0.944917 0.545441
vt 0.866208 0.318231
vt 0.944917 0.363673
vt 0.866208 0.136463
vt 0.944917 0.181905
vt 0.787499 0.091021
vt 0.866208 0.863536
vt 0.944917 0.908978
vt 0.866208 0.681767
vt 0.944917 0.727210
vt 0.708791 0.045579
vt 0.630082 0.000137
vt 0.551373 0.590883
vt 0.472665 0.636325
s 1
f 1/1/1 14/2/2 13/3/3
f 2/4/4 14/5/2 16/6/5
f 1/7/1 13/8/3 18/9/6
f 1/10/1 18/11/6 20/12/7
f 1/13/1 20/14/7 17/15/8
f 2/4/4 16/6/5 23/16/9
f 3/17/10 15/18/11 25/19/12
f 4/20/13 19/21/14 27/22/15
f 5/23/16 21/24/17 29/25/18
f 6/26/19 22/27/20 31/28/21
f 2/4/4 23/16/9 26/29/22
f 3/17/10 25/19/12 28/30/23
f 4/20/13 27/22/15 30/31/24
f 5/23/16 29/25/18 32/32/25
f 6/26/19 31/28/21 24/33/26
f 7/34/27 33/35/28 38/36/29
f 8/37/30 34/38/31 40/39/32
f 9/40/33 35/41/34 41/42/35
f 10/43/36 36/44/37 42/45/38
f 11/46/39 37/47/40 39/48/41
f 39/48/41 42/49/38 12/50/42
f 39/48/41 37/47/40 42/49/38
f 37/47/40 10/43/36 42/49/38
f 42/45/38 41/51/35 12/52/42
f 42/45/38 36/44/37 41/51/35
f 36/44/37 9/40/33 41/51/35
f 41/42/35 40/53/32 12/54/42
f 41/42/35 35/41/34 40/53/32
f 35/41/34 8/55/30 40/53/32
f 40/39/32 38/56/29 12/57/42
f 40/39/32 34/38/31 38/56/29
f 34/38/31 7/34/27 38/56/29
f 38/36/29 39/58/41 12/59/42
f 38/36/29 33/35/28 39/58/41
f 33/35/28 11/46/39 39/58/41
f 24/33/26 37/47/40 11/46/39
f 24/33/26 31/28/21 37/47/40
f 31/28/21 10/43/36 37/47/40
f 32/32/25 36/44/37 10/43/36
f 32/32/25 29/25/18 36/44/37
f 29/25/18 9/40/33 36/44/37
f 30/31/24 35/41/34 9/40/33
f 30/31/24 27/22/15 35/41/34
f 27/22/15 8/55/30 35/41/34
f 28/30/23 34/38/31 8/37/30
f 28/30/23 25/19/12 34/38/31
f 25/19/12 7/34/27 34/38/31
f 26/29/22 33/35/28 7/34/27
f 26/29/22 23/16/9 33/35/28
f 23/16/9 11/46/39 33/35/28
f 31/28/21 32/32/25 10/43/36
f 31/28/21 22/27/20 32/32/25
f 22/27/20 5/23/16 32/32/25
f 29/25/18 30/31/24 9/40/33
f 29/25/18 21/24/17 30/31/24
f 21/24/17 4/20/13 30/31/24
f 27/22/15 28/60/23 8/55/30
f 27/22/15 19/21/14 28/60/23
f 19/21/14 3/61/10 28/60/23
f 25/19/12 26/29/22 7/34/27
f 25/19/12 15/18/11 26/29/22
f 15/18/11 2/4/4 26/29/22
f 23/16/9 24/33/26 11/46/39
f 23/16/9 16/6/5 24/33/26
f 16/6/5 6/26/19 24/33/26
f 17/15/8 22/27/20 6/26/19
f 17/15/8 20/14/7 22/27/20
f 20/14/7 5/23/16 22/27/20
f 20/12/7 21/24/17 5/23/16
f 20/12/7 18/11/6 21/24/17
f 18/11/6 4/20/13 21/24/17
f 18/9/6 19/21/14 4/20/13
f 18/9/6 13/8/3 19/21/14
f 13/8/3 3/61/10 19/21/14
f 16/6/5 17/62/8 6/26/19
f 16/6/5 14/5/2 17/62/8
f 14/5/2 1/63/1 17/62/8
f 13/3/3 15/18/11 3/17/10
f 13/3/3 14/2/2 15/18/11
f 14/2/2 2/4/4 15/18/11
f 43/64/1 56/65/2 55/66/3
f 44/67/4 56/68/2 58/69/5
f 43/70/1 55/71/3 60/72/6
f 43/73/1 60/74/6 62/75/7
f 43/76/1 62/77/7 59/78/8
f 44/67/4 58/69/5 65/79/9
f 45/80/10 57/81/11 67/82/12
f 46/83/13 61/84/14 69/85/15
f 47/86/16 63/87/17 71/88/18
f 48/89/19 64/90/20 73/91/21
f 44/67/4 65/79/9 68/92/22
f 45/80/10 67/82/12 70/93/23
f 46/83/13 69/85/15 72/94/24
f 47/86/16 71/88/18 74/95/25
f 48/89/19 73/91/21 66/96/26
f 49/97/27 75/98/28 80/99/29
f 50/100/30 76/101/31 82/102/32
f 51/103/33 77/104/34 83/105/35
f 52/106/36 78/107/37 84/108/38
f 53/109/39 79/110/40 81/111/41
f 81/111/41 84/112/38 54/113/42
f 81/111/41 79/110/40 84/112/38
f 79/110/40 52/106/36 84/112/38
f 84/108/38 83/114/35 54/115/42
f 84/108/38 78/107/37 83/114/35
f 78/107/37 51/103/33 83/114/35
f 83/105/35 82/116/32 54/117/42
f 83/105/35 77/104/34 82/116/32
f 77/104/34 50/118/30 82/116/32
f 82/102/32 80/119/29 54/120/42
f 82/102/32 76/101/31 80/119/29
f 76/101/31 49/97/27 80/119/29
f 80/99/29 81/121/41 54/122/42
f 80/99/29 75/98/28 81/121/41
f 75/98/28 53/109/39 81/121/41
f 66/96/26 79/110/40 53/109/39
f 66/96/26 73/91/21 79/110/40
f 73/91/21 52/106/36 79/110/40
f 74/95/25 78/107/37 52/106/36
f 74/95/25 71/88/18 78/107/37
f 71/88/18 51/103/33 78/107/37
f 72/94/24 77/104/34 51/103/33
f 72/94/24 69/85/15 77/104/34
f 69/85/15 50/118/30 77/104/34
f 70/93/23 76/101/31 50/100/30
f 70/93/23 67/82/12 76/101/31
f 67/82/12 49/97/27 76/101/31
f 68/92/22 75/98/28 49/97/27
f 68/92/22 65/79/9 75/98/28
f 65/79/9 53/109/39 75/98/28
f 73/91/21 74/95/25 52/106/36
f 73/91/21 64/90/20 74/95/25
f 64/90/20 47/86/16 74/95/25
f 71/88/18 72/94/24 51/103/33
f 71/88/18 63/87/17 72/94/24
f 63/87/17 46/83/13 72/94/24
f 69/85/15 70/123/23 50/118/30
f 69/85/15 61/84/14 70/123/23
f 61/84/14 45/124/10 70/123/23
f 67/82/12 68/92/22 49/97/27
f 67/82/12 57/81/11 68/92/22
f 57/81/11 44/67/4 68/92/22
f 65/79/9 66/96/26 53/109/39
f 65/79/9 58/69/5 66/96/26
f 58/69/5 48/89/19 66/96/26
f 59/78/8 64/90/20 48/89/19
f 59/78/8 62/77/7 64/90/20
f 62/77/7 47/86/16 64/90/20
f 62/75/7 63/87/17 47/86/16
f 62/75/7 60/74/6 63/87/17
f 60/74/6 46/83/13 63/87/17
f 60/72/6 61/84/14 46/83/13
f 60/72/6 55/71/3 61/84/14
f 55/71/3 45/124/10 61/84/14
f 58/69/5 59/125/8 48/89/19
f 58/69/5 56/68/2 59/125/8
f 56/68/2 43/126/1 59/125/8
f 55/66/3 57/81/11 45/80/10
f 55/66/3 56/65/2 57/81/11
f 56/65/2 44/67/4 57/81/11
