# Blender 4.0.2
# www.blender.org
o Ears
v 0.758709 1.060966 -0.469039
v 0.829317 1.095747 -0.351823
v 0.944847 0.636748 -0.321433
v 1.007188 0.702937 -0.206841
v 0.852843 0.698499 -0.435458
v 0.975940 0.843693 -0.209864
v 0.792591 1.116140 -0.396940
v 0.993488 0.623796 -0.252232
v 0.916250 0.794026 -0.315296
v 0.780207 0.897995 -0.487649
v 0.914246 0.955472 -0.267805
v 0.859806 0.929868 -0.357802
v 0.698477 1.048453 -0.429044
v 0.769085 1.083234 -0.311828
v 0.884615 0.624235 -0.281437
v 0.946956 0.690424 -0.166846
v 0.915708 0.831181 -0.169869
v 0.792610 0.685987 -0.395463
v 0.933256 0.611284 -0.212236
v 0.732359 1.103628 -0.356945
v 0.719974 0.885483 -0.447653
v 0.854014 0.942960 -0.227810
v 0.839102 1.162259 -0.366228
v 0.986544 0.576472 -0.327443
v 0.791145 1.191453 -0.424855
v 0.748990 1.117870 -0.515822
v 1.066105 0.660944 -0.181198
v 1.026227 0.840581 -0.185056
v 0.867886 0.658073 -0.474510
v 1.048621 0.559943 -0.239127
v 0.776426 0.909883 -0.539572
v 0.947490 0.983237 -0.259002
v 0.758709 1.060966 0.469039
v 0.829317 1.095747 0.351823
v 0.944847 0.636748 0.321433
v 1.007188 0.702937 0.206841
v 0.852843 0.698499 0.435458
v 0.975940 0.843693 0.209864
v 0.792591 1.116140 0.396940
v 0.993488 0.623796 0.252232
v 0.916250 0.794026 0.315296
v 0.780207 0.897995 0.487649
v 0.914246 0.955472 0.267805
v 0.859806 0.929868 0.357802
v 0.698477 1.048453 0.429044
v 0.769085 1.083234 0.311828
v 0.884615 0.624235 0.281437
v 0.946956 0.690424 0.166846
v 0.915708 0.831181 0.169869
v 0.792610 0.685987 0.395463
v 0.933256 0.611284 0.212236
v 0.732359 1.103628 0.356945
v 0.719974 0.885483 0.447653
v 0.854014 0.942960 0.227810
v 0.839102 1.162259 0.366228
v 0.986544 0.576472 0.327443
v 0.791145 1.191453 0.424855
v 0.748990 1.117870 0.515822
v 1.066105 0.660944 0.181198
v 1.026227 0.840581 0.185056
v 0.867886 0.658073 0.474510
v 1.048621 0.559943 0.239127
v 0.776426 0.909883 0.539572
v 0.947490 0.983237 0.259002
vn 0.6599 0.7510 -0.0212
vn 0.8073 -0.0473 -0.5883
vn 0.2550 0.8058 -0.5344
vn 0.5694 -0.0331 -0.8214
vn 0.7344 0.3487 -0.5823
vn 0.8173 0.1688 -0.5510
vn 0.6212 -0.0777 -0.7798
vn 0.8184 0.1686 -0.5493
vn 0.8610 0.3676 -0.3515
vn 0.9448 0.2260 -0.2373
vn 0.8020 0.3710 -0.4682
vn 0.9373 0.0583 -0.3435
vn -0.0024 0.2978 -0.9546
vn 0.6461 -0.0966 -0.7571
vn 0.6803 0.3856 0.6233
vn -0.3646 0.2765 0.8892
vn -0.2142 0.1368 0.9672
vn -0.9504 -0.2578 -0.1740
vn -0.9891 0.1435 0.0336
vn 0.7026 -0.6878 -0.1826
vn -0.7165 -0.6068 0.3441
vn 0.5495 -0.5069 -0.6641
vn 0.1851 -0.3225 -0.9283
vn 0.0351 -0.0383 -0.9987
vn -0.1795 -0.1561 0.9713
vn 0.6068 -0.2009 0.7691
vn 0.8703 0.4882 -0.0655
vn -0.4195 0.3314 0.8451
vn -0.8115 -0.5799 0.0715
vn -0.4487 -0.5342 0.7165
vn 0.6011 0.1852 -0.7774
vn -0.7258 0.3550 0.5892
vn 0.8073 -0.0473 0.5883
vn 0.6599 0.7510 0.0212
vn 0.2550 0.8058 0.5344
vn 0.7344 0.3487 0.5823
vn 0.5694 -0.0331 0.8214
vn 0.8173 0.1688 0.5510
vn 0.6212 -0.0777 0.7798
vn 0.8184 0.1686 0.5493
vn 0.8610 0.3676 0.3515
vn 0.9448 0.2260 0.2373
vn 0.8020 0.3710 0.4682
vn 0.9373 0.0583 0.3435
vn -0.0024 0.2978 0.9546
vn 0.6461 -0.0966 0.7571
vn 0.6803 0.3856 -0.6233
vn -0.3646 0.2765 -0.8892
vn 0.8703 0.4882 0.0655
vn -0.9504 -0.2578 0.1740
vn 0.0351 -0.0383 0.9987
vn -0.7165 -0.6068 -0.3441
vn 0.7026 -0.6878 0.1826
vn 0.5495 -0.5069 0.6641
vn 0.1851 -0.3225 0.9283
vn -0.1795 -0.1561 -0.9713
vn 0.6068 -0.2009 -0.7691
vn -0.4195 0.3314 -0.8451
vn -0.8115 -0.5799 -0.0715
vn -0.4487 -0.5342 -0.7165
vn -0.7258 0.3550 -0.5892
vn 0.6011 0.1852 0.7774
vn -0.9891 0.1435 -0.0336
vn -0.2142 0.1368 -0.9672
vt 0.706054 0.306302
vt 0.741112 0.344030
vt 0.709472 0.385988
vt 0.824411 0.072911
vt 0.945876 0.090666
vt 0.879710 0.194996
vt 0.783968 0.159731
vt 0.823818 0.268121
vt 0.962514 0.330648
vt 0.877631 0.425041
vt 0.961246 0.178713
vt 0.789627 0.425757
vt 0.775020 0.489997
vt 0.738972 0.284771
vt 0.251504 0.033224
vt 0.252054 0.162428
vt 0.210820 0.087139
vt 0.247480 0.542722
vt 0.152636 0.416493
vt 0.240140 0.417686
vt 0.041285 0.063449
vt 0.085335 0.168799
vt 0.000163 0.188943
vt 0.000163 0.403043
vt 0.119523 0.537772
vt 0.165428 0.061447
vt 0.134215 0.000163
vt 0.323008 0.162305
vt 0.286789 0.283423
vt 0.074968 0.318344
vt 0.115011 0.090985
vt 0.892403 0.047029
vt 0.978844 0.056880
vt 0.999837 0.171260
vt 0.999837 0.369520
vt 0.763511 0.145071
vt 0.816952 0.033284
vt 0.907573 0.000163
vt 0.889751 0.489536
vt 0.335347 0.432703
vt 0.284843 0.339056
vt 0.352782 0.342828
vt 0.741112 0.636289
vt 0.706054 0.674017
vt 0.709472 0.594331
vt 0.945876 0.889654
vt 0.824411 0.907409
vt 0.879710 0.785324
vt 0.783968 0.820588
vt 0.823818 0.712199
vt 0.962514 0.649671
vt 0.877631 0.555279
vt 0.961246 0.801607
vt 0.789627 0.554562
vt 0.775020 0.490323
vt 0.738972 0.695549
vt 0.604449 0.509661
vt 0.604999 0.380457
vt 0.675954 0.380580
vt 0.600426 0.000163
vt 0.505581 0.126392
vt 0.472468 0.005113
vt 0.438280 0.374086
vt 0.394231 0.479436
vt 0.353108 0.353942
vt 0.353108 0.139842
vt 0.518374 0.481439
vt 0.487160 0.542722
vt 0.639734 0.259462
vt 0.705727 0.200057
vt 0.427913 0.224541
vt 0.467956 0.451900
vt 0.637789 0.203829
vt 0.978844 0.923440
vt 0.892403 0.933290
vt 0.999837 0.809059
vt 0.763511 0.835249
vt 0.816952 0.947036
vt 0.999837 0.610800
vt 0.889751 0.490783
vt 0.593085 0.125199
vt 0.688292 0.110182
vt 0.563765 0.455746
vt 0.907573 0.980156
s 1
f 23/1/1 7/2/2 25/3/3
f 6/4/4 8/5/5 9/6/6
f 11/7/7 9/6/6 12/8/8
f 12/8/8 5/9/9 10/10/10
f 9/6/6 3/11/11 5/9/9
f 25/3/3 1/12/12 26/13/13
f 1/12/12 12/8/8 10/10/10
f 2/14/14 12/8/8 7/2/2
f 28/15/15 22/16/16 17/17/17
f 26/18/13 21/19/18 13/20/19
f 30/21/20 15/22/21 24/23/22
f 29/24/23 21/19/18 31/25/24
f 28/15/15 16/26/25 27/27/26
f 32/28/27 14/29/28 22/16/16
f 24/23/22 18/30/29 29/24/23
f 27/27/26 19/31/30 30/21/20
f 19/31/30 16/26/25 17/17/17
f 4/32/31 30/33/20 8/5/5
f 5/9/9 24/34/22 29/35/23
f 2/14/14 32/36/27 11/7/7
f 4/32/31 28/37/15 27/38/26
f 10/10/10 29/35/23 31/39/24
f 8/5/5 24/34/22 3/11/11
f 1/12/12 31/39/24 26/13/13
f 6/4/4 32/36/27 28/37/15
f 13/20/19 25/40/3 26/18/13
f 20/41/32 23/42/1 25/40/3
f 39/43/33 55/44/34 57/45/35
f 40/46/36 38/47/37 41/48/38
f 41/48/38 43/49/39 44/50/40
f 37/51/41 44/50/40 42/52/42
f 35/53/43 41/48/38 37/51/41
f 33/54/44 57/45/35 58/55/45
f 33/54/44 44/50/40 39/43/33
f 44/50/40 34/56/46 39/43/33
f 60/57/47 54/58/48 64/59/49
f 58/60/45 53/61/50 63/62/51
f 47/63/52 62/64/53 56/65/54
f 53/61/50 61/66/55 63/62/51
f 48/67/56 60/57/47 59/68/57
f 64/59/49 46/69/58 55/70/34
f 50/71/59 56/65/54 61/66/55
f 51/72/60 59/68/57 62/64/53
f 50/71/59 52/73/61 46/69/58
f 62/74/53 36/75/62 40/46/36
f 37/51/41 56/76/54 35/53/43
f 64/77/49 34/56/46 43/49/39
f 36/75/62 60/78/47 38/47/37
f 42/52/42 61/79/55 37/51/41
f 56/76/54 40/46/36 35/53/43
f 33/54/44 63/80/51 42/52/42
f 38/47/37 64/77/49 43/49/39
f 45/81/63 57/82/35 52/73/61
f 52/73/61 55/70/34 46/69/58
f 23/1/1 2/14/14 7/2/2
f 6/4/4 4/32/31 8/5/5
f 11/7/7 6/4/4 9/6/6
f 12/8/8 9/6/6 5/9/9
f 9/6/6 8/5/5 3/11/11
f 25/3/3 7/2/2 1/12/12
f 1/12/12 7/2/2 12/8/8
f 2/14/14 11/7/7 12/8/8
f 28/15/15 32/28/27 22/16/16
f 26/18/13 31/25/24 21/19/18
f 30/21/20 19/31/30 15/22/21
f 29/24/23 18/30/29 21/19/18
f 28/15/15 17/17/17 16/26/25
f 32/28/27 23/42/1 14/29/28
f 24/23/22 15/22/21 18/30/29
f 27/27/26 16/26/25 19/31/30
f 17/17/17 22/16/16 19/31/30
f 22/16/16 14/29/28 18/30/29
f 19/31/30 22/16/16 15/22/21
f 14/29/28 20/41/32 18/30/29
f 20/41/32 13/20/19 21/19/18
f 21/19/18 18/30/29 20/41/32
f 18/30/29 15/22/21 22/16/16
f 4/32/31 27/38/26 30/33/20
f 5/9/9 3/11/11 24/34/22
f 2/14/14 23/1/1 32/36/27
f 4/32/31 6/4/4 28/37/15
f 10/10/10 5/9/9 29/35/23
f 8/5/5 30/33/20 24/34/22
f 1/12/12 10/10/10 31/39/24
f 6/4/4 11/7/7 32/36/27
f 13/20/19 20/41/32 25/40/3
f 20/41/32 14/29/28 23/42/1
f 39/43/33 34/56/46 55/44/34
f 40/46/36 36/75/62 38/47/37
f 41/48/38 38/47/37 43/49/39
f 37/51/41 41/48/38 44/50/40
f 35/53/43 40/46/36 41/48/38
f 33/54/44 39/43/33 57/45/35
f 33/54/44 42/52/42 44/50/40
f 44/50/40 43/49/39 34/56/46
f 60/57/47 49/83/64 54/58/48
f 58/60/45 45/81/63 53/61/50
f 47/63/52 51/72/60 62/64/53
f 53/61/50 50/71/59 61/66/55
f 48/67/56 49/83/64 60/57/47
f 64/59/49 54/58/48 46/69/58
f 50/71/59 47/63/52 56/65/54
f 51/72/60 48/67/56 59/68/57
f 46/69/58 54/58/48 50/71/59
f 54/58/48 49/83/64 51/72/60
f 49/83/64 48/67/56 51/72/60
f 51/72/60 47/63/52 54/58/48
f 47/63/52 50/71/59 54/58/48
f 50/71/59 53/61/50 52/73/61
f 53/61/50 45/81/63 52/73/61
f 62/74/53 59/84/57 36/75/62
f 37/51/41 61/79/55 56/76/54
f 64/77/49 55/44/34 34/56/46
f 36/75/62 59/84/57 60/78/47
f 42/52/42 63/80/51 61/79/55
f 56/76/54 62/74/53 40/46/36
f 33/54/44 58/55/45 63/80/51
f 38/47/37 60/78/47 64/77/49
f 45/81/63 58/60/45 57/82/35
f 52/73/61 57/82/35 55/70/34
