# Blender 4.0.2
# www.blender.org
o Front_Leg
v 0.932679 -1.119075 -0.412291
v 0.932679 -1.119075 -0.160060
v 1.099182 -1.115216 -0.160060
v 1.099182 -1.115216 -0.412291
v 0.812195 -0.977230 -0.360631
v 0.911207 -0.418187 -0.383530
v 0.792054 -0.380723 -0.460005
v 0.917645 -0.358776 -0.383530
v 0.775571 -0.634206 -0.469358
v 0.851405 -0.644141 -0.392883
v 1.021144 -1.077473 -0.412291
v 1.078545 -1.011255 -0.359779
v 0.814676 -0.976863 -0.167789
v 0.804489 -0.380322 -0.102029
v 0.928629 -0.358776 -0.177104
v 0.851407 -0.644141 -0.177104
v 0.776959 -0.634388 -0.102029
v 1.078643 -1.011255 -0.211611
v 1.022325 -1.077005 -0.160060
v 0.731459 -0.969866 -0.360631
v 0.684997 -0.966138 -0.319521
v 0.527595 -0.523611 -0.469358
v 0.435428 -0.482506 -0.391052
v 0.494481 -0.466155 -0.420817
v 0.510685 -0.461669 -0.469358
v 0.498433 -0.699201 -0.391052
v 0.578265 -0.694581 -0.469358
v 0.770363 -1.116451 -0.372651
v 0.687277 -0.966138 -0.225052
v 0.748049 -0.971125 -0.167789
v 0.457725 -0.564286 -0.211106
v 0.563761 -0.539577 -0.102029
v 0.540257 -0.453481 -0.102029
v 0.435428 -0.482506 -0.211106
v 0.498567 -0.699201 -0.211106
v 0.609567 -0.692646 -0.102029
v 0.774201 -1.052350 -0.160060
v 0.698204 -1.058999 -0.234959
v 0.765326 -1.116370 -0.216937
v 0.791489 -1.116793 -0.160060
v 0.900061 -0.814574 -0.351354
v 0.958254 -0.960880 -0.332501
v 0.961021 -0.961659 -0.208297
v 0.902957 -0.814592 -0.172444
v 1.157082 -1.055957 -0.279562
v 1.169430 -1.118162 -0.285539
v 0.932679 -1.119075 0.412291
v 0.932679 -1.119075 0.160060
v 1.099182 -1.115216 0.160060
v 1.099182 -1.115216 0.412291
v 0.812195 -0.977230 0.360631
v 0.911207 -0.418187 0.383530
v 0.792054 -0.380723 0.460005
v 0.917645 -0.358776 0.383530
v 0.775571 -0.634206 0.469358
v 0.851405 -0.644141 0.392883
v 1.021144 -1.077473 0.412291
v 1.078545 -1.011255 0.359779
v 0.814676 -0.976863 0.167789
v 0.804489 -0.380322 0.102029
v 0.928629 -0.358776 0.177104
v 0.851407 -0.644141 0.177104
v 0.776959 -0.634388 0.102029
v 1.078643 -1.011255 0.211611
v 1.022325 -1.077005 0.160060
v 0.731459 -0.969866 0.360631
v 0.684997 -0.966138 0.319521
v 0.527595 -0.523611 0.469358
v 0.435428 -0.482506 0.391052
v 0.494481 -0.466155 0.420817
v 0.510685 -0.461669 0.469358
v 0.498433 -0.699201 0.391052
v 0.578265 -0.694581 0.469358
v 0.770363 -1.116451 0.372651
v 0.687277 -0.966138 0.225052
v 0.748049 -0.971125 0.167789
v 0.457725 -0.564286 0.211106
v 0.563761 -0.539577 0.102029
v 0.540257 -0.453481 0.102029
v 0.435428 -0.482506 0.211106
v 0.498567 -0.699201 0.211106
v 0.609567 -0.692646 0.102029
v 0.774201 -1.052350 0.160060
v 0.698204 -1.058999 0.234959
v 0.765326 -1.116370 0.216937
v 0.791489 -1.116793 0.160060
v 0.900061 -0.814574 0.351354
v 0.958254 -0.960880 0.332501
v 0.961021 -0.961659 0.208297
v 0.902957 -0.814592 0.172444
v 1.157082 -1.055957 0.279562
v 1.169430 -1.118162 0.285539
vn -0.3264 -0.2901 -0.8996
vn 0.3275 -0.1070 -0.9388
vn 0.1130 0.1065 -0.9879
vn -0.8202 -0.4549 -0.3469
vn -0.8675 -0.4252 0.2581
vn -0.8359 -0.3720 0.4036
vn 0.1059 -0.0047 0.9944
vn 0.3272 -0.0468 0.9438
vn -0.3435 -0.2385 0.9084
vn 0.8733 -0.1427 -0.4658
vn 0.9067 0.0505 0.4188
vn 0.8950 -0.0384 -0.4445
vn -0.3874 -0.1156 0.9146
vn -0.0025 -0.6426 0.7662
vn -0.8887 -0.2553 0.3808
vn -0.8942 -0.1567 -0.4193
vn -0.8292 -0.4145 -0.3751
vn -0.3742 -0.2623 -0.8895
vn -0.0943 -0.5464 -0.8322
vn 0.4870 -0.3776 0.7876
vn 0.8352 0.1126 -0.5384
vn -0.3984 -0.0673 -0.9147
vn 0.1099 0.2446 0.9634
vn 0.4884 0.7155 0.4994
vn 0.5623 0.5540 0.6139
vn 0.8871 -0.2236 0.4039
vn 0.0524 0.3040 -0.9512
vn 0.3614 -0.0800 0.9290
vn -0.3703 -0.1065 0.9228
vn -0.3647 -0.2161 0.9057
vn 0.3355 0.0046 -0.9420
vn -0.4550 -0.6202 -0.6390
vn -0.4820 -0.8432 0.2380
vn 0.5012 -0.3709 -0.7818
vn 0.8772 -0.0950 -0.4707
vn 0.4587 0.7245 -0.5145
vn 0.4867 0.6411 -0.5934
vn -0.8406 -0.3995 0.3657
vn -0.6683 0.2162 -0.7118
vn -0.5597 -0.1528 -0.8145
vn -0.8936 -0.2437 0.3771
vn 0.7836 0.1288 0.6077
vn -0.3719 -0.5973 0.7106
vn 0.8796 0.4743 0.0366
vn -0.3829 -0.1045 0.9179
vn 0.8728 -0.4874 -0.0249
vn -0.3264 -0.2901 0.8996
vn 0.1130 0.1065 0.9879
vn 0.3275 -0.1070 0.9388
vn -0.8202 -0.4549 0.3469
vn -0.8359 -0.3720 -0.4036
vn -0.8675 -0.4252 -0.2581
vn 0.1059 -0.0047 -0.9944
vn -0.3435 -0.2385 -0.9084
vn 0.3272 -0.0468 -0.9438
vn 0.8733 -0.1427 0.4658
vn 0.8950 -0.0384 0.4445
vn 0.9067 0.0505 -0.4188
vn -0.3874 -0.1156 -0.9146
vn -0.0025 -0.6426 -0.7662
vn -0.8887 -0.2553 -0.3808
vn -0.8292 -0.4145 0.3751
vn -0.8942 -0.1567 0.4193
vn -0.3742 -0.2623 0.8895
vn -0.0943 -0.5464 0.8322
vn 0.4870 -0.3776 -0.7876
vn 0.8352 0.1126 0.5384
vn -0.3984 -0.0673 0.9147
vn 0.1099 0.2446 -0.9634
vn 0.5623 0.5540 -0.6139
vn 0.4884 0.7155 -0.4994
vn 0.8871 -0.2236 -0.4039
vn 0.0524 0.3040 0.9512
vn 0.3614 -0.0800 -0.9290
vn -0.3703 -0.1065 -0.9228
vn -0.3647 -0.2161 -0.9057
vn 0.3355 0.0046 0.9420
vn -0.4550 -0.6202 0.6390
vn -0.4820 -0.8432 -0.2380
vn 0.5012 -0.3709 0.7818
vn 0.8772 -0.0950 0.4707
vn 0.4587 0.7245 0.5145
vn 0.4867 0.6411 0.5934
vn -0.8406 -0.3995 -0.3657
vn -0.5597 -0.1528 0.8145
vn -0.6683 0.2162 0.7118
vn -0.8936 -0.2437 -0.3771
vn 0.7836 0.1288 -0.6077
vn -0.3719 -0.5973 -0.7106
vn 0.8796 0.4743 -0.0366
vn -0.3829 -0.1045 -0.9179
vn 0.8728 -0.4874 0.0249
vt 0.159804 0.465832
vt 0.140394 0.366696
vt 0.351724 0.361417
vt 0.328518 0.455745
vt 0.392135 0.488059
vt 0.353448 0.513021
vt 0.295899 0.060530
vt 0.119081 0.103966
vt 0.119325 0.010017
vt 0.036567 0.292450
vt 0.141868 0.163995
vt 0.150974 0.306253
vt 0.314042 0.015762
vt 0.403133 0.058448
vt 0.156753 0.620313
vt 0.081535 0.556930
vt 0.168548 0.517403
vt 0.332444 0.414025
vt 0.457724 0.314780
vt 0.289595 0.800866
vt 0.145030 0.896315
vt 0.145030 0.800866
vt 0.262152 0.278187
vt 0.087796 0.493094
vt 0.471893 0.119647
vt 0.429329 0.108206
vt 0.436684 0.155840
vt 0.351322 0.149240
vt 0.000155 0.199120
vt 0.462731 0.264326
vt 0.006566 0.132434
vt 0.050441 0.004572
vt 0.273077 0.025903
vt 0.028523 0.363152
vt 0.421363 0.404513
vt 0.177629 0.704939
vt 0.495428 0.239234
vt 0.289595 0.896315
vt 0.011717 0.293981
vt 0.450749 0.221278
vt 0.371264 0.246805
vt 0.209311 0.590895
vt 0.066787 0.525937
vt 0.060714 0.500931
vt 0.202369 0.684009
vt 0.123994 0.638821
vt 0.264649 0.644802
vt 0.388025 0.546943
vt 0.425573 0.532607
vt 0.243949 0.149809
vt 0.344465 0.000155
vt 0.476968 0.179372
vt 0.012629 0.000155
vt 0.437088 0.489931
vt 0.145030 0.719936
vt 0.266875 0.707826
vt 0.167785 0.704628
vt 0.455103 0.519518
vt 0.216948 0.936604
vt 0.499845 0.176814
vt 0.840196 0.465832
vt 0.648276 0.361417
vt 0.859606 0.366696
vt 0.671482 0.455745
vt 0.646552 0.513021
vt 0.607865 0.488059
vt 0.704101 0.060530
vt 0.880675 0.010017
vt 0.880919 0.103966
vt 0.963433 0.292450
vt 0.849026 0.306253
vt 0.858132 0.163995
vt 0.685958 0.015762
vt 0.596867 0.058448
vt 0.843247 0.620312
vt 0.831452 0.517403
vt 0.918465 0.556930
vt 0.667557 0.414025
vt 0.542276 0.314780
vt 0.144720 0.840677
vt 0.000155 0.840677
vt 0.000155 0.745228
vt 0.737848 0.278187
vt 0.912204 0.493094
vt 0.528107 0.119647
vt 0.570671 0.108206
vt 0.648678 0.149240
vt 0.563317 0.155840
vt 0.999845 0.199120
vt 0.537269 0.264325
vt 0.993434 0.132434
vt 0.949559 0.004572
vt 0.726923 0.025903
vt 0.971477 0.363152
vt 0.578637 0.404513
vt 0.032754 0.936604
vt 0.504572 0.239234
vt 0.144720 0.745228
vt 0.988283 0.293981
vt 0.549251 0.221278
vt 0.628736 0.246805
vt 0.790689 0.590895
vt 0.939286 0.500931
vt 0.933213 0.525937
vt 0.797631 0.684009
vt 0.876007 0.638821
vt 0.735351 0.644802
vt 0.611975 0.546943
vt 0.574427 0.532607
vt 0.756051 0.149809
vt 0.655535 0.000155
vt 0.523032 0.179372
vt 0.987371 0.000155
vt 0.562912 0.489931
vt 0.000155 0.921607
vt 0.122000 0.933717
vt 0.832215 0.704628
vt 0.544897 0.519518
vt 0.072073 0.704939
vt 0.500155 0.176814
s 1
f 27/1/1 9/2/2 5/3/3
f 21/4/4 38/5/5 29/6/6
f 13/7/7 17/8/8 36/9/9
f 6/10/10 16/11/11 10/12/12
f 37/13/13 2/14/14 13/7/7
f 31/15/15 23/16/16 26/17/17
f 27/1/1 5/3/3 20/18/18
f 1/19/19 20/18/18 5/3/3
f 1/20/19 3/21/20 2/22/14
f 16/11/11 41/23/21 10/12/12
f 22/24/22 9/2/2 27/1/1
f 3/25/20 19/26/23 2/14/14
f 19/26/23 18/27/24 43/28/25
f 6/10/10 15/29/26 16/11/11
f 1/19/19 5/3/3 11/30/27
f 14/31/28 32/32/29 17/8/8
f 13/7/7 36/9/9 30/33/30
f 22/24/22 7/34/31 9/2/2
f 17/8/8 32/32/29 36/9/9
f 28/35/32 38/5/5 21/4/4
f 2/22/14 39/36/33 1/20/19
f 13/7/7 30/33/30 37/13/13
f 2/14/14 19/26/23 13/7/7
f 11/30/27 4/37/34 1/19/19
f 4/38/34 3/21/20 1/20/19
f 6/10/10 7/34/31 8/39/35
f 11/30/27 12/40/36 4/37/34
f 42/41/37 11/30/27 5/3/3
f 6/10/10 9/2/2 7/34/31
f 43/28/25 12/40/36 42/41/37
f 18/27/24 19/26/23 3/25/20
f 14/31/28 16/11/11 15/29/26
f 35/42/38 26/17/17 21/4/4
f 22/24/22 24/43/39 25/44/40
f 20/18/18 26/17/17 27/1/1
f 22/24/22 26/17/17 23/16/16
f 31/15/15 26/17/17 35/42/38
f 32/45/29 34/46/41 31/15/15
f 32/45/29 35/42/38 36/47/9
f 36/47/9 29/6/6 30/48/30
f 37/49/13 29/6/6 38/5/5
f 35/42/38 21/4/4 29/6/6
f 41/23/21 42/41/37 5/3/3
f 44/50/42 13/7/7 43/28/25
f 41/23/21 5/3/3 9/2/2
f 37/13/13 40/51/43 2/14/14
f 31/15/15 34/46/41 23/16/16
f 1/19/19 28/35/32 20/18/18
f 45/52/44 4/37/34 12/40/36
f 16/11/11 44/50/42 41/23/21
f 13/7/7 19/26/23 43/28/25
f 6/10/10 8/39/35 15/29/26
f 14/31/28 33/53/45 32/32/29
f 22/24/22 25/44/40 7/34/31
f 28/35/32 39/54/33 38/5/5
f 2/22/14 40/55/43 39/36/33
f 42/41/37 12/40/36 11/30/27
f 6/10/10 10/12/12 9/2/2
f 28/56/32 1/20/19 39/36/33
f 12/40/36 18/27/24 45/52/44
f 14/31/28 17/8/8 16/11/11
f 16/11/11 17/8/8 44/50/42
f 17/8/8 13/7/7 44/50/42
f 22/24/22 23/16/16 24/43/39
f 20/18/18 21/4/4 26/17/17
f 22/24/22 27/1/1 26/17/17
f 28/35/32 21/4/4 20/18/18
f 32/45/29 33/57/45 34/46/41
f 40/58/43 37/49/13 39/54/33
f 37/49/13 38/5/5 39/54/33
f 32/45/29 31/15/15 35/42/38
f 36/47/9 35/42/38 29/6/6
f 37/49/13 30/48/30 29/6/6
f 41/23/21 44/50/42 43/28/25
f 43/28/25 42/41/37 41/23/21
f 9/2/2 10/12/12 41/23/21
f 4/38/34 46/59/46 3/21/20
f 46/60/46 45/52/44 3/25/20
f 18/27/24 3/25/20 45/52/44
f 45/52/44 46/60/46 4/37/34
f 12/40/36 43/28/25 18/27/24
f 73/61/47 51/62/48 55/63/49
f 67/64/50 75/65/51 84/66/52
f 59/67/53 82/68/54 63/69/55
f 52/70/56 56/71/57 62/72/58
f 83/73/59 59/67/53 48/74/60
f 77/75/61 72/76/62 69/77/63
f 73/61/47 66/78/64 51/62/48
f 47/79/65 51/62/48 66/78/64
f 47/80/65 48/81/60 49/82/66
f 62/72/58 56/71/57 87/83/67
f 68/84/68 73/61/47 55/63/49
f 49/85/66 48/74/60 65/86/69
f 65/86/69 89/87/70 64/88/71
f 52/70/56 62/72/58 61/89/72
f 47/79/65 57/90/73 51/62/48
f 60/91/74 63/69/55 78/92/75
f 59/67/53 76/93/76 82/68/54
f 68/84/68 55/63/49 53/94/77
f 63/69/55 82/68/54 78/92/75
f 74/95/78 67/64/50 84/66/52
f 48/81/60 47/80/65 85/96/79
f 59/67/53 83/73/59 76/93/76
f 48/74/60 59/67/53 65/86/69
f 57/90/73 47/79/65 50/97/80
f 50/98/80 47/80/65 49/82/66
f 52/70/56 54/99/81 53/94/77
f 57/90/73 50/97/80 58/100/82
f 88/101/83 51/62/48 57/90/73
f 52/70/56 53/94/77 55/63/49
f 89/87/70 88/101/83 58/100/82
f 64/88/71 49/85/66 65/86/69
f 60/91/74 61/89/72 62/72/58
f 81/102/84 67/64/50 72/76/62
f 68/84/68 71/103/85 70/104/86
f 66/78/64 73/61/47 72/76/62
f 68/84/68 69/77/63 72/76/62
f 77/75/61 81/102/84 72/76/62
f 78/105/75 77/75/61 80/106/87
f 78/105/75 82/107/54 81/102/84
f 82/107/54 76/108/76 75/65/51
f 83/109/59 84/66/52 75/65/51
f 81/102/84 75/65/51 67/64/50
f 87/83/67 51/62/48 88/101/83
f 90/110/88 89/87/70 59/67/53
f 87/83/67 55/63/49 51/62/48
f 83/73/59 48/74/60 86/111/89
f 77/75/61 69/77/63 80/106/87
f 47/79/65 66/78/64 74/95/78
f 91/112/90 58/100/82 50/97/80
f 62/72/58 87/83/67 90/110/88
f 59/67/53 89/87/70 65/86/69
f 52/70/56 61/89/72 54/99/81
f 60/91/74 78/92/75 79/113/91
f 68/84/68 53/94/77 71/103/85
f 74/95/78 84/66/52 85/114/79
f 48/81/60 85/96/79 86/115/89
f 88/101/83 57/90/73 58/100/82
f 52/70/56 55/63/49 56/71/57
f 74/116/78 85/96/79 47/80/65
f 58/100/82 91/112/90 64/88/71
f 60/91/74 62/72/58 63/69/55
f 62/72/58 90/110/88 63/69/55
f 63/69/55 90/110/88 59/67/53
f 68/84/68 70/104/86 69/77/63
f 66/78/64 72/76/62 67/64/50
f 68/84/68 72/76/62 73/61/47
f 74/95/78 66/78/64 67/64/50
f 78/105/75 80/106/87 79/117/91
f 86/118/89 85/114/79 83/109/59
f 83/109/59 85/114/79 84/66/52
f 78/105/75 81/102/84 77/75/61
f 82/107/54 75/65/51 81/102/84
f 83/109/59 75/65/51 76/108/76
f 87/83/67 89/87/70 90/110/88
f 89/87/70 87/83/67 88/101/83
f 55/63/49 87/83/67 56/71/57
f 50/98/80 49/82/66 92/119/92
f 92/120/92 49/85/66 91/112/90
f 64/88/71 91/112/90 49/85/66
f 91/112/90 50/97/80 92/120/92
f 58/100/82 64/88/71 89/87/70
