# Blender 4.0.2
# www.blender.org
mtllib Flower_Upper.mtl
o Upper
v -0.026875 0.305492 -0.066859
v 0.024538 0.305539 -0.045563
v -0.078288 0.305633 -0.045563
v -0.018568 1.191673 -0.039680
v 0.011579 -0.368753 -0.086776
v 0.011579 -0.401450 -0.080273
v -0.048837 -0.368753 -0.061751
v 0.071995 -0.368753 -0.061751
v 0.067396 -0.401450 -0.057152
v 0.097020 -0.368753 -0.001335
v 0.090516 -0.401450 -0.001335
v 0.071995 -0.368753 0.059080
v 0.045834 0.305607 0.005849
v 0.024538 0.305544 0.057262
v 0.020810 1.191673 -0.000303
v 0.009276 1.191673 -0.028147
v 0.009276 1.191673 0.027541
v -0.018568 1.652423 -0.000303
v -0.057945 1.191673 -0.000303
v -0.046412 1.191673 -0.028147
v -0.018568 1.191673 0.039075
v -0.046412 1.191673 0.027541
v -0.078288 0.305696 0.057262
v -0.026875 0.305639 0.078558
v -0.099584 0.305675 0.005849
v -0.048837 -0.368753 0.059080
v -0.044238 -0.401450 0.054482
v 0.011579 -0.368753 0.084106
v -0.073862 -0.368753 -0.001335
v -0.067358 -0.401450 -0.001335
v -0.048837 -0.429169 -0.001335
v -0.044238 -0.401450 -0.057152
v -0.031141 -0.429169 -0.044056
v -0.011541 -0.447691 -0.024456
v 0.011579 -0.429169 -0.061751
v 0.011579 -0.447691 -0.034032
v 0.054300 -0.429169 -0.044056
v 0.034699 -0.447691 -0.024456
v 0.071995 -0.429169 -0.001335
v 0.044276 -0.447691 -0.001335
v 0.054300 -0.429169 0.041385
v 0.067396 -0.401450 0.054482
v 0.034699 -0.447691 0.021785
v 0.011579 -0.429169 0.059080
v 0.011579 -0.401450 0.077602
v 0.011579 -0.447691 0.031361
v -0.031141 -0.429169 0.041385
v -0.011541 -0.447691 0.021785
v -0.021118 -0.447691 -0.001335
v 0.011579 -0.454194 -0.001335
vn 0.7032 0.0464 -0.7094
vn 0.0012 0.0575 -0.9983
vn 0.7062 0.0552 -0.7059
vn 0.0070 -0.0807 -0.9967
vn 0.7085 -0.0627 -0.7029
vn -0.0082 0.0297 -0.9995
vn -0.7047 0.0619 -0.7068
vn -0.6991 -0.1024 -0.7076
vn -0.0000 -0.3668 -0.9303
vn -0.6578 -0.3668 -0.6578
vn 0.6578 -0.3668 -0.6578
vn 0.9303 -0.3668 -0.0000
vn 0.9986 0.0523 0.0022
vn 0.9983 -0.0583 -0.0013
vn 0.6578 -0.3668 0.6578
vn 0.7095 -0.0700 0.7012
vn 0.7012 0.0436 0.7116
vn 0.9984 0.0563 -0.0009
vn 0.7068 0.0602 0.7048
vn -0.0000 1.0000 -0.0000
vn -0.9978 0.0657 -0.0009
vn -0.7054 0.0668 0.7057
vn 0.0012 0.0645 0.9979
vn -0.0081 0.0259 0.9996
vn -0.7100 0.0099 0.7041
vn -1.0000 0.0044 0.0021
vn -0.6999 -0.1101 0.7057
vn -0.9934 -0.1148 -0.0014
vn -0.6578 -0.3668 0.6578
vn -0.9303 -0.3668 -0.0000
vn 0.0071 -0.0913 0.9958
vn -0.0000 -0.3668 0.9303
vn -0.7121 0.0124 -0.7020
vn -0.5159 -0.6839 -0.5159
vn -0.7296 -0.6839 -0.0000
vn -0.5159 -0.6839 0.5159
vn -0.0000 -0.6839 -0.7296
vn -0.0000 -0.9063 -0.4226
vn -0.2988 -0.9063 -0.2988
vn -0.4226 -0.9063 -0.0000
vn 0.5159 -0.6839 -0.5159
vn 0.2988 -0.9063 -0.2988
vn 0.7296 -0.6839 -0.0000
vn 0.4226 -0.9063 -0.0000
vn 0.5159 -0.6839 0.5159
vn 0.2988 -0.9063 0.2988
vn -0.0000 -0.6839 0.7296
vn -0.0000 -0.9063 0.4226
vn -0.2988 -0.9063 0.2988
vn -0.0000 -1.0000 -0.0000
vt 0.875000 1.000000
vt 1.000000 1.000000
vt 0.000000 1.000000
vt 0.125000 1.000000
vt 0.875000 0.500000
vt 0.750000 0.375000
vt 0.875000 0.375000
vt 0.750000 0.500000
vt 0.625000 0.375000
vt 0.625000 0.500000
vt 0.500000 0.375000
vt 0.750000 1.000000
vt 0.500000 0.500000
vt 0.375000 0.375000
vt 0.625000 1.000000
vt 0.250000 1.000000
vt 0.375000 1.000000
vt 0.500000 1.000000
vt 0.125000 0.375000
vt 0.000000 0.500000
vt 0.000000 0.375000
vt 0.250000 0.500000
vt 0.250000 0.375000
vt 1.000000 0.500000
vt 1.000000 0.375000
vt 0.875000 0.250000
vt 1.000000 0.250000
vt 0.000000 0.250000
vt 0.125000 0.250000
vt 0.750000 0.250000
vt 0.750000 0.125000
vt 0.875000 0.125000
vt 1.000000 0.125000
vt 0.625000 0.250000
vt 0.625000 0.125000
vt 0.500000 0.250000
vt 0.500000 0.125000
vt 0.375000 0.250000
vt 0.375000 0.125000
vt 0.250000 0.250000
vt 0.250000 0.125000
vt 0.125000 0.125000
vt 0.000000 0.125000
vt 0.187500 0.000000
vt 0.062500 0.000000
vt 0.812500 0.000000
vt 0.937500 0.000000
vt 0.687500 0.000000
vt 0.562500 0.000000
vt 0.437500 0.000000
vt 0.312500 0.000000
vt 0.375000 0.500000
vt 0.125000 0.500000
s 1
f 2/1/1 4/2/2 16/1/3
f 5/2/4 2/1/1 8/1/5
f 1/3/6 20/4/7 4/3/2
f 7/4/8 1/3/6 5/3/4
f 7/5/8 6/6/9 32/7/10
f 5/8/4 9/9/11 6/6/9
f 8/10/5 11/11/12 9/9/11
f 8/1/5 13/12/13 10/12/14
f 10/13/14 42/14/15 11/11/12
f 12/15/16 13/12/13 14/15/17
f 2/1/1 15/12/18 13/12/13
f 13/12/13 17/15/19 14/15/17
f 15/12/18 16/1/3 18/12/20
f 17/15/19 15/12/18 18/15/20
f 4/3/2 20/4/7 18/3/20
f 16/1/3 4/2/2 18/1/20
f 19/16/21 22/17/22 18/16/20
f 20/4/7 19/16/21 18/4/20
f 21/18/23 17/15/19 18/18/20
f 22/17/22 21/18/23 18/17/20
f 24/18/24 22/17/22 23/17/25
f 25/16/26 22/17/22 19/16/21
f 26/17/27 24/18/24 23/17/25
f 29/16/28 23/17/25 25/16/26
f 27/19/29 29/20/28 30/21/30
f 28/22/31 27/19/29 45/23/32
f 29/24/28 32/7/10 30/25/30
f 29/16/28 3/4/33 7/4/8
f 30/25/30 33/26/34 31/27/35
f 27/19/29 31/28/35 47/29/36
f 33/26/34 6/6/9 35/30/37
f 33/26/34 36/31/38 34/32/39
f 49/33/40 33/26/34 34/32/39
f 6/6/9 37/34/41 35/30/37
f 36/31/38 37/34/41 38/35/42
f 9/9/11 39/36/43 37/34/41
f 37/34/41 40/37/44 38/35/42
f 39/36/43 42/14/15 41/38/45
f 39/36/43 43/39/46 40/37/44
f 41/38/45 45/23/32 44/40/47
f 43/39/46 44/40/47 46/41/48
f 45/23/32 47/29/36 44/40/47
f 44/40/47 48/42/49 46/41/48
f 47/29/36 49/43/40 48/42/49
f 50/44/50 46/41/48 48/42/49
f 50/45/50 48/42/49 49/43/40
f 50/46/50 34/32/39 36/31/38
f 50/47/50 49/33/40 34/32/39
f 50/48/50 36/31/38 38/35/42
f 50/49/50 38/35/42 40/37/44
f 50/50/50 40/37/44 43/39/46
f 50/51/50 43/39/46 46/41/48
f 12/52/16 45/23/32 42/14/15
f 28/18/31 14/15/17 24/18/24
f 3/4/33 19/16/21 20/4/7
f 14/15/17 21/18/23 24/18/24
f 2/1/1 1/2/6 4/2/2
f 5/2/4 1/2/6 2/1/1
f 1/3/6 3/4/33 20/4/7
f 7/4/8 3/4/33 1/3/6
f 7/5/8 5/8/4 6/6/9
f 5/8/4 8/10/5 9/9/11
f 8/10/5 10/13/14 11/11/12
f 8/1/5 2/1/1 13/12/13
f 10/13/14 12/52/16 42/14/15
f 12/15/16 10/12/14 13/12/13
f 2/1/1 16/1/3 15/12/18
f 13/12/13 15/12/18 17/15/19
f 24/18/24 21/18/23 22/17/22
f 25/16/26 23/17/25 22/17/22
f 26/17/27 28/18/31 24/18/24
f 29/16/28 26/17/27 23/17/25
f 27/19/29 26/53/27 29/20/28
f 28/22/31 26/53/27 27/19/29
f 29/24/28 7/5/8 32/7/10
f 29/16/28 25/16/26 3/4/33
f 30/25/30 32/7/10 33/26/34
f 27/19/29 30/21/30 31/28/35
f 33/26/34 32/7/10 6/6/9
f 33/26/34 35/30/37 36/31/38
f 49/33/40 31/27/35 33/26/34
f 6/6/9 9/9/11 37/34/41
f 36/31/38 35/30/37 37/34/41
f 9/9/11 11/11/12 39/36/43
f 37/34/41 39/36/43 40/37/44
f 39/36/43 11/11/12 42/14/15
f 39/36/43 41/38/45 43/39/46
f 41/38/45 42/14/15 45/23/32
f 43/39/46 41/38/45 44/40/47
f 45/23/32 27/19/29 47/29/36
f 44/40/47 47/29/36 48/42/49
f 47/29/36 31/28/35 49/43/40
f 12/52/16 28/22/31 45/23/32
f 28/18/31 12/15/16 14/15/17
f 3/4/33 25/16/26 19/16/21
f 14/15/17 17/15/19 21/18/23
