# Blender 4.0.2
# www.blender.org
mtllib Flower_Segment.mtl
o Segment
v 0.010989 -0.533513 -0.091011
v -0.006068 0.071806 -0.082068
v 0.079748 -0.541515 -0.061100
v -0.056045 -0.541515 -0.061100
v 0.011852 -0.578260 -0.081914
v 0.011852 -0.609411 -0.061100
v -0.050876 -0.578260 -0.055932
v 0.074580 -0.578260 -0.055932
v 0.059862 -0.609411 -0.041214
v 0.100562 -0.578260 0.006796
v 0.107871 -0.541515 0.006796
v 0.079748 -0.609411 0.006796
v 0.074580 -0.578260 0.069524
v 0.079748 -0.541515 0.074693
v 0.059862 -0.609411 0.054806
v 0.011852 -0.578260 0.095507
v 0.011852 -0.609411 0.074693
v -0.050876 -0.578260 0.069524
v 0.010989 -0.533584 0.104469
v -0.006068 0.071851 0.113411
v -0.056045 -0.541515 0.074693
v -0.084168 -0.541515 0.006796
v -0.075180 0.071866 0.084784
v -0.103807 0.071859 0.015672
v -0.070268 0.526003 0.050255
v -0.095121 0.526007 -0.009745
v -0.010342 0.530004 0.074325
v -0.065939 0.562572 0.044818
v -0.052894 0.590182 0.031773
v -0.010342 0.562572 0.067847
v -0.088969 0.562572 -0.010780
v -0.070520 0.590182 -0.010780
v -0.065939 0.562572 -0.066377
v -0.052894 0.590182 -0.053332
v -0.010342 0.562572 -0.089406
v -0.070268 0.526010 -0.069746
v -0.075180 0.071834 -0.053441
v -0.010342 0.530004 -0.095885
v 0.049733 0.526009 -0.069746
v 0.074586 0.526005 -0.009745
v 0.063045 0.071791 -0.053441
v 0.045256 0.562572 -0.066377
v 0.032211 0.590182 -0.053332
v 0.068285 0.562572 -0.010780
v 0.049836 0.590182 -0.010780
v 0.045256 0.562572 0.044818
v 0.032211 0.590182 0.031773
v 0.049733 0.526001 0.050255
v 0.063045 0.071822 0.084784
v 0.091672 0.071797 0.015672
v 0.012687 0.608630 0.012250
v -0.010342 0.590182 0.049399
v -0.010342 0.608630 0.021789
v -0.010342 0.615109 -0.010780
v -0.033371 0.608630 0.012250
v -0.042910 0.608630 -0.010780
v -0.033371 0.608630 -0.033809
v -0.010342 0.608630 -0.043348
v -0.010342 0.590182 -0.070958
v 0.012687 0.608630 -0.033809
v 0.022226 0.608630 -0.010780
v -0.076859 -0.578260 0.006796
v -0.056045 -0.609411 0.006796
v -0.024893 -0.630226 0.006796
v -0.036158 -0.609411 0.054806
v -0.036158 -0.609411 -0.041214
v -0.014131 -0.630226 -0.019186
v 0.011852 -0.637535 0.006796
v 0.011852 -0.630226 -0.029949
v 0.037834 -0.630226 -0.019186
v 0.048597 -0.630226 0.006796
v 0.037834 -0.630226 0.032779
v 0.011852 -0.630226 0.043542
v -0.014131 -0.630226 0.032779
vn -0.0017 -0.0848 -0.9964
vn -0.7129 -0.0147 -0.7011
vn -0.0023 -0.0066 -1.0000
vn 0.7104 0.0126 -0.7037
vn 0.7087 -0.0851 -0.7004
vn 0.0012 -0.3682 -0.9297
vn 0.6578 -0.3668 -0.6578
vn -0.7054 -0.1068 -0.7008
vn -0.6578 -0.3668 -0.6578
vn -0.0000 -0.6839 -0.7296
vn -0.5159 -0.6839 -0.5159
vn 0.5159 -0.6839 -0.5159
vn 0.9303 -0.3668 -0.0000
vn 0.7296 -0.6839 -0.0000
vn 0.9966 -0.0826 -0.0018
vn 0.6578 -0.3668 0.6578
vn 0.5159 -0.6839 0.5159
vn 0.7090 -0.0944 0.6988
vn 0.0012 -0.3673 0.9301
vn -0.0000 -0.6839 0.7296
vn -0.5159 -0.6839 0.5159
vn -0.7055 -0.1162 0.6991
vn -0.6578 -0.3668 0.6578
vn -0.0017 -0.0991 0.9951
vn 0.7013 0.0411 0.7117
vn -0.0024 0.0342 0.9994
vn -0.7044 0.0146 0.7097
vn -0.9303 -0.3668 -0.0000
vn -0.9999 -0.0061 0.0085
vn -0.9937 -0.1117 -0.0018
vn -0.7035 0.1208 0.7003
vn -0.9959 0.0909 -0.0039
vn -0.6613 0.3621 0.6569
vn -0.0014 0.1405 0.9901
vn -0.5159 0.6839 0.5159
vn -0.9359 0.3524 -0.0039
vn -0.0000 0.6839 0.7296
vn -0.0000 0.3668 0.9303
vn -0.7296 0.6839 -0.0000
vn -0.6652 0.3472 -0.6611
vn -0.7114 0.0616 -0.7001
vn -0.0000 0.6839 -0.7296
vn -0.0000 0.3668 -0.9303
vn -0.0014 0.0762 -0.9971
vn 0.6644 0.3485 -0.6611
vn 0.7099 0.0694 -0.7008
vn 0.9351 0.3543 -0.0039
vn 0.9948 0.1020 -0.0040
vn 0.9994 0.0323 0.0084
vn 0.5159 0.6839 -0.5159
vn 0.5159 0.6839 0.5159
vn 0.6606 0.3634 0.6570
vn 0.7017 0.1289 0.7008
vn 0.2988 0.9063 0.2988
vn 0.4226 0.9063 -0.0000
vn 0.7296 0.6839 -0.0000
vn -0.2988 0.9063 0.2988
vn -0.0000 0.9063 0.4226
vn -0.0000 1.0000 -0.0000
vn -0.4226 0.9063 -0.0000
vn -0.5159 0.6839 -0.5159
vn -0.2988 0.9063 -0.2988
vn -0.0000 0.9063 -0.4226
vn 0.2988 0.9063 -0.2988
vn -0.7296 -0.6839 -0.0000
vn -0.4226 -0.9063 -0.0000
vn -0.2988 -0.9063 -0.2988
vn -0.2988 -0.9063 0.2988
vn -0.0000 -0.9063 -0.4226
vn -0.0000 -1.0000 -0.0000
vn 0.2988 -0.9063 -0.2988
vn 0.4226 -0.9063 -0.0000
vn 0.2988 -0.9063 0.2988
vn -0.0000 -0.9063 0.4226
vt 0.000000 1.000000
vt 0.125000 1.000000
vt 0.000000 1.000000
vt 1.000000 1.000000
vt 0.875000 1.000000
vt 0.750000 0.375000
vt 0.625000 0.500000
vt 0.625000 0.375000
vt 0.875000 0.500000
vt 0.875000 0.375000
vt 0.750000 0.250000
vt 0.875000 0.250000
vt 0.625000 0.250000
vt 0.500000 0.375000
vt 0.500000 0.250000
vt 0.500000 0.500000
vt 0.375000 0.375000
vt 0.375000 0.250000
vt 0.375000 0.500000
vt 0.250000 0.375000
vt 0.250000 0.250000
vt 0.125000 0.250000
vt 0.125000 0.500000
vt 0.125000 0.375000
vt 0.500000 1.000000
vt 0.625000 1.000000
vt 0.375000 1.000000
vt 0.000000 0.375000
vt 0.250000 1.000000
vt 0.250000 1.000000
vt 0.125000 0.625000
vt 0.000000 0.500000
vt 0.250000 0.500000
vt 0.125000 0.750000
vt 0.000000 0.625000
vt 0.250000 0.750000
vt 0.250000 0.625000
vt 1.000000 0.750000
vt 0.875000 0.625000
vt 1.000000 0.625000
vt 1.000000 0.500000
vt 0.750000 0.750000
vt 0.750000 0.625000
vt 0.750000 0.500000
vt 0.625000 0.625000
vt 0.500000 0.625000
vt 0.750000 1.000000
vt 0.625000 0.750000
vt 0.375000 0.750000
vt 0.375000 0.625000
vt 0.375000 0.875000
vt 0.500000 0.875000
vt 0.500000 0.750000
vt 0.125000 0.875000
vt 0.250000 0.875000
vt 0.187500 1.000000
vt 0.312500 1.000000
vt 0.000000 0.750000
vt 0.062500 1.000000
vt 0.000000 0.875000
vt 1.000000 0.875000
vt 0.875000 0.750000
vt 0.937500 1.000000
vt 0.875000 0.875000
vt 0.812500 1.000000
vt 0.750000 0.875000
vt 0.625000 0.875000
vt 0.687500 1.000000
vt 0.562500 1.000000
vt 0.437500 1.000000
vt 1.000000 0.375000
vt 1.000000 0.250000
vt 0.000000 0.250000
vt 1.000000 0.125000
vt 0.875000 0.125000
vt 0.000000 0.125000
vt 0.125000 0.125000
vt 0.750000 0.125000
vt 0.812500 0.000000
vt 0.937500 0.000000
vt 0.625000 0.125000
vt 0.687500 0.000000
vt 0.500000 0.125000
vt 0.562500 0.000000
vt 0.375000 0.125000
vt 0.437500 0.000000
vt 0.250000 0.125000
vt 0.312500 0.000000
vt 0.187500 0.000000
vt 0.062500 0.000000
s 1
f 1/1/1 37/2/2 2/3/3
f 1/4/1 41/5/4 3/5/5
f 5/6/6 3/7/5 8/8/7
f 4/9/8 5/6/6 7/10/9
f 7/10/9 6/11/10 66/12/11
f 5/6/6 9/13/12 6/11/10
f 3/7/5 10/14/13 8/8/7
f 8/8/7 12/15/14 9/13/12
f 11/16/15 13/17/16 10/14/13
f 10/14/13 15/18/17 12/15/14
f 14/19/18 16/20/19 13/17/16
f 13/17/16 17/21/20 15/18/17
f 16/20/19 65/22/21 17/21/20
f 16/20/19 21/23/22 18/24/23
f 19/25/24 49/26/25 20/25/26
f 19/25/24 23/27/27 21/27/22
f 21/23/22 62/28/28 18/24/23
f 21/27/22 24/29/29 22/30/30
f 20/25/26 25/27/31 23/27/27
f 24/29/29 25/27/31 26/29/32
f 28/31/33 26/32/32 25/23/31
f 27/33/34 28/31/33 25/23/31
f 29/34/35 31/35/36 28/31/33
f 52/36/37 28/31/33 30/37/38
f 32/38/39 33/39/40 31/40/36
f 31/40/36 36/9/41 26/41/32
f 33/39/40 59/42/42 35/43/43
f 33/39/40 38/44/44 36/9/41
f 37/2/2 26/29/32 36/2/41
f 2/3/3 36/2/41 38/3/44
f 38/44/44 42/45/45 39/7/46
f 2/4/3 39/5/46 41/5/4
f 39/7/46 44/46/47 40/16/48
f 41/5/4 40/47/48 50/47/49
f 43/48/50 44/46/47 42/45/45
f 59/42/42 42/45/45 35/43/43
f 44/46/47 47/49/51 46/50/52
f 40/16/48 46/50/52 48/19/53
f 47/49/51 30/37/38 46/50/52
f 46/50/52 27/33/34 48/19/53
f 50/47/49 48/26/53 49/26/25
f 20/25/26 48/26/53 27/25/34
f 14/26/18 50/47/49 49/26/25
f 11/47/15 41/5/4 50/47/49
f 51/51/54 52/36/37 47/49/51
f 61/52/55 47/49/51 45/53/56
f 52/36/37 55/54/57 29/34/35
f 53/55/58 54/56/59 55/54/57
f 51/51/54 54/57/59 53/55/58
f 55/54/57 32/58/39 29/34/35
f 55/54/57 54/59/59 56/60/60
f 56/61/60 34/62/61 32/38/39
f 56/61/60 54/63/59 57/64/62
f 57/64/62 59/42/42 34/62/61
f 57/64/62 54/65/59 58/66/63
f 59/42/42 60/67/64 43/48/50
f 58/66/63 54/68/59 60/67/64
f 43/48/50 61/52/55 45/53/56
f 60/67/64 54/69/59 61/52/55
f 61/52/55 54/70/59 51/51/54
f 22/30/30 37/2/2 4/2/8
f 22/41/30 7/10/9 62/71/28
f 62/71/28 66/12/11 63/72/65
f 65/22/21 62/28/28 63/73/65
f 64/74/66 66/12/11 67/75/67
f 65/22/21 64/76/66 74/77/68
f 66/12/11 69/78/69 67/75/67
f 68/79/70 67/75/67 69/78/69
f 68/80/70 64/74/66 67/75/67
f 6/11/10 70/81/71 69/78/69
f 68/82/70 69/78/69 70/81/71
f 70/81/71 12/15/14 71/83/72
f 68/84/70 70/81/71 71/83/72
f 12/15/14 72/85/73 71/83/72
f 68/86/70 71/83/72 72/85/73
f 72/85/73 17/21/20 73/87/74
f 68/88/70 72/85/73 73/87/74
f 17/21/20 74/77/68 73/87/74
f 68/89/70 73/87/74 74/77/68
f 68/90/70 74/77/68 64/76/66
f 1/1/1 4/2/8 37/2/2
f 1/4/1 2/4/3 41/5/4
f 5/6/6 1/44/1 3/7/5
f 4/9/8 1/44/1 5/6/6
f 7/10/9 5/6/6 6/11/10
f 5/6/6 8/8/7 9/13/12
f 3/7/5 11/16/15 10/14/13
f 8/8/7 10/14/13 12/15/14
f 11/16/15 14/19/18 13/17/16
f 10/14/13 13/17/16 15/18/17
f 14/19/18 19/33/24 16/20/19
f 13/17/16 16/20/19 17/21/20
f 16/20/19 18/24/23 65/22/21
f 16/20/19 19/33/24 21/23/22
f 19/25/24 14/26/18 49/26/25
f 19/25/24 20/25/26 23/27/27
f 21/23/22 22/32/30 62/28/28
f 21/27/22 23/27/27 24/29/29
f 20/25/26 27/25/34 25/27/31
f 24/29/29 23/27/27 25/27/31
f 28/31/33 31/35/36 26/32/32
f 27/33/34 30/37/38 28/31/33
f 29/34/35 32/58/39 31/35/36
f 52/36/37 29/34/35 28/31/33
f 32/38/39 34/62/61 33/39/40
f 31/40/36 33/39/40 36/9/41
f 33/39/40 34/62/61 59/42/42
f 33/39/40 35/43/43 38/44/44
f 37/2/2 24/29/29 26/29/32
f 2/3/3 37/2/2 36/2/41
f 38/44/44 35/43/43 42/45/45
f 2/4/3 38/4/44 39/5/46
f 39/7/46 42/45/45 44/46/47
f 41/5/4 39/5/46 40/47/48
f 43/48/50 45/53/56 44/46/47
f 59/42/42 43/48/50 42/45/45
f 44/46/47 45/53/56 47/49/51
f 40/16/48 44/46/47 46/50/52
f 47/49/51 52/36/37 30/37/38
f 46/50/52 30/37/38 27/33/34
f 50/47/49 40/47/48 48/26/53
f 20/25/26 49/26/25 48/26/53
f 14/26/18 11/47/15 50/47/49
f 11/47/15 3/5/5 41/5/4
f 51/51/54 53/55/58 52/36/37
f 61/52/55 51/51/54 47/49/51
f 52/36/37 53/55/58 55/54/57
f 55/54/57 56/60/60 32/58/39
f 56/61/60 57/64/62 34/62/61
f 57/64/62 58/66/63 59/42/42
f 59/42/42 58/66/63 60/67/64
f 43/48/50 60/67/64 61/52/55
f 22/30/30 24/29/29 37/2/2
f 22/41/30 4/9/8 7/10/9
f 62/71/28 7/10/9 66/12/11
f 65/22/21 18/24/23 62/28/28
f 64/74/66 63/72/65 66/12/11
f 65/22/21 63/73/65 64/76/66
f 66/12/11 6/11/10 69/78/69
f 6/11/10 9/13/12 70/81/71
f 70/81/71 9/13/12 12/15/14
f 12/15/14 15/18/17 72/85/73
f 72/85/73 15/18/17 17/21/20
f 17/21/20 65/22/21 74/77/68
