# Blender 4.0.2
# www.blender.org
o Hands
v -0.044218 1.841063 -0.483925
v -0.044218 2.184778 -1.313688
v -0.044218 1.136327 -0.706481
v -0.044218 1.331504 -1.583153
v -0.044218 2.116802 -1.739665
v -0.044218 1.631801 -1.892829
v -0.044219 1.921745 -1.966481
v -0.044218 2.132249 -0.861123
v -0.044218 1.114588 -1.182501
v -0.049652 1.461331 -0.508555
v -0.173886 1.816424 -1.632975
v -0.173886 1.583760 -0.896234
v -0.173886 1.696399 -1.252909
v -0.146124 1.824248 -0.614407
v -0.146124 2.107484 -1.298165
v -0.146124 1.243517 -0.797802
v -0.146124 1.404351 -1.520215
v -0.146124 2.051468 -1.649188
v -0.146124 1.651807 -1.775401
v -0.146124 1.890734 -1.836093
v -0.146124 2.064198 -0.925233
v -0.146124 1.225603 -1.190062
v -0.143952 1.511334 -0.634703
v -0.252976 1.803945 -1.561271
v -0.252976 1.612221 -0.954166
v -0.252976 1.705039 -1.248081
v -0.044193 2.180483 -1.081046
v -0.109052 1.573964 -1.608064
v -0.044193 1.099271 -0.931469
v -0.044193 1.472070 -1.761958
v -0.044193 2.172399 -1.540794
v -0.044193 2.034752 -1.882405
v -0.044193 2.000614 -0.646825
v -0.044193 1.201409 -1.390238
v -0.109052 1.405493 -1.217705
v -0.047037 1.649518 -0.462323
v -0.109052 2.000601 -1.473332
v -0.109052 1.914324 -1.057016
v -0.173886 1.756411 -1.442942
v -0.109052 1.724112 -1.762902
v -0.109052 1.966613 -1.686320
v -0.109052 1.360044 -0.801357
v -0.109052 1.712412 -0.690079
v -0.109052 1.349174 -1.039368
v -0.109052 1.858005 -0.878679
v -0.109052 1.940588 -1.283299
v -0.109052 1.513952 -1.418031
v -0.173886 1.640080 -1.074572
v -0.146124 2.085841 -1.111699
v -0.199550 1.604148 -1.540743
v -0.146124 1.234560 -0.993932
v -0.146124 1.528079 -1.647808
v -0.146124 2.079476 -1.473676
v -0.146124 1.971101 -1.742640
v -0.146124 1.944223 -0.769820
v -0.146124 1.314977 -1.355139
v -0.199550 1.465321 -1.219071
v -0.145038 1.667791 -0.624555
v -0.199550 1.955714 -1.429718
v -0.199550 1.884619 -1.086657
v -0.252976 1.754492 -1.404676
v -0.199550 1.727876 -1.668336
v -0.199550 1.927706 -1.605229
v -0.199550 1.427869 -0.875984
v -0.199550 1.718234 -0.784287
v -0.199550 1.418912 -1.072114
v -0.199550 1.838209 -0.939700
v -0.199550 1.906262 -1.273123
v -0.199550 1.554695 -1.384148
v -0.252976 1.658630 -1.101124
v -0.199550 1.847339 -1.698682
v -0.146124 1.771271 -1.805747
v -0.096802 1.486333 -0.571629
v -0.095171 1.832655 -0.549166
v -0.095171 1.641804 -1.834115
v -0.095171 1.906239 -1.901287
v -0.095171 2.084135 -1.694426
v -0.095171 2.098223 -0.893178
v -0.095171 2.146131 -1.305927
v -0.095171 1.367928 -1.551684
v -0.095171 1.170096 -1.186281
v -0.095171 1.189922 -0.752142
v -0.198464 1.561777 -0.794435
v -0.145038 1.377426 -0.716253
v -0.047037 1.280724 -0.578788
v -0.111769 1.522546 -0.702395
v -0.044193 1.780947 -1.962557
v -0.109053 1.869085 -1.799728
v -0.097888 1.642790 -0.561481
v -0.095171 1.786776 -1.870941
v -0.095171 1.986607 -1.807834
v -0.095171 2.124488 -1.119461
v -0.095171 1.952630 -0.704579
v -0.095171 1.278554 -1.386607
v -0.095171 1.180965 -0.948272
v -0.095171 1.518076 -1.706522
v -0.095171 2.112143 -1.518915
v -0.097888 1.352424 -0.653179
vn 0.9466 0.2238 0.2323
vn 0.9512 0.2637 0.1604
vn 0.9319 0.1839 0.3125
vn 0.9662 0.2414 0.0900
vn 0.9717 0.2252 0.0711
vn 0.9704 0.2233 0.0920
vn 0.9662 -0.2493 -0.0650
vn 0.9704 -0.2356 -0.0530
vn 0.9717 -0.2252 -0.0711
vn 0.9311 0.0711 0.3578
vn 0.9466 -0.3166 0.0616
vn 0.9319 -0.3301 0.1502
vn 0.9512 -0.3079 -0.0202
vn 0.9311 -0.2637 0.2520
vn 0.9605 -0.2654 -0.0838
vn 0.9731 0.2267 -0.0411
vn 0.9580 0.1499 -0.2444
vn 0.9689 0.2150 -0.1223
vn 0.9731 -0.1620 -0.1638
vn 0.9689 -0.1058 -0.2236
vn 0.9580 0.0176 -0.2862
vn 0.9586 0.2436 0.1474
vn 0.9644 0.2428 0.1051
vn 0.9689 0.2191 0.1152
vn 0.9697 0.2420 0.0337
vn 0.9697 -0.2175 -0.1114
vn 0.9644 -0.2592 -0.0534
vn 0.9605 0.2654 0.0838
vn -0.9466 -0.2238 -0.2323
vn -0.9256 -0.1875 -0.3287
vn -0.9464 -0.2711 -0.1757
vn -0.9662 -0.2414 -0.0900
vn -0.9688 -0.2278 -0.0979
vn -0.9717 -0.2252 -0.0711
vn -0.9662 0.2493 0.0650
vn -0.9717 0.2252 0.0711
vn -0.9688 0.2427 0.0507
vn -0.9166 -0.0984 -0.3875
vn -0.9466 0.3166 -0.0617
vn -0.9464 0.3229 0.0118
vn -0.9256 0.3423 -0.1614
vn -0.9166 0.3031 -0.2607
vn -0.9605 0.2654 0.0838
vn -0.9734 -0.2243 0.0469
vn -0.9651 -0.2184 0.1445
vn -0.9486 -0.1589 0.2736
vn -0.9734 0.1566 0.1672
vn -0.9486 -0.0270 0.3152
vn -0.9651 0.0958 0.2437
vn -0.8393 -0.4475 -0.3089
vn -0.9651 -0.2302 -0.1246
vn -0.9632 -0.2479 -0.1043
vn -0.9679 -0.2496 -0.0293
vn -0.9679 0.2212 0.1193
vn -0.9632 0.2628 0.0570
vn -0.9605 -0.2654 -0.0838
vn -0.9107 0.0483 0.4102
vn -0.8433 -0.0481 0.5354
vn -0.8092 0.0142 0.5874
vn -0.8279 -0.3020 -0.4725
vn -0.8116 -0.1281 -0.5699
vn -0.7443 -0.3626 -0.5609
vn -0.8023 0.4162 -0.4278
vn -0.7915 0.4529 -0.4103
vn -0.8494 0.3683 -0.3780
vn -0.6213 0.7835 0.0105
vn -0.6686 0.7404 0.0687
vn -0.7424 0.6671 0.0614
vn -0.6423 0.7235 0.2530
vn -0.7472 0.5188 0.4155
vn -0.6692 0.6890 0.2783
vn -0.8525 -0.5048 -0.1358
vn -0.7349 -0.5890 -0.3362
vn -0.7383 -0.6569 -0.1529
vn -0.8165 -0.5098 0.2711
vn -0.7927 -0.6084 0.0389
vn -0.8429 -0.5357 0.0508
vn -0.7482 -0.4677 -0.4707
vn -0.6933 -0.5906 -0.4130
vn -0.6992 0.6594 -0.2765
vn -0.6928 0.7100 -0.1265
vn -0.7672 0.6277 -0.1321
vn -0.8456 -0.2511 0.4711
vn -0.8493 -0.2626 0.4579
vn -0.8795 -0.2418 0.4098
vn -0.8890 -0.0358 0.4565
vn -0.8471 -0.1308 -0.5150
vn -0.7290 0.5190 -0.4463
vn -0.6143 0.7891 0.0010
vn -0.6743 0.5846 0.4513
vn -0.6781 -0.6463 -0.3499
vn -0.8110 -0.5275 0.2529
vn -0.8234 -0.4074 -0.3951
vn -0.6937 0.6679 -0.2696
vn -0.8177 -0.2945 0.4945
vn -0.8926 -0.2292 0.3882
vn -0.8781 -0.4259 0.2180
vn -0.8844 -0.2375 0.4018
vn -0.7946 0.5996 -0.0957
vn -0.8078 0.5894 0.0059
vn -0.8019 0.5559 -0.2189
vn -0.7468 -0.3595 -0.5595
vn -0.8730 -0.4872 0.0222
vn -0.6995 -0.5911 -0.4016
vn -0.7312 0.5257 0.4347
vn -0.5927 0.8001 0.0929
vn -0.8350 0.4172 -0.3587
vn -0.8031 0.4518 -0.3885
vn -0.7588 -0.1603 -0.6312
vn -0.8192 -0.0915 -0.5661
vn -0.8225 -0.1400 -0.5512
vn -0.8084 -0.0437 0.5870
vn -0.8402 -0.0664 0.5381
vn -0.8778 -0.0371 0.4776
vn -0.8050 -0.4065 -0.4322
vn -0.7244 -0.6746 -0.1421
vn -0.7902 -0.5321 -0.3041
vn -0.8131 0.4417 0.3791
vn -0.6531 0.6953 0.3000
vn -0.8603 -0.0855 -0.5026
vn -0.8753 -0.0411 0.4818
vn -0.7906 0.0801 0.6071
vn -0.9651 0.2600 0.0302
vn -0.9675 0.2353 0.0927
vn -0.9618 0.2167 0.1673
vn 0.9689 -0.2455 -0.0315
vn 0.9693 -0.2292 -0.0892
vn 0.9586 -0.2841 -0.0192
vn 0.9667 -0.2027 -0.1562
vn 0.9661 -0.1235 -0.2268
vn 0.9667 0.2557 -0.0114
vn 0.9693 0.2388 0.0587
vn 0.9661 0.2313 -0.1147
vn 0.9613 -0.0008 -0.2755
vn 0.9559 0.0575 -0.2882
vn 0.9613 0.1589 -0.2250
vn 0.9559 0.1184 -0.2689
vn 0.9333 -0.2659 0.2413
vn 0.9261 -0.3484 0.1446
vn 0.9309 -0.2182 0.2930
vn 0.9365 -0.3470 0.0504
vn 0.9333 0.0791 0.3503
vn 0.9309 0.0103 0.3652
vn 0.9261 0.2022 0.3185
vn 0.9365 0.2552 0.2405
vt 0.818271 0.156186
vt 0.711785 0.167406
vt 0.775219 0.097850
vt 0.775533 0.321038
vt 0.755077 0.399941
vt 0.645618 0.342416
vt 0.878698 0.402842
vt 0.838046 0.079910
vt 0.884243 0.126115
vt 0.905893 0.217728
vt 0.797212 0.237417
vt 0.734830 0.478040
vt 0.711784 0.566934
vt 0.637619 0.527253
vt 0.795887 0.568284
vt 0.600831 0.180334
vt 0.688379 0.251623
vt 0.547278 0.269659
vt 0.625681 0.422485
vt 0.857222 0.482513
vt 0.885434 0.302710
vt 0.313881 0.496649
vt 0.279868 0.544105
vt 0.227641 0.488796
vt 0.278585 0.364332
vt 0.173411 0.347446
vt 0.262070 0.300837
vt 0.361662 0.298634
vt 0.330580 0.557538
vt 0.384066 0.446661
vt 0.367056 0.520103
vt 0.296368 0.431542
vt 0.245935 0.237797
vt 0.167323 0.197510
vt 0.227688 0.165144
vt 0.295887 0.165455
vt 0.137457 0.479232
vt 0.100624 0.404428
vt 0.208165 0.420723
vt 0.157356 0.282521
vt 0.344543 0.234775
vt 0.367238 0.378623
vt 0.347160 0.093483
vt 0.271278 0.052433
vt 0.358443 0.058120
vt 0.244562 0.593744
vt 0.300986 0.646393
vt 0.234788 0.627425
vt 0.365801 0.697111
vt 0.397999 0.619055
vt 0.423188 0.660040
vt 0.512611 0.404126
vt 0.480094 0.315649
vt 0.513977 0.298445
vt 0.443488 0.232652
vt 0.410720 0.128250
vt 0.468427 0.216241
vt 0.067695 0.329063
vt 0.074204 0.421831
vt 0.034325 0.327442
vt 0.025172 0.105633
vt 0.043667 0.220271
vt -0.000000 0.209286
vt 0.177448 0.570956
vt 0.112304 0.498036
vt 0.466639 0.595056
vt 0.464701 0.492970
vt 0.499016 0.506685
vt 0.186296 0.014409
vt 0.132365 0.086298
vt 0.096182 0.044672
vt 0.279683 0.089472
vt 0.295952 0.608616
vt 0.356764 0.657712
vt 0.484103 0.399054
vt 0.397383 0.162484
vt 0.056611 0.131860
vt 0.189468 0.537925
vt 0.443940 0.569003
vt 0.197891 0.052556
vt 0.146150 0.121996
vt 0.086985 0.157157
vt 0.209083 0.089460
vt 0.441057 0.469581
vt 0.456273 0.394153
vt 0.421962 0.544230
vt 0.224855 0.662568
vt 0.075226 0.243389
vt 0.086545 0.517326
vt 0.370007 0.021339
vt 0.451718 0.312495
vt 0.386416 0.583084
vt 0.348073 0.620012
vt 0.150517 0.601397
vt -0.000000 0.325449
vt 0.031939 0.424227
vt 0.439601 0.099224
vt 0.493945 0.199015
vt 0.296795 0.696046
vt 0.279780 0.000000
vt 1.000000 0.387028
vt 0.982822 0.486475
vt 0.996591 0.282935
vt 0.927943 0.585202
vt 0.858966 0.660969
vt 0.513977 0.477880
vt 0.513977 0.364926
vt 0.537454 0.577617
vt 0.773462 0.674860
vt 0.688062 0.658435
vt 0.605439 0.631299
vt 0.911854 0.034111
vt 0.953390 0.094984
vt 0.858763 0.000000
vt 0.984732 0.181777
vt 0.795785 0.004020
vt 0.729906 0.037046
vt 0.660344 0.097679
s 1
f 11/1/1 28/2/2 40/3/3
f 13/4/4 48/5/5 35/6/6
f 13/4/7 38/7/8 48/5/9
f 11/1/1 40/3/3 88/8/10
f 11/1/11 41/9/12 37/10/13
f 11/1/11 88/8/14 41/9/12
f 11/1/11 37/10/13 39/11/15
f 12/12/16 86/13/17 42/14/18
f 12/12/19 43/15/20 86/13/21
f 4/16/22 47/17/23 34/18/24
f 12/12/16 42/14/18 44/19/25
f 12/12/19 45/20/26 43/15/20
f 13/4/7 46/21/27 38/7/8
f 13/4/4 47/17/23 39/11/28
f 24/22/29 62/23/30 50/24/31
f 26/25/32 57/26/33 70/27/34
f 26/25/35 70/27/36 60/28/37
f 24/22/29 71/29/38 62/23/30
f 24/22/39 59/30/40 63/31/41
f 24/22/39 63/31/41 71/29/42
f 24/22/39 61/32/43 59/30/40
f 25/33/44 64/34/45 83/35/46
f 25/33/47 83/35/48 65/36/49
f 17/37/50 56/38/51 69/39/52
f 25/33/44 66/40/53 64/34/45
f 25/33/47 65/36/49 67/41/54
f 26/25/35 60/28/37 68/42/55
f 26/25/32 61/32/56 69/39/52
f 14/43/57 89/44/58 74/45/59
f 19/46/60 90/47/61 75/48/62
f 7/49/63 91/50/64 32/51/65
f 2/52/66 92/53/67 27/54/68
f 21/55/69 93/56/70 78/57/71
f 22/58/72 94/59/73 81/60/74
f 3/61/75 95/62/76 29/63/77
f 17/37/50 96/64/78 80/65/79
f 5/66/80 97/67/81 31/68/82
f 10/69/83 98/70/84 85/71/85
f 14/43/57 58/72/86 89/44/58
f 19/46/60 72/73/87 90/47/61
f 7/49/63 76/74/88 91/50/64
f 2/52/66 79/75/89 92/53/67
f 21/55/69 55/76/90 93/56/70
f 22/58/72 56/38/91 94/59/73
f 3/61/75 82/77/92 95/62/76
f 17/37/50 52/78/93 96/64/78
f 5/66/80 77/79/94 97/67/81
f 10/69/83 73/80/95 98/70/84
f 98/70/84 84/81/96 16/82/97
f 98/70/84 73/80/95 84/81/96
f 73/80/95 23/83/98 84/81/96
f 97/67/81 53/84/99 15/85/100
f 97/67/81 77/79/94 53/84/99
f 77/79/94 18/86/101 53/84/99
f 96/64/78 75/48/62 6/87/102
f 96/64/78 52/78/93 75/48/62
f 52/78/93 19/46/60 75/48/62
f 95/62/76 51/88/103 22/58/72
f 95/62/76 82/77/92 51/88/103
f 82/77/92 16/82/97 51/88/103
f 94/59/73 80/65/79 4/89/104
f 94/59/73 56/38/91 80/65/79
f 56/38/91 17/37/50 80/65/79
f 93/56/70 74/45/90 1/90/105
f 93/56/70 55/76/90 74/45/90
f 55/76/90 14/43/90 74/45/90
f 92/53/67 49/91/106 21/55/69
f 92/53/67 79/75/89 49/91/106
f 79/75/89 15/85/100 49/91/106
f 91/50/64 54/92/107 18/86/101
f 91/50/64 76/74/88 54/92/107
f 76/74/88 20/93/108 54/92/107
f 90/47/61 76/74/109 7/49/110
f 90/47/61 72/73/87 76/74/109
f 72/73/87 20/93/111 76/74/109
f 89/44/58 73/80/112 10/69/113
f 89/44/58 58/72/86 73/80/112
f 58/72/86 23/83/114 73/80/112
f 85/71/85 82/77/92 3/61/75
f 85/71/85 98/70/84 82/77/92
f 98/70/84 16/82/97 82/77/92
f 31/68/82 79/75/89 2/52/66
f 31/68/82 97/67/81 79/75/89
f 97/67/81 15/85/100 79/75/89
f 80/65/79 30/94/115 4/89/104
f 80/65/79 96/64/78 30/94/115
f 96/64/78 6/87/102 30/94/115
f 29/63/77 81/60/74 9/95/116
f 29/63/77 95/62/76 81/60/74
f 95/62/76 22/58/72 81/60/74
f 81/60/74 34/96/117 9/95/116
f 81/60/74 94/59/73 34/96/117
f 94/59/73 4/89/104 34/96/117
f 78/57/71 33/97/118 8/98/119
f 78/57/71 93/56/70 33/97/118
f 93/56/70 1/90/105 33/97/118
f 27/54/68 78/57/71 8/98/119
f 27/54/68 92/53/67 78/57/71
f 92/53/67 21/55/69 78/57/71
f 32/51/65 77/79/94 5/66/80
f 32/51/65 91/50/64 77/79/94
f 91/50/64 18/86/101 77/79/94
f 75/48/62 87/99/120 6/87/102
f 75/48/62 90/47/61 87/99/120
f 90/47/61 7/49/110 87/99/120
f 74/45/59 36/100/121 1/90/122
f 74/45/59 89/44/58 36/100/121
f 89/44/58 10/69/113 36/100/121
f 69/39/52 50/24/31 17/37/50
f 69/39/52 61/32/56 50/24/31
f 61/32/56 24/22/29 50/24/31
f 68/42/55 49/91/123 15/85/100
f 68/42/55 60/28/37 49/91/123
f 60/28/37 21/55/124 49/91/123
f 67/41/54 55/76/125 21/55/124
f 67/41/54 65/36/49 55/76/125
f 65/36/49 14/43/57 55/76/125
f 64/34/45 51/88/103 16/82/97
f 64/34/45 66/40/53 51/88/103
f 66/40/53 22/58/72 51/88/103
f 69/39/52 57/26/33 26/25/32
f 69/39/52 56/38/51 57/26/33
f 56/38/51 22/58/72 57/26/33
f 65/36/49 58/72/86 14/43/57
f 65/36/49 83/35/48 58/72/86
f 83/35/48 23/83/114 58/72/86
f 83/35/46 84/81/96 23/83/98
f 83/35/46 64/34/45 84/81/96
f 64/34/45 16/82/97 84/81/96
f 59/30/40 68/42/55 15/85/100
f 59/30/40 61/32/43 68/42/55
f 61/32/43 26/25/35 68/42/55
f 71/29/42 54/92/107 20/93/108
f 71/29/42 63/31/41 54/92/107
f 63/31/41 18/86/101 54/92/107
f 63/31/41 53/84/99 18/86/101
f 63/31/41 59/30/40 53/84/99
f 59/30/40 15/85/100 53/84/99
f 62/23/30 72/73/87 19/46/60
f 62/23/30 71/29/38 72/73/87
f 71/29/38 20/93/111 72/73/87
f 60/28/37 67/41/54 21/55/124
f 60/28/37 70/27/36 67/41/54
f 70/27/36 25/33/47 67/41/54
f 70/27/34 66/40/53 25/33/44
f 70/27/34 57/26/33 66/40/53
f 57/26/33 22/58/72 66/40/53
f 50/24/31 52/78/93 17/37/50
f 50/24/31 62/23/30 52/78/93
f 62/23/30 19/46/60 52/78/93
f 39/11/28 28/2/2 11/1/1
f 39/11/28 47/17/23 28/2/2
f 47/17/23 4/16/22 28/2/2
f 38/7/8 27/101/126 8/102/127
f 38/7/8 46/21/27 27/101/126
f 46/21/27 2/103/128 27/101/126
f 43/15/20 33/104/129 1/105/130
f 43/15/20 45/20/26 33/104/129
f 45/20/26 8/102/127 33/104/129
f 44/19/25 29/106/131 9/107/132
f 44/19/25 42/14/18 29/106/131
f 42/14/18 3/108/133 29/106/131
f 34/18/24 35/6/6 9/107/132
f 34/18/24 47/17/23 35/6/6
f 47/17/23 13/4/4 35/6/6
f 86/13/21 36/109/134 10/110/135
f 86/13/21 43/15/20 36/109/134
f 43/15/20 1/105/130 36/109/134
f 42/14/18 85/111/136 3/108/133
f 42/14/18 86/13/17 85/111/136
f 86/13/17 10/110/137 85/111/136
f 39/11/15 46/21/27 13/4/7
f 39/11/15 37/10/13 46/21/27
f 37/10/13 2/103/128 46/21/27
f 41/9/12 32/112/138 5/113/139
f 41/9/12 88/8/14 32/112/138
f 88/8/14 7/114/140 32/112/138
f 37/10/13 31/115/141 2/103/128
f 37/10/13 41/9/12 31/115/141
f 41/9/12 5/113/139 31/115/141
f 88/8/10 87/116/142 7/114/143
f 88/8/10 40/3/3 87/116/142
f 40/3/3 6/117/144 87/116/142
f 48/5/9 45/20/26 12/12/19
f 48/5/9 38/7/8 45/20/26
f 38/7/8 8/102/127 45/20/26
f 35/6/6 44/19/25 9/107/132
f 35/6/6 48/5/5 44/19/25
f 48/5/5 12/12/16 44/19/25
f 40/3/3 30/118/145 6/117/144
f 40/3/3 28/2/2 30/118/145
f 28/2/2 4/16/22 30/118/145
