# Blender 4.0.2
# www.blender.org
mtllib Flower_Eyes.mtl
o Eyes
v 0.412134 -0.034568 1.183536
v 0.357654 -0.266837 0.273459
v 0.464868 -0.034934 1.184588
v 0.410388 -0.267203 0.274511
v 0.357441 -0.344775 0.497815
v 0.383436 -0.244294 0.962671
v 0.357672 -0.355819 0.537281
v 0.358433 -0.362733 0.580056
v 0.359709 -0.365377 0.625269
v 0.361472 -0.363698 0.671998
v 0.363687 -0.357728 0.719294
v 0.366310 -0.347591 0.766193
v 0.369286 -0.333492 0.811740
v 0.372556 -0.315718 0.855009
v 0.376052 -0.294631 0.895118
v 0.379703 -0.270660 0.931250
v 0.412348 0.043369 0.959180
v 0.386352 -0.057111 0.494323
v 0.412116 0.054413 0.919713
v 0.411355 0.061327 0.876938
v 0.410080 0.063972 0.831726
v 0.408316 0.062292 0.784996
v 0.406101 0.056323 0.737700
v 0.403478 0.046185 0.690802
v 0.400502 0.032086 0.645254
v 0.397232 0.014312 0.601986
v 0.393736 -0.006775 0.561877
v 0.390085 -0.030745 0.525744
v 0.436170 -0.244660 0.963723
v 0.410175 -0.345141 0.498867
v 0.432437 -0.271026 0.932302
v 0.428786 -0.294996 0.896170
v 0.425290 -0.316083 0.856061
v 0.422020 -0.333857 0.812792
v 0.419044 -0.347956 0.767245
v 0.416421 -0.358094 0.720346
v 0.414206 -0.364063 0.673050
v 0.412443 -0.365743 0.626321
v 0.411167 -0.363099 0.581108
v 0.410406 -0.356184 0.538333
v 0.439086 -0.057477 0.495375
v 0.465082 0.043004 0.960232
v 0.442819 -0.031111 0.526796
v 0.446470 -0.007140 0.562929
v 0.449966 0.013947 0.603038
v 0.453236 0.031721 0.646306
v 0.456212 0.045820 0.691854
v 0.458835 0.055957 0.738753
v 0.461050 0.061927 0.786048
v 0.462814 0.063606 0.832778
v 0.464089 0.060962 0.877990
v 0.464850 0.054048 0.920765
v 0.412134 -0.034568 -1.183536
v 0.357654 -0.266837 -0.273459
v 0.464868 -0.034934 -1.184588
v 0.410388 -0.267203 -0.274511
v 0.357441 -0.344775 -0.497815
v 0.383436 -0.244294 -0.962671
v 0.357672 -0.355819 -0.537281
v 0.358433 -0.362733 -0.580056
v 0.359709 -0.365377 -0.625269
v 0.361472 -0.363698 -0.671998
v 0.363687 -0.357728 -0.719294
v 0.366310 -0.347591 -0.766193
v 0.369286 -0.333492 -0.811740
v 0.372556 -0.315718 -0.855009
v 0.376052 -0.294631 -0.895118
v 0.379703 -0.270660 -0.931250
v 0.412348 0.043369 -0.959180
v 0.386352 -0.057111 -0.494323
v 0.412116 0.054413 -0.919713
v 0.411355 0.061327 -0.876938
v 0.410080 0.063972 -0.831726
v 0.408316 0.062292 -0.784996
v 0.406101 0.056323 -0.737700
v 0.403478 0.046185 -0.690802
v 0.400502 0.032086 -0.645254
v 0.397232 0.014312 -0.601986
v 0.393736 -0.006775 -0.561877
v 0.390085 -0.030745 -0.525744
v 0.436170 -0.244660 -0.963723
v 0.410175 -0.345141 -0.498867
v 0.432437 -0.271026 -0.932302
v 0.428786 -0.294996 -0.896170
v 0.425290 -0.316083 -0.856061
v 0.422020 -0.333857 -0.812792
v 0.419044 -0.347956 -0.767245
v 0.416421 -0.358094 -0.720346
v 0.414206 -0.364063 -0.673050
v 0.412443 -0.365743 -0.626321
v 0.411167 -0.363099 -0.581108
v 0.410406 -0.356184 -0.538333
v 0.439086 -0.057477 -0.495375
v 0.465082 0.043004 -0.960232
v 0.442819 -0.031111 -0.526796
v 0.446470 -0.007140 -0.562929
v 0.449966 0.013947 -0.603038
v 0.453236 0.031721 -0.646306
v 0.456212 0.045820 -0.691854
v 0.458835 0.055957 -0.738753
v 0.461050 0.061927 -0.786048
v 0.462814 0.063606 -0.832778
v 0.464089 0.060962 -0.877990
v 0.464850 0.054048 -0.920765
vn -0.0186 -0.7350 0.6778
vn -0.0188 -0.7238 0.6897
vn -0.0183 -0.7543 0.6562
vn 0.9944 -0.1004 -0.0339
vn 0.0007 0.9544 0.2985
vn -0.0000 0.9446 0.3281
vn 0.0006 0.9541 0.2994
vn -0.9944 0.1004 0.0339
vn 0.0186 0.7350 -0.6778
vn 0.0188 0.7238 -0.6897
vn 0.0024 0.9757 0.2190
vn 0.0026 0.9775 0.2109
vn 0.0046 0.9932 0.1165
vn 0.0049 0.9948 0.1020
vn 0.0065 0.9998 0.0208
vn 0.0069 1.0000 0.0018
vn 0.0083 0.9975 -0.0695
vn 0.0087 0.9957 -0.0920
vn 0.0100 0.9877 -0.1559
vn 0.0104 0.9834 -0.1814
vn 0.0115 0.9707 -0.2399
vn 0.0120 0.9633 -0.2683
vn 0.0130 0.9463 -0.3231
vn 0.0135 0.9350 -0.3543
vn 0.0144 0.9135 -0.4066
vn 0.0150 0.8974 -0.4409
vn 0.0158 0.8707 -0.4916
vn 0.0164 0.8483 -0.5292
vn 0.0172 0.8152 -0.5790
vn 0.0178 0.7845 -0.6199
vn 0.0183 0.7543 -0.6562
vn -0.0007 -0.9544 -0.2985
vn -0.0024 -0.9757 -0.2190
vn -0.0006 -0.9541 -0.2994
vn -0.0026 -0.9775 -0.2109
vn -0.0046 -0.9932 -0.1165
vn -0.0049 -0.9948 -0.1020
vn -0.0065 -0.9998 -0.0208
vn -0.0069 -1.0000 -0.0018
vn -0.0083 -0.9975 0.0695
vn -0.0087 -0.9957 0.0920
vn -0.0100 -0.9877 0.1559
vn -0.0104 -0.9834 0.1814
vn -0.0115 -0.9707 0.2399
vn -0.0120 -0.9633 0.2683
vn -0.0130 -0.9463 0.3231
vn -0.0135 -0.9350 0.3543
vn -0.0144 -0.9135 0.4066
vn -0.0150 -0.8974 0.4409
vn -0.0158 -0.8707 0.4916
vn -0.0164 -0.8483 0.5292
vn -0.0172 -0.8152 0.5790
vn -0.0178 -0.7845 0.6199
vn -0.0000 -0.9446 -0.3281
vn -0.0186 -0.7350 -0.6778
vn -0.0183 -0.7543 -0.6562
vn -0.0188 -0.7238 -0.6897
vn 0.9944 -0.1004 0.0339
vn 0.0007 0.9544 -0.2985
vn 0.0006 0.9541 -0.2994
vn -0.0000 0.9446 -0.3281
vn -0.9944 0.1004 -0.0339
vn 0.0186 0.7350 0.6778
vn 0.0188 0.7238 0.6897
vn 0.0026 0.9775 -0.2109
vn 0.0024 0.9757 -0.2190
vn 0.0049 0.9948 -0.1020
vn 0.0046 0.9932 -0.1165
vn 0.0069 1.0000 -0.0018
vn 0.0065 0.9998 -0.0208
vn 0.0087 0.9957 0.0920
vn 0.0083 0.9975 0.0695
vn 0.0104 0.9834 0.1814
vn 0.0100 0.9877 0.1559
vn 0.0120 0.9633 0.2683
vn 0.0115 0.9707 0.2399
vn 0.0135 0.9350 0.3543
vn 0.0130 0.9463 0.3231
vn 0.0150 0.8974 0.4409
vn 0.0144 0.9135 0.4066
vn 0.0164 0.8483 0.5292
vn 0.0158 0.8707 0.4916
vn 0.0178 0.7845 0.6199
vn 0.0172 0.8152 0.5790
vn 0.0183 0.7543 0.6562
vn -0.0007 -0.9544 0.2985
vn -0.0006 -0.9541 0.2994
vn -0.0024 -0.9757 0.2190
vn -0.0026 -0.9775 0.2109
vn -0.0046 -0.9932 0.1165
vn -0.0049 -0.9948 0.1020
vn -0.0065 -0.9998 0.0208
vn -0.0069 -1.0000 0.0018
vn -0.0083 -0.9975 -0.0695
vn -0.0087 -0.9957 -0.0920
vn -0.0100 -0.9877 -0.1559
vn -0.0104 -0.9834 -0.1814
vn -0.0115 -0.9707 -0.2399
vn -0.0120 -0.9633 -0.2683
vn -0.0130 -0.9463 -0.3231
vn -0.0135 -0.9350 -0.3543
vn -0.0144 -0.9135 -0.4066
vn -0.0150 -0.8974 -0.4409
vn -0.0158 -0.8707 -0.4916
vn -0.0164 -0.8483 -0.5292
vn -0.0172 -0.8152 -0.5790
vn -0.0178 -0.7845 -0.6199
vn -0.0000 -0.9446 0.3281
vt 0.494419 0.750000
vt 0.625000 1.000000
vt 0.494419 1.000000
vt 0.376215 0.634314
vt 0.375000 0.615119
vt 0.505581 0.500000
vt 0.875000 0.634881
vt 0.625000 0.750000
vt 0.625000 0.634881
vt 0.522576 0.248627
vt 0.505581 0.250000
vt 0.444811 0.012189
vt 0.375000 0.500000
vt 0.375000 0.250000
vt 0.626272 0.615058
vt 0.876272 0.615058
vt 0.630062 0.594381
vt 0.880062 0.594381
vt 0.636293 0.573274
vt 0.886293 0.573274
vt 0.644838 0.552164
vt 0.894838 0.552164
vt 0.655732 0.500000
vt 0.875000 0.500000
vt 0.625000 0.250000
vt 0.597127 0.485864
vt 0.597127 0.235863
vt 0.578816 0.490812
vt 0.578816 0.240812
vt 0.560126 0.494770
vt 0.560126 0.244770
vt 0.541438 0.497655
vt 0.541438 0.247656
vt 0.523132 0.499411
vt 0.523132 0.249411
vt 0.126272 0.634942
vt 0.125000 0.615119
vt 0.376272 0.634942
vt 0.130062 0.655619
vt 0.380062 0.655619
vt 0.136293 0.676727
vt 0.386293 0.676727
vt 0.144838 0.697836
vt 0.394838 0.697836
vt 0.155523 0.718518
vt 0.405523 0.718518
vt 0.168208 0.750000
vt 0.375000 0.750000
vt 0.421184 0.990812
vt 0.375000 0.956792
vt 0.421184 0.740812
vt 0.439874 0.994770
vt 0.439874 0.744770
vt 0.458562 0.997656
vt 0.458562 0.747656
vt 0.476868 0.999411
vt 0.476868 0.749411
vt 0.125000 0.500000
vt 0.522576 0.501373
vt 0.444810 0.737811
vt 0.539225 0.505464
vt 0.429856 0.728588
vt 0.416216 0.717055
vt 0.555190 0.512189
vt 0.460775 0.744537
vt 0.570144 0.521412
vt 0.477424 0.748627
vt 0.583784 0.532945
vt 0.595832 0.546553
vt 0.606043 0.561959
vt 0.614208 0.578850
vt 0.620163 0.596881
vt 0.623785 0.615686
vt 0.404168 0.703447
vt 0.393957 0.688041
vt 0.385792 0.671150
vt 0.379837 0.653119
vt 0.875000 0.750000
vt 0.375000 0.134881
vt 0.376215 0.115686
vt 0.379837 0.096881
vt 0.385792 0.078850
vt 0.393957 0.061959
vt 0.404168 0.046553
vt 0.416216 0.032945
vt 0.429856 0.021412
vt 0.460775 0.005464
vt 0.539225 0.244536
vt 0.477424 0.001373
vt 0.555190 0.237811
vt 0.494419 0.000000
vt 0.625000 0.000000
vt 0.625000 0.115119
vt 0.623785 0.134314
vt 0.620163 0.153119
vt 0.614208 0.171150
vt 0.606043 0.188041
vt 0.595832 0.203447
vt 0.583784 0.217055
vt 0.570144 0.228588
vt 0.625000 0.469268
s 1
f 29/1/1 1/2/2 6/3/3
f 40/4/4 30/5/4 41/6/4
f 17/7/5 3/8/6 42/9/7
f 28/10/8 18/11/8 14/12/8
f 18/11/9 4/13/10 2/14/10
f 17/7/5 52/15/11 19/16/12
f 19/16/12 51/17/13 20/18/14
f 20/18/14 50/19/15 21/20/16
f 21/20/16 49/21/17 22/22/18
f 22/22/18 48/23/19 23/24/20
f 23/25/20 47/26/21 24/27/22
f 24/27/22 46/28/23 25/29/24
f 25/29/24 45/30/25 26/31/26
f 26/31/26 44/32/27 27/33/28
f 27/33/28 43/34/29 28/35/30
f 28/35/30 41/6/31 18/11/9
f 30/5/32 7/36/33 5/37/34
f 40/38/35 8/39/36 7/36/33
f 39/40/37 9/41/38 8/39/36
f 38/42/39 10/43/40 9/41/38
f 37/44/41 11/45/42 10/43/40
f 36/46/43 12/47/44 11/45/42
f 35/48/45 13/49/46 12/50/44
f 34/51/47 14/52/48 13/49/46
f 33/53/49 15/54/50 14/52/48
f 32/55/51 16/56/52 15/54/50
f 31/57/53 6/3/3 16/56/52
f 2/58/54 30/5/32 5/37/34
f 29/1/1 3/8/2 1/2/2
f 30/5/4 4/13/4 41/6/4
f 41/6/4 43/59/4 33/60/4
f 43/59/4 44/61/4 33/60/4
f 41/6/4 34/62/4 35/63/4
f 44/61/4 45/64/4 32/65/4
f 45/64/4 46/66/4 29/1/4
f 31/67/4 45/64/4 29/1/4
f 46/66/4 47/68/4 29/1/4
f 47/68/4 48/69/4 29/1/4
f 48/69/4 49/70/4 29/1/4
f 49/70/4 50/71/4 29/1/4
f 50/71/4 51/72/4 29/1/4
f 51/72/4 52/73/4 29/1/4
f 52/73/4 42/9/4 29/1/4
f 42/9/4 3/8/4 29/1/4
f 31/67/4 32/65/4 45/64/4
f 32/65/4 33/60/4 44/61/4
f 33/60/4 34/62/4 41/6/4
f 35/63/4 36/74/4 41/6/4
f 36/74/4 37/75/4 41/6/4
f 37/75/4 38/76/4 41/6/4
f 38/76/4 39/77/4 41/6/4
f 39/77/4 40/4/4 41/6/4
f 17/7/5 1/78/6 3/8/6
f 2/14/8 5/79/8 18/11/8
f 5/79/8 7/80/8 18/11/8
f 7/80/8 8/81/8 18/11/8
f 8/81/8 9/82/8 18/11/8
f 9/82/8 10/83/8 18/11/8
f 10/83/8 11/84/8 18/11/8
f 11/84/8 12/85/8 18/11/8
f 12/85/8 13/86/8 18/11/8
f 18/11/8 13/86/8 14/12/8
f 14/12/8 15/87/8 27/88/8
f 28/10/8 14/12/8 27/88/8
f 15/87/8 16/89/8 26/90/8
f 16/89/8 6/91/8 26/90/8
f 6/91/8 1/92/8 17/93/8
f 17/93/8 19/94/8 6/91/8
f 19/94/8 20/95/8 6/91/8
f 20/95/8 21/96/8 6/91/8
f 21/96/8 22/97/8 6/91/8
f 22/97/8 23/98/8 6/91/8
f 23/98/8 24/99/8 6/91/8
f 24/99/8 25/100/8 6/91/8
f 25/100/8 26/90/8 6/91/8
f 26/90/8 27/88/8 15/87/8
f 18/11/9 41/6/31 4/13/10
f 17/7/5 42/9/7 52/15/11
f 19/16/12 52/15/11 51/17/13
f 20/18/14 51/17/13 50/19/15
f 21/20/16 50/19/15 49/21/17
f 22/22/18 49/21/17 48/23/19
f 23/25/20 48/101/19 47/26/21
f 24/27/22 47/26/21 46/28/23
f 25/29/24 46/28/23 45/30/25
f 26/31/26 45/30/25 44/32/27
f 27/33/28 44/32/27 43/34/29
f 28/35/30 43/34/29 41/6/31
f 30/5/32 40/38/35 7/36/33
f 40/38/35 39/40/37 8/39/36
f 39/40/37 38/42/39 9/41/38
f 38/42/39 37/44/41 10/43/40
f 37/44/41 36/46/43 11/45/42
f 36/46/43 35/48/45 12/47/44
f 35/48/45 34/51/47 13/49/46
f 34/51/47 33/53/49 14/52/48
f 33/53/49 32/55/51 15/54/50
f 32/55/51 31/57/53 16/56/52
f 31/57/53 29/1/1 6/3/3
f 2/58/54 4/13/54 30/5/32
f 81/1/55 58/3/56 53/2/57
f 92/4/58 93/6/58 82/5/58
f 69/7/59 94/9/60 55/8/61
f 80/10/62 66/12/62 70/11/62
f 70/11/63 54/14/64 56/13/64
f 69/7/59 71/16/65 104/15/66
f 71/16/65 72/18/67 103/17/68
f 72/18/67 73/20/69 102/19/70
f 73/20/69 74/22/71 101/21/72
f 74/22/71 75/24/73 100/23/74
f 75/25/73 76/27/75 99/26/76
f 76/27/75 77/29/77 98/28/78
f 77/29/77 78/31/79 97/30/80
f 78/31/79 79/33/81 96/32/82
f 79/33/81 80/35/83 95/34/84
f 80/35/83 70/11/63 93/6/85
f 82/5/86 57/37/87 59/36/88
f 92/38/89 59/36/88 60/39/90
f 91/40/91 60/39/90 61/41/92
f 90/42/93 61/41/92 62/43/94
f 89/44/95 62/43/94 63/45/96
f 88/46/97 63/45/96 64/47/98
f 87/48/99 64/50/98 65/49/100
f 86/51/101 65/49/100 66/52/102
f 85/53/103 66/52/102 67/54/104
f 84/55/105 67/54/104 68/56/106
f 83/57/107 68/56/106 58/3/56
f 54/58/108 57/37/87 82/5/86
f 81/1/55 53/2/57 55/8/57
f 82/5/58 93/6/58 56/13/58
f 93/6/58 85/60/58 95/59/58
f 95/59/58 85/60/58 96/61/58
f 93/6/58 87/63/58 86/62/58
f 96/61/58 84/65/58 97/64/58
f 97/64/58 81/1/58 98/66/58
f 83/67/58 81/1/58 97/64/58
f 98/66/58 81/1/58 99/68/58
f 99/68/58 81/1/58 100/69/58
f 100/69/58 81/1/58 101/70/58
f 101/70/58 81/1/58 102/71/58
f 102/71/58 81/1/58 103/72/58
f 103/72/58 81/1/58 104/73/58
f 104/73/58 81/1/58 94/9/58
f 94/9/58 81/1/58 55/8/58
f 83/67/58 97/64/58 84/65/58
f 84/65/58 96/61/58 85/60/58
f 85/60/58 93/6/58 86/62/58
f 87/63/58 93/6/58 88/74/58
f 88/74/58 93/6/58 89/75/58
f 89/75/58 93/6/58 90/76/58
f 90/76/58 93/6/58 91/77/58
f 91/77/58 93/6/58 92/4/58
f 69/7/59 55/8/61 53/78/61
f 54/14/62 70/11/62 57/79/62
f 57/79/62 70/11/62 59/80/62
f 59/80/62 70/11/62 60/81/62
f 60/81/62 70/11/62 61/82/62
f 61/82/62 70/11/62 62/83/62
f 62/83/62 70/11/62 63/84/62
f 63/84/62 70/11/62 64/85/62
f 64/85/62 70/11/62 65/86/62
f 70/11/62 66/12/62 65/86/62
f 66/12/62 79/88/62 67/87/62
f 80/10/62 79/88/62 66/12/62
f 67/87/62 78/90/62 68/89/62
f 68/89/62 78/90/62 58/91/62
f 58/91/62 69/93/62 53/92/62
f 69/93/62 58/91/62 71/94/62
f 71/94/62 58/91/62 72/95/62
f 72/95/62 58/91/62 73/96/62
f 73/96/62 58/91/62 74/97/62
f 74/97/62 58/91/62 75/98/62
f 75/98/62 58/91/62 76/99/62
f 76/99/62 58/91/62 77/100/62
f 77/100/62 58/91/62 78/90/62
f 78/90/62 67/87/62 79/88/62
f 70/11/63 56/13/64 93/6/85
f 69/7/59 104/15/66 94/9/60
f 71/16/65 103/17/68 104/15/66
f 72/18/67 102/19/70 103/17/68
f 73/20/69 101/21/72 102/19/70
f 74/22/71 100/23/74 101/21/72
f 75/25/73 99/26/76 100/101/74
f 76/27/75 98/28/78 99/26/76
f 77/29/77 97/30/80 98/28/78
f 78/31/79 96/32/82 97/30/80
f 79/33/81 95/34/84 96/32/82
f 80/35/83 93/6/85 95/34/84
f 82/5/86 59/36/88 92/38/89
f 92/38/89 60/39/90 91/40/91
f 91/40/91 61/41/92 90/42/93
f 90/42/93 62/43/94 89/44/95
f 89/44/95 63/45/96 88/46/97
f 88/46/97 64/47/98 87/48/99
f 87/48/99 65/49/100 86/51/101
f 86/51/101 66/52/102 85/53/103
f 85/53/103 67/54/104 84/55/105
f 84/55/105 68/56/106 83/57/107
f 83/57/107 58/3/56 81/1/55
f 54/58/108 82/5/86 56/13/108
