# Blender 4.0.2
# www.blender.org
o Eyes
v 0.341108 4.592822 1.092011
v 0.286628 4.360552 0.181934
v 0.260048 4.282797 0.405764
v 0.286043 4.383278 0.870621
v 0.260279 4.271754 0.445230
v 0.261040 4.264840 0.488005
v 0.262315 4.262195 0.533218
v 0.264079 4.263875 0.579947
v 0.266294 4.269844 0.627243
v 0.268917 4.279982 0.674142
v 0.271893 4.294081 0.719689
v 0.275163 4.311855 0.762958
v 0.278659 4.332942 0.803067
v 0.282310 4.356912 0.839199
v 0.314955 4.670942 0.867129
v 0.288959 4.570461 0.402272
v 0.314723 4.681986 0.827662
v 0.313962 4.688900 0.784888
v 0.312687 4.691544 0.739675
v 0.310923 4.689865 0.692945
v 0.308708 4.683896 0.645650
v 0.306085 4.673758 0.598751
v 0.303109 4.659659 0.553204
v 0.299839 4.641885 0.509935
v 0.296343 4.620798 0.469826
v 0.292692 4.596828 0.433693
v 0.338777 4.382913 0.871672
v 0.312782 4.282432 0.406816
v 0.335044 4.356547 0.840251
v 0.331393 4.332576 0.804119
v 0.327897 4.311489 0.764010
v 0.324627 4.293715 0.720741
v 0.321651 4.279616 0.675194
v 0.319028 4.269479 0.628295
v 0.316813 4.263509 0.580999
v 0.315049 4.261830 0.534270
v 0.313774 4.264474 0.489057
v 0.313013 4.271389 0.446282
v 0.341693 4.570096 0.403324
v 0.367689 4.670577 0.868181
v 0.345426 4.596462 0.434745
v 0.349077 4.620432 0.470878
v 0.352573 4.641520 0.510987
v 0.355843 4.659293 0.554256
v 0.358819 4.673393 0.599803
v 0.361442 4.683530 0.646702
v 0.363657 4.689499 0.693997
v 0.365421 4.691179 0.740727
v 0.366696 4.688534 0.785940
v 0.367457 4.681620 0.828714
v 0.341108 4.592822 -1.276113
v 0.286628 4.360552 -0.366036
v 0.260048 4.282797 -0.589866
v 0.286043 4.383278 -1.054722
v 0.260279 4.271754 -0.629332
v 0.261040 4.264840 -0.672107
v 0.262315 4.262195 -0.717320
v 0.264079 4.263875 -0.764049
v 0.266294 4.269844 -0.811345
v 0.268917 4.279982 -0.858244
v 0.271893 4.294081 -0.903791
v 0.275163 4.311855 -0.947060
v 0.278659 4.332942 -0.987169
v 0.282310 4.356912 -1.023301
v 0.314955 4.670942 -1.051231
v 0.288959 4.570461 -0.586374
v 0.314723 4.681986 -1.011764
v 0.313962 4.688900 -0.968989
v 0.312687 4.691544 -0.923777
v 0.310923 4.689865 -0.877047
v 0.308708 4.683896 -0.829751
v 0.306085 4.673758 -0.782853
v 0.303109 4.659659 -0.737305
v 0.299839 4.641885 -0.694037
v 0.296343 4.620798 -0.653928
v 0.292692 4.596828 -0.617795
v 0.338777 4.382913 -1.055774
v 0.312782 4.282432 -0.590918
v 0.335044 4.356547 -1.024353
v 0.331393 4.332576 -0.988220
v 0.327897 4.311489 -0.948112
v 0.324627 4.293715 -0.904843
v 0.321651 4.279616 -0.859296
v 0.319028 4.269479 -0.812397
v 0.316813 4.263509 -0.765101
v 0.315049 4.261830 -0.718371
v 0.313774 4.264474 -0.673159
v 0.313013 4.271389 -0.630384
v 0.341693 4.570096 -0.587426
v 0.367689 4.670577 -1.052283
v 0.345426 4.596462 -0.618847
v 0.349077 4.620432 -0.654980
v 0.352573 4.641520 -0.695089
v 0.355843 4.659293 -0.738357
v 0.358819 4.673393 -0.783905
v 0.361442 4.683530 -0.830803
v 0.363657 4.689499 -0.878099
v 0.365421 4.691179 -0.924829
v 0.366696 4.688534 -0.970041
v 0.367457 4.681620 -1.012816
vn -0.0185 -0.7439 0.6681
vn -0.0188 -0.7238 0.6897
vn -0.0184 -0.7466 0.6650
vn 0.9944 -0.1004 -0.0339
vn 0.9917 -0.1006 -0.0803
vn 0.9928 -0.1006 -0.0647
vn 0.0007 0.9547 0.2974
vn -0.0000 0.9446 0.3281
vn 0.0007 0.9545 0.2983
vn -0.9944 0.1004 0.0339
vn -0.9950 0.1000 0.0025
vn 0.0025 0.9764 0.2160
vn 0.0025 0.9769 0.2137
vn 0.0047 0.9939 0.1104
vn 0.0047 0.9942 0.1076
vn 0.0067 0.9999 0.0126
vn 0.0067 0.9999 0.0094
vn 0.0085 0.9968 -0.0793
vn 0.0086 0.9965 -0.0828
vn 0.0102 0.9859 -0.1670
vn 0.0102 0.9853 -0.1708
vn 0.0117 0.9676 -0.2523
vn 0.0118 0.9665 -0.2564
vn 0.0132 0.9415 -0.3368
vn 0.0133 0.9399 -0.3412
vn 0.0147 0.9066 -0.4216
vn 0.0148 0.9044 -0.4265
vn 0.0161 0.8611 -0.5082
vn 0.0162 0.8580 -0.5134
vn 0.0175 0.8020 -0.5970
vn 0.0176 0.7978 -0.6027
vn 0.0184 0.7466 -0.6650
vn 0.0185 0.7439 -0.6681
vn -0.0007 -0.9547 -0.2974
vn -0.0025 -0.9764 -0.2160
vn -0.0007 -0.9545 -0.2983
vn -0.0025 -0.9769 -0.2137
vn -0.0047 -0.9939 -0.1104
vn -0.0047 -0.9942 -0.1076
vn -0.0067 -0.9999 -0.0126
vn -0.0067 -0.9999 -0.0094
vn -0.0085 -0.9968 0.0793
vn -0.0086 -0.9965 0.0828
vn -0.0102 -0.9859 0.1670
vn -0.0102 -0.9853 0.1708
vn -0.0117 -0.9676 0.2523
vn -0.0118 -0.9665 0.2564
vn -0.0132 -0.9415 0.3368
vn -0.0133 -0.9399 0.3412
vn -0.0147 -0.9066 0.4216
vn -0.0148 -0.9044 0.4265
vn -0.0161 -0.8611 0.5082
vn -0.0162 -0.8580 0.5134
vn -0.0175 -0.8020 0.5970
vn -0.0176 -0.7978 0.6027
vn -0.0000 -0.9446 -0.3281
vn 0.9836 -0.1007 -0.1494
vn 0.9950 -0.1000 -0.0025
vn 0.9949 -0.0998 0.0126
vn 0.9916 -0.0986 0.0835
vn -0.9916 0.0986 -0.0835
vn -0.9949 0.0998 -0.0126
vn -0.9928 0.1006 0.0647
vn -0.9836 0.1007 0.1494
vn -0.9917 0.1006 0.0803
vn 0.0188 0.7238 -0.6897
vn -0.0185 -0.7439 -0.6681
vn -0.0184 -0.7466 -0.6650
vn -0.0188 -0.7238 -0.6897
vn 0.9944 -0.1004 0.0339
vn 0.9928 -0.1006 0.0647
vn 0.9917 -0.1006 0.0803
vn 0.0007 0.9547 -0.2974
vn 0.0007 0.9545 -0.2983
vn -0.0000 0.9446 -0.3281
vn -0.9944 0.1004 -0.0339
vn -0.9950 0.1000 -0.0025
vn 0.0025 0.9769 -0.2137
vn 0.0025 0.9764 -0.2160
vn 0.0047 0.9942 -0.1076
vn 0.0047 0.9939 -0.1104
vn 0.0067 0.9999 -0.0094
vn 0.0067 0.9999 -0.0126
vn 0.0086 0.9965 0.0828
vn 0.0085 0.9968 0.0793
vn 0.0102 0.9853 0.1708
vn 0.0102 0.9859 0.1670
vn 0.0118 0.9665 0.2564
vn 0.0117 0.9676 0.2523
vn 0.0133 0.9399 0.3412
vn 0.0132 0.9415 0.3368
vn 0.0148 0.9044 0.4265
vn 0.0147 0.9066 0.4216
vn 0.0162 0.8580 0.5134
vn 0.0161 0.8611 0.5082
vn 0.0176 0.7978 0.6027
vn 0.0175 0.8020 0.5970
vn 0.0185 0.7439 0.6681
vn 0.0184 0.7466 0.6650
vn -0.0007 -0.9547 0.2974
vn -0.0007 -0.9545 0.2983
vn -0.0025 -0.9764 0.2160
vn -0.0025 -0.9769 0.2137
vn -0.0047 -0.9939 0.1104
vn -0.0047 -0.9942 0.1076
vn -0.0067 -0.9999 0.0126
vn -0.0067 -0.9999 0.0094
vn -0.0085 -0.9968 -0.0793
vn -0.0086 -0.9965 -0.0828
vn -0.0102 -0.9859 -0.1670
vn -0.0102 -0.9853 -0.1708
vn -0.0117 -0.9676 -0.2523
vn -0.0118 -0.9665 -0.2564
vn -0.0132 -0.9415 -0.3368
vn -0.0133 -0.9399 -0.3412
vn -0.0147 -0.9066 -0.4216
vn -0.0148 -0.9044 -0.4265
vn -0.0161 -0.8611 -0.5082
vn -0.0162 -0.8580 -0.5134
vn -0.0175 -0.8020 -0.5970
vn -0.0176 -0.7978 -0.6027
vn -0.0000 -0.9446 0.3281
vn 0.9836 -0.1007 0.1494
vn 0.9950 -0.1000 0.0025
vn 0.9949 -0.0998 -0.0126
vn 0.9916 -0.0986 -0.0835
vn -0.9916 0.0986 0.0835
vn -0.9949 0.0998 0.0126
vn -0.9928 0.1006 -0.0647
vn -0.9917 0.1006 -0.0803
vn -0.9836 0.1007 -0.1494
vn 0.0188 0.7238 0.6897
vt 0.000000 0.165108
vt 0.008643 0.000000
vt 0.028586 0.167102
vt 0.170458 0.115925
vt 0.184199 0.098406
vt 0.329945 0.156988
vt 0.062438 0.129871
vt 0.070359 0.000000
vt 0.091024 0.127878
vt 0.555512 0.331795
vt 0.548726 0.353117
vt 0.343657 0.226080
vt 0.091979 0.150123
vt 0.063393 0.152116
vt 0.092715 0.173655
vt 0.064129 0.175648
vt 0.093235 0.198264
vt 0.064649 0.200257
vt 0.093546 0.223683
vt 0.064960 0.225677
vt 0.093657 0.249610
vt 0.065071 0.251603
vt 0.093578 0.275716
vt 0.064992 0.277709
vt 0.093326 0.301668
vt 0.064740 0.303661
vt 0.092919 0.327140
vt 0.064333 0.329133
vt 0.092381 0.351825
vt 0.063795 0.353818
vt 0.091738 0.375456
vt 0.063152 0.377450
vt 0.091024 0.397821
vt 0.062438 0.399815
vt 0.000000 0.435052
vt 0.029541 0.414800
vt 0.028586 0.437045
vt 0.000955 0.412807
vt 0.030277 0.391268
vt 0.001691 0.389275
vt 0.030797 0.366659
vt 0.002211 0.364666
vt 0.031109 0.341239
vt 0.002523 0.339246
vt 0.031219 0.315313
vt 0.002633 0.313320
vt 0.031140 0.289207
vt 0.002554 0.287214
vt 0.030888 0.263255
vt 0.002302 0.261261
vt 0.030481 0.237783
vt 0.001895 0.235790
vt 0.029943 0.213098
vt 0.001357 0.211104
vt 0.029301 0.189466
vt 0.000715 0.187473
vt 0.007921 0.564923
vt 0.269321 -0.000000
vt 0.336731 0.178311
vt 0.124876 0.284025
vt 0.341332 0.201499
vt 0.124876 0.258550
vt 0.127200 0.232701
vt 0.343657 0.226081
vt 0.127200 0.308607
vt 0.343657 0.251555
vt 0.138587 0.353117
vt 0.131802 0.331795
vt 0.341332 0.277404
vt 0.336731 0.303102
vt 0.329945 0.328125
vt 0.321115 0.351963
vt 0.310419 0.374132
vt 0.298074 0.394181
vt 0.284334 0.411700
vt 0.197326 0.507666
vt 0.131802 0.207004
vt 0.138587 0.181981
vt 0.147418 0.158142
vt 0.158114 0.135973
vt 0.489988 0.507666
vt 0.402980 0.411700
vt 0.389239 0.394180
vt 0.376895 0.374132
vt 0.366199 0.351963
vt 0.357368 0.328125
vt 0.350583 0.303102
vt 0.345981 0.277404
vt 0.343657 0.251555
vt 0.345981 0.201499
vt 0.560113 0.308606
vt 0.350583 0.178311
vt 0.562438 0.284025
vt 0.357368 0.156988
vt 0.417993 0.000000
vt 0.503115 0.098406
vt 0.516855 0.115925
vt 0.529199 0.135973
vt 0.539896 0.158142
vt 0.548726 0.181981
vt 0.555512 0.207003
vt 0.560113 0.232701
vt 0.562438 0.258550
vt 0.071081 0.564923
vt 0.031219 0.399815
vt 0.059805 0.397821
vt 0.039862 0.564923
vt 0.735636 0.115925
vt 0.576149 0.156988
vt 0.721895 0.098405
vt 0.093657 0.435052
vt 0.122243 0.437045
vt 0.101578 0.564923
vt 0.788145 0.331794
vt 1.000000 0.226080
vt 0.794930 0.353117
vt 0.094612 0.412807
vt 0.123198 0.414800
vt 0.095347 0.389275
vt 0.123934 0.391268
vt 0.095868 0.364666
vt 0.124454 0.366659
vt 0.096179 0.339246
vt 0.124765 0.341239
vt 0.096290 0.313320
vt 0.124876 0.315313
vt 0.096211 0.287214
vt 0.124797 0.289207
vt 0.095959 0.261261
vt 0.124545 0.263255
vt 0.095552 0.235790
vt 0.124138 0.237783
vt 0.095014 0.211104
vt 0.123600 0.213098
vt 0.094371 0.187473
vt 0.122957 0.189466
vt 0.093657 0.165108
vt 0.122243 0.167102
vt 0.031219 0.129871
vt 0.059805 0.127878
vt 0.060760 0.150123
vt 0.032174 0.152116
vt 0.061496 0.173655
vt 0.032910 0.175648
vt 0.062016 0.198264
vt 0.033430 0.200257
vt 0.062328 0.223684
vt 0.033742 0.225677
vt 0.062438 0.249610
vt 0.033852 0.251603
vt 0.062359 0.275716
vt 0.033773 0.277709
vt 0.062107 0.301668
vt 0.033521 0.303662
vt 0.061700 0.327140
vt 0.033114 0.329133
vt 0.061162 0.351825
vt 0.032576 0.353818
vt 0.060520 0.375457
vt 0.031934 0.377450
vt 0.039140 -0.000000
vt 0.636774 0.000000
vt 0.781219 0.284025
vt 0.569364 0.178311
vt 0.564762 0.201499
vt 0.778894 0.232701
vt 0.781219 0.258550
vt 0.778895 0.308606
vt 0.562438 0.226081
vt 0.767508 0.353117
vt 0.562438 0.251555
vt 0.774293 0.331794
vt 0.564762 0.277405
vt 0.569364 0.303102
vt 0.576150 0.328125
vt 0.584980 0.351963
vt 0.595677 0.374132
vt 0.608021 0.394181
vt 0.621762 0.411700
vt 0.708770 0.507665
vt 0.774293 0.207003
vt 0.767507 0.181981
vt 0.758677 0.158142
vt 0.747980 0.135973
vt 0.853669 0.507665
vt 0.940677 0.411700
vt 0.954417 0.394180
vt 0.966762 0.374132
vt 0.977458 0.351963
vt 0.986288 0.328125
vt 0.993074 0.303102
vt 0.997675 0.277404
vt 1.000000 0.251555
vt 0.783543 0.308606
vt 0.997675 0.201499
vt 0.781219 0.284025
vt 0.993074 0.178311
vt 0.986289 0.156988
vt 0.840542 0.098405
vt 0.925664 -0.000000
vt 0.826802 0.115925
vt 0.814457 0.135973
vt 0.803761 0.158142
vt 0.794931 0.181981
vt 0.788145 0.207003
vt 0.783543 0.232701
vt 0.781219 0.258550
vt 0.102300 0.000000
s 1
f 27/1/1 1/2/2 4/3/3
f 38/4/4 28/5/5 39/6/6
f 15/7/7 1/8/8 40/9/9
f 26/10/10 16/11/11 12/12/10
f 15/7/7 50/13/12 17/14/13
f 17/14/13 49/15/14 18/16/15
f 18/16/15 48/17/16 19/18/17
f 19/18/17 47/19/18 20/20/19
f 20/20/19 46/21/20 21/22/21
f 21/22/21 45/23/22 22/24/23
f 22/24/23 44/25/24 23/26/25
f 23/26/25 43/27/26 24/28/27
f 24/28/27 42/29/28 25/30/29
f 25/30/29 41/31/30 26/32/31
f 26/32/31 39/33/32 16/34/33
f 28/35/34 5/36/35 3/37/36
f 38/38/37 6/39/38 5/36/35
f 37/40/39 7/41/40 6/39/38
f 36/42/41 8/43/42 7/41/40
f 35/44/43 9/45/44 8/43/42
f 34/46/45 10/47/46 9/45/44
f 33/48/47 11/49/48 10/47/46
f 32/50/49 12/51/50 11/49/48
f 31/52/51 13/53/52 12/51/50
f 30/54/53 14/55/54 13/53/52
f 29/56/55 4/3/3 14/55/54
f 2/57/56 28/35/34 3/37/36
f 28/5/5 2/58/57 39/6/6
f 39/6/6 41/59/4 31/60/4
f 41/59/4 42/61/4 31/60/4
f 39/6/6 32/62/4 33/63/4
f 42/61/4 43/64/4 30/65/4
f 43/64/4 44/66/4 27/67/58
f 29/68/4 43/64/4 27/67/58
f 44/66/4 45/69/4 27/67/58
f 45/69/4 46/70/4 27/67/58
f 46/70/4 47/71/4 27/67/58
f 47/71/4 48/72/4 27/67/58
f 48/72/4 49/73/4 27/67/58
f 49/73/4 50/74/4 27/67/58
f 50/74/4 40/75/59 27/67/58
f 40/75/59 1/76/60 27/67/58
f 29/68/4 30/65/4 43/64/4
f 30/65/4 31/60/4 42/61/4
f 31/60/4 32/62/4 39/6/6
f 33/63/4 34/77/4 39/6/6
f 34/77/4 35/78/4 39/6/6
f 35/78/4 36/79/4 39/6/6
f 36/79/4 37/80/4 39/6/6
f 37/80/4 38/4/4 39/6/6
f 2/81/61 3/82/62 16/11/11
f 3/82/62 5/83/10 16/11/11
f 5/83/10 6/84/10 16/11/11
f 6/84/10 7/85/10 16/11/11
f 7/85/10 8/86/10 16/11/11
f 8/86/10 9/87/10 16/11/11
f 9/87/10 10/88/10 16/11/11
f 10/88/10 11/89/10 16/11/11
f 16/11/11 11/89/10 12/12/10
f 12/12/10 13/90/10 25/91/10
f 26/10/10 12/12/10 25/91/10
f 13/90/10 14/92/10 24/93/10
f 14/92/10 4/94/63 24/93/10
f 4/94/63 1/95/64 15/96/65
f 15/96/65 17/97/10 4/94/63
f 17/97/10 18/98/10 4/94/63
f 18/98/10 19/99/10 4/94/63
f 19/99/10 20/100/10 4/94/63
f 20/100/10 21/101/10 4/94/63
f 21/101/10 22/102/10 4/94/63
f 22/102/10 23/103/10 4/94/63
f 23/103/10 24/93/10 4/94/63
f 24/93/10 25/91/10 13/90/10
f 16/34/33 39/33/32 2/104/66
f 15/7/7 40/9/9 50/13/12
f 17/14/13 50/13/12 49/15/14
f 18/16/15 49/15/14 48/17/16
f 19/18/17 48/17/16 47/19/18
f 20/20/19 47/19/18 46/21/20
f 21/22/21 46/21/20 45/23/22
f 22/24/23 45/23/22 44/25/24
f 23/26/25 44/25/24 43/27/26
f 24/28/27 43/27/26 42/29/28
f 25/30/29 42/29/28 41/31/30
f 26/32/31 41/31/30 39/33/32
f 28/35/34 38/38/37 5/36/35
f 38/38/37 37/40/39 6/39/38
f 37/40/39 36/42/41 7/41/40
f 36/42/41 35/44/43 8/43/42
f 35/44/43 34/46/45 9/45/44
f 34/46/45 33/48/47 10/47/46
f 33/48/47 32/50/49 11/49/48
f 32/50/49 31/52/51 12/51/50
f 31/52/51 30/54/53 13/53/52
f 30/54/53 29/56/55 14/55/54
f 29/56/55 27/1/1 4/3/3
f 77/105/67 54/106/68 51/107/69
f 88/108/70 89/109/71 78/110/72
f 65/111/73 90/112/74 51/113/75
f 76/114/76 62/115/76 66/116/77
f 65/111/73 67/117/78 100/118/79
f 67/117/78 68/119/80 99/120/81
f 68/119/80 69/121/82 98/122/83
f 69/121/82 70/123/84 97/124/85
f 70/123/84 71/125/86 96/126/87
f 71/125/86 72/127/88 95/128/89
f 72/127/88 73/129/90 94/130/91
f 73/129/90 74/131/92 93/132/93
f 74/131/92 75/133/94 92/134/95
f 75/133/94 76/135/96 91/136/97
f 76/135/96 66/137/98 89/138/99
f 78/139/100 53/140/101 55/141/102
f 88/142/103 55/141/102 56/143/104
f 87/144/105 56/143/104 57/145/106
f 86/146/107 57/145/106 58/147/108
f 85/148/109 58/147/108 59/149/110
f 84/150/111 59/149/110 60/151/112
f 83/152/113 60/151/112 61/153/114
f 82/154/115 61/153/114 62/155/116
f 81/156/117 62/155/116 63/157/118
f 80/158/119 63/157/118 64/159/120
f 79/160/121 64/159/120 54/106/68
f 52/161/122 53/140/101 78/139/100
f 78/110/72 89/109/71 52/162/123
f 89/109/71 81/163/70 91/164/70
f 91/164/70 81/163/70 92/165/70
f 89/109/71 83/166/70 82/167/70
f 92/165/70 80/168/70 93/169/70
f 93/169/70 77/170/124 94/171/70
f 79/172/70 77/170/124 93/169/70
f 94/171/70 77/170/124 95/173/70
f 95/173/70 77/170/124 96/174/70
f 96/174/70 77/170/124 97/175/70
f 97/175/70 77/170/124 98/176/70
f 98/176/70 77/170/124 99/177/70
f 99/177/70 77/170/124 100/178/70
f 100/178/70 77/170/124 90/179/125
f 90/179/125 77/170/124 51/180/126
f 79/172/70 93/169/70 80/168/70
f 80/168/70 92/165/70 81/163/70
f 81/163/70 89/109/71 82/167/70
f 83/166/70 89/109/71 84/181/70
f 84/181/70 89/109/71 85/182/70
f 85/182/70 89/109/71 86/183/70
f 86/183/70 89/109/71 87/184/70
f 87/184/70 89/109/71 88/108/70
f 52/185/127 66/116/77 53/186/128
f 53/186/128 66/116/77 55/187/76
f 55/187/76 66/116/77 56/188/76
f 56/188/76 66/116/77 57/189/76
f 57/189/76 66/116/77 58/190/76
f 58/190/76 66/116/77 59/191/76
f 59/191/76 66/116/77 60/192/76
f 60/192/76 66/116/77 61/193/76
f 66/116/77 62/115/76 61/193/76
f 62/115/76 75/194/76 63/195/76
f 76/114/76 75/194/76 62/115/76
f 63/195/76 74/196/76 64/197/76
f 64/197/76 74/196/76 54/198/129
f 54/198/129 65/199/130 51/200/131
f 65/199/130 54/198/129 67/201/76
f 67/201/76 54/198/129 68/202/76
f 68/202/76 54/198/129 69/203/76
f 69/203/76 54/198/129 70/204/76
f 70/204/76 54/198/129 71/205/76
f 71/205/76 54/198/129 72/206/76
f 72/206/76 54/198/129 73/207/76
f 73/207/76 54/198/129 74/196/76
f 74/196/76 63/195/76 75/194/76
f 66/137/98 52/208/132 89/138/99
f 65/111/73 100/118/79 90/112/74
f 67/117/78 99/120/81 100/118/79
f 68/119/80 98/122/83 99/120/81
f 69/121/82 97/124/85 98/122/83
f 70/123/84 96/126/87 97/124/85
f 71/125/86 95/128/89 96/126/87
f 72/127/88 94/130/91 95/128/89
f 73/129/90 93/132/93 94/130/91
f 74/131/92 92/134/95 93/132/93
f 75/133/94 91/136/97 92/134/95
f 76/135/96 89/138/99 91/136/97
f 78/139/100 55/141/102 88/142/103
f 88/142/103 56/143/104 87/144/105
f 87/144/105 57/145/106 86/146/107
f 86/146/107 58/147/108 85/148/109
f 85/148/109 59/149/110 84/150/111
f 84/150/111 60/151/112 83/152/113
f 83/152/113 61/153/114 82/154/115
f 82/154/115 62/155/116 81/156/117
f 81/156/117 63/157/118 80/158/119
f 80/158/119 64/159/120 79/160/121
f 79/160/121 54/106/68 77/105/67
