# Blender 4.0.2
# www.blender.org
mtllib Flower_Segment.mtl
o Segment
v 0.010989 -0.533513 -0.091011
v -0.006068 0.071806 -0.082068
v 0.079748 -0.541515 -0.061100
v -0.056045 -0.541515 -0.061100
v 0.011852 -0.578260 -0.081914
v 0.011852 -0.609411 -0.061100
v -0.050876 -0.578260 -0.055932
v 0.074580 -0.578260 -0.055932
v 0.059862 -0.609411 -0.041214
v 0.100562 -0.578260 0.006796
v 0.107871 -0.541515 0.006796
v 0.079748 -0.609411 0.006796
v 0.074580 -0.578260 0.069524
v 0.079748 -0.541515 0.074693
v 0.059862 -0.609411 0.054806
v 0.011852 -0.578260 0.095507
v 0.011852 -0.609411 0.074693
v -0.050876 -0.578260 0.069524
v 0.010989 -0.533584 0.104469
v -0.006068 0.071851 0.113411
v -0.056045 -0.541515 0.074693
v -0.084168 -0.541515 0.006796
v -0.075180 0.071866 0.084784
v -0.103807 0.071859 0.015672
v -0.070268 0.526003 0.050255
v -0.095121 0.526007 -0.009745
v -0.010342 0.530004 0.074325
v -0.065939 0.562572 0.044818
v -0.052894 0.590182 0.031773
v -0.010342 0.562572 0.067847
v -0.088969 0.562572 -0.010780
v -0.070520 0.590182 -0.010780
v -0.065939 0.562572 -0.066377
v -0.052894 0.590182 -0.053332
v -0.010342 0.562572 -0.089406
v -0.070268 0.526010 -0.069746
v -0.075180 0.071834 -0.053441
v -0.010342 0.530004 -0.095885
v 0.049733 0.526009 -0.069746
v 0.074586 0.526005 -0.009745
v 0.063045 0.071791 -0.053441
v 0.045256 0.562572 -0.066377
v 0.032211 0.590182 -0.053332
v 0.068285 0.562572 -0.010780
v 0.049836 0.590182 -0.010780
v 0.045256 0.562572 0.044818
v 0.032211 0.590182 0.031773
v 0.049733 0.526001 0.050255
v 0.063045 0.071822 0.084784
v 0.091672 0.071797 0.015672
v 0.012687 0.608630 0.012250
v -0.010342 0.590182 0.049399
v -0.010342 0.608630 0.021789
v -0.010342 0.615109 -0.010780
v -0.033371 0.608630 0.012250
v -0.042910 0.608630 -0.010780
v -0.033371 0.608630 -0.033809
v -0.010342 0.608630 -0.043348
v -0.010342 0.590182 -0.070958
v 0.012687 0.608630 -0.033809
v 0.022226 0.608630 -0.010780
v -0.076859 -0.578260 0.006796
v -0.056045 -0.609411 0.006796
v -0.024893 -0.630226 0.006796
v -0.036158 -0.609411 0.054806
v -0.036158 -0.609411 -0.041214
v -0.014131 -0.630226 -0.019186
v 0.011852 -0.637535 0.006796
v 0.011852 -0.630226 -0.029949
v 0.037834 -0.630226 -0.019186
v 0.048597 -0.630226 0.006796
v 0.037834 -0.630226 0.032779
v 0.011852 -0.630226 0.043542
v -0.014131 -0.630226 0.032779
vn -0.0017 -0.0848 -0.9964
vn -0.7129 -0.0147 -0.7011
vn -0.0023 -0.0066 -1.0000
vn 0.7104 0.0126 -0.7037
vn 0.7087 -0.0851 -0.7004
vn 0.0012 -0.3682 -0.9297
vn 0.6578 -0.3668 -0.6578
vn -0.7054 -0.1068 -0.7008
vn -0.6578 -0.3668 -0.6578
vn -0.0000 -0.6839 -0.7296
vn -0.5159 -0.6839 -0.5159
vn 0.5159 -0.6839 -0.5159
vn 0.9303 -0.3668 -0.0000
vn 0.7296 -0.6839 -0.0000
vn 0.9966 -0.0826 -0.0018
vn 0.6578 -0.3668 0.6578
vn 0.5159 -0.6839 0.5159
vn 0.7090 -0.0944 0.6988
vn 0.0012 -0.3673 0.9301
vn -0.0000 -0.6839 0.7296
vn -0.5159 -0.6839 0.5159
vn -0.7055 -0.1162 0.6991
vn -0.6578 -0.3668 0.6578
vn -0.0017 -0.0991 0.9951
vn 0.7013 0.0411 0.7117
vn -0.0024 0.0342 0.9994
vn -0.7044 0.0146 0.7097
vn -0.9303 -0.3668 -0.0000
vn -0.9999 -0.0061 0.0085
vn -0.9937 -0.1117 -0.0018
vn -0.7035 0.1208 0.7003
vn -0.9959 0.0909 -0.0039
vn -0.6613 0.3621 0.6569
vn -0.0014 0.1405 0.9901
vn -0.5159 0.6839 0.5159
vn -0.9359 0.3524 -0.0039
vn -0.0000 0.6839 0.7296
vn -0.0000 0.3668 0.9303
vn -0.7296 0.6839 -0.0000
vn -0.6652 0.3472 -0.6611
vn -0.7114 0.0616 -0.7001
vn -0.0000 0.6839 -0.7296
vn -0.0000 0.3668 -0.9303
vn -0.0014 0.0762 -0.9971
vn 0.6644 0.3485 -0.6611
vn 0.7099 0.0694 -0.7008
vn 0.9351 0.3543 -0.0039
vn 0.9948 0.1020 -0.0040
vn 0.9994 0.0323 0.0084
vn 0.5159 0.6839 -0.5159
vn 0.5159 0.6839 0.5159
vn 0.6606 0.3634 0.6570
vn 0.7017 0.1289 0.7008
vn 0.2988 0.9063 0.2988
vn 0.4226 0.9063 -0.0000
vn 0.7296 0.6839 -0.0000
vn -0.2988 0.9063 0.2988
vn -0.0000 0.9063 0.4226
vn -0.0000 1.0000 -0.0000
vn -0.4226 0.9063 -0.0000
vn -0.5159 0.6839 -0.5159
vn -0.2988 0.9063 -0.2988
vn -0.0000 0.9063 -0.4226
vn 0.2988 0.9063 -0.2988
vn -0.7296 -0.6839 -0.0000
vn -0.4226 -0.9063 -0.0000
vn -0.2988 -0.9063 -0.2988
vn -0.2988 -0.9063 0.2988
vn -0.0000 -0.9063 -0.4226
vn -0.0000 -1.0000 -0.0000
vn 0.2988 -0.9063 -0.2988
vn 0.4226 -0.9063 -0.0000
vn 0.2988 -0.9063 0.2988
vn -0.0000 -0.9063 0.4226
vt 0.137909 0.009456
vt 0.208727 0.572110
vt 0.139586 0.572537
vt 0.069943 0.572565
vt 0.068389 0.000815
vt 0.702674 0.197381
vt 0.623093 0.244030
vt 0.640329 0.198186
vt 0.785971 0.168166
vt 0.744978 0.150428
vt 0.690248 0.167011
vt 0.715081 0.138095
vt 0.652668 0.169306
vt 0.594393 0.156437
vt 0.624409 0.144137
vt 0.551588 0.173120
vt 0.592060 0.093859
vt 0.621561 0.106316
vt 0.551500 0.076078
vt 0.634347 0.047469
vt 0.646876 0.077874
vt 0.685589 0.075252
vt 0.713269 0.000120
vt 0.696350 0.045990
vt 0.412695 0.011222
vt 0.481335 0.569185
vt 0.413070 0.568425
vt 0.345275 0.569190
vt 0.343581 0.005358
vt 0.742407 0.087394
vt 0.277308 0.570816
vt 0.274813 0.005467
vt 0.337548 0.987816
vt 0.276628 0.990453
vt 0.589944 0.382572
vt 0.610345 0.459768
vt 0.551500 0.398464
vt 0.551500 0.313338
vt 0.616570 0.372354
vt 0.629987 0.419993
vt 0.615613 0.339193
vt 0.590365 0.328271
vt 0.641072 0.394270
vt 0.685044 0.418711
vt 0.699875 0.462909
vt 0.696719 0.368784
vt 0.722861 0.378871
vt 0.765526 0.395220
vt 0.216045 0.993743
vt 0.155379 0.999880
vt 0.721329 0.324312
vt 0.761558 0.301106
vt 0.094341 0.997142
vt 0.680933 0.287028
vt 0.692855 0.244457
vt 0.033785 0.997923
vt 0.000120 0.573161
vt 0.695023 0.334926
vt 0.637937 0.313588
vt 0.626334 0.287793
vt 0.608639 0.250305
vt 0.550845 0.572248
vt 0.459615 0.991024
vt 0.398461 0.991361
vt 0.482753 0.001678
vt 0.000120 0.001045
vt 0.647025 0.334819
vt 0.663239 0.333945
vt 0.670842 0.313521
vt 0.636967 0.362847
vt 0.636673 0.346855
vt 0.656022 0.353765
vt 0.649136 0.373424
vt 0.673354 0.392378
vt 0.664894 0.372458
vt 0.675258 0.360770
vt 0.674996 0.345010
vt 0.206430 0.004060
vt 0.785282 0.070503
vt 0.712626 0.101160
vt 0.690184 0.111673
vt 0.690857 0.129784
vt 0.676252 0.099584
vt 0.679382 0.143640
vt 0.668640 0.122296
vt 0.660969 0.145209
vt 0.647511 0.132749
vt 0.645768 0.114547
vt 0.658204 0.101186
vt 0.725413 0.244217
vt 0.613547 0.000120
vt 0.520099 0.997670
vt 0.551260 0.000120
s 1
f 1/1/1 37/2/2 2/3/3
f 1/1/1 41/4/4 3/5/5
f 5/6/6 3/7/5 8/8/7
f 4/9/8 5/6/6 7/10/9
f 7/10/9 6/11/10 66/12/11
f 5/6/6 9/13/12 6/11/10
f 3/7/5 10/14/13 8/8/7
f 8/8/7 12/15/14 9/13/12
f 11/16/15 13/17/16 10/14/13
f 10/14/13 15/18/17 12/15/14
f 14/19/18 16/20/19 13/17/16
f 13/17/16 17/21/20 15/18/17
f 16/20/19 65/22/21 17/21/20
f 16/20/19 21/23/22 18/24/23
f 19/25/24 49/26/25 20/27/26
f 19/25/24 23/28/27 21/29/22
f 21/23/22 62/30/28 18/24/23
f 21/29/22 24/31/29 22/32/30
f 20/27/26 25/33/31 23/28/27
f 24/31/29 25/33/31 26/34/32
f 28/35/33 26/36/32 25/37/31
f 27/38/34 28/35/33 25/37/31
f 29/39/35 31/40/36 28/35/33
f 52/41/37 28/35/33 30/42/38
f 32/43/39 33/44/40 31/40/36
f 31/40/36 36/45/41 26/36/32
f 33/44/40 59/46/42 35/47/43
f 33/44/40 38/48/44 36/45/41
f 37/2/2 26/34/32 36/49/41
f 2/3/3 36/49/41 38/50/44
f 38/48/44 42/51/45 39/52/46
f 2/3/3 39/53/46 41/4/4
f 39/52/46 44/54/47 40/55/48
f 41/4/4 40/56/48 50/57/49
f 43/58/50 44/54/47 42/51/45
f 59/46/42 42/51/45 35/47/43
f 44/54/47 47/59/51 46/60/52
f 40/55/48 46/60/52 48/61/53
f 47/59/51 30/42/38 46/60/52
f 46/60/52 27/38/34 48/61/53
f 50/62/49 48/63/53 49/26/25
f 20/27/26 48/63/53 27/64/34
f 14/65/18 50/62/49 49/26/25
f 11/66/15 41/4/4 50/57/49
f 51/67/54 52/41/37 47/59/51
f 61/68/55 47/59/51 45/69/56
f 52/41/37 55/70/57 29/39/35
f 53/71/58 54/72/59 55/70/57
f 51/67/54 54/72/59 53/71/58
f 55/70/57 32/43/39 29/39/35
f 55/70/57 54/72/59 56/73/60
f 56/73/60 34/74/61 32/43/39
f 56/73/60 54/72/59 57/75/62
f 57/75/62 59/46/42 34/74/61
f 57/75/62 54/72/59 58/76/63
f 59/46/42 60/77/64 43/58/50
f 58/76/63 54/72/59 60/77/64
f 43/58/50 61/68/55 45/69/56
f 60/77/64 54/72/59 61/68/55
f 61/68/55 54/72/59 51/67/54
f 22/32/30 37/2/2 4/78/8
f 22/79/30 7/10/9 62/30/28
f 62/30/28 66/12/11 63/80/65
f 65/22/21 62/30/28 63/80/65
f 64/81/66 66/12/11 67/82/67
f 65/22/21 64/81/66 74/83/68
f 66/12/11 69/84/69 67/82/67
f 68/85/70 67/82/67 69/84/69
f 68/85/70 64/81/66 67/82/67
f 6/11/10 70/86/71 69/84/69
f 68/85/70 69/84/69 70/86/71
f 70/86/71 12/15/14 71/87/72
f 68/85/70 70/86/71 71/87/72
f 12/15/14 72/88/73 71/87/72
f 68/85/70 71/87/72 72/88/73
f 72/88/73 17/21/20 73/89/74
f 68/85/70 72/88/73 73/89/74
f 17/21/20 74/83/68 73/89/74
f 68/85/70 73/89/74 74/83/68
f 68/85/70 74/83/68 64/81/66
f 1/1/1 4/78/8 37/2/2
f 1/1/1 2/3/3 41/4/4
f 5/6/6 1/90/1 3/7/5
f 4/9/8 1/90/1 5/6/6
f 7/10/9 5/6/6 6/11/10
f 5/6/6 8/8/7 9/13/12
f 3/7/5 11/16/15 10/14/13
f 8/8/7 10/14/13 12/15/14
f 11/16/15 14/19/18 13/17/16
f 10/14/13 13/17/16 15/18/17
f 14/19/18 19/91/24 16/20/19
f 13/17/16 16/20/19 17/21/20
f 16/20/19 18/24/23 65/22/21
f 16/20/19 19/91/24 21/23/22
f 19/25/24 14/65/18 49/26/25
f 19/25/24 20/27/26 23/28/27
f 21/23/22 22/79/30 62/30/28
f 21/29/22 23/28/27 24/31/29
f 20/27/26 27/64/34 25/33/31
f 24/31/29 23/28/27 25/33/31
f 28/35/33 31/40/36 26/36/32
f 27/38/34 30/42/38 28/35/33
f 29/39/35 32/43/39 31/40/36
f 52/41/37 29/39/35 28/35/33
f 32/43/39 34/74/61 33/44/40
f 31/40/36 33/44/40 36/45/41
f 33/44/40 34/74/61 59/46/42
f 33/44/40 35/47/43 38/48/44
f 37/2/2 24/31/29 26/34/32
f 2/3/3 37/2/2 36/49/41
f 38/48/44 35/47/43 42/51/45
f 2/3/3 38/50/44 39/53/46
f 39/52/46 42/51/45 44/54/47
f 41/4/4 39/53/46 40/56/48
f 43/58/50 45/69/56 44/54/47
f 59/46/42 43/58/50 42/51/45
f 44/54/47 45/69/56 47/59/51
f 40/55/48 44/54/47 46/60/52
f 47/59/51 52/41/37 30/42/38
f 46/60/52 30/42/38 27/38/34
f 50/62/49 40/92/48 48/63/53
f 20/27/26 49/26/25 48/63/53
f 14/65/18 11/93/15 50/62/49
f 11/66/15 3/5/5 41/4/4
f 51/67/54 53/71/58 52/41/37
f 61/68/55 51/67/54 47/59/51
f 52/41/37 53/71/58 55/70/57
f 55/70/57 56/73/60 32/43/39
f 56/73/60 57/75/62 34/74/61
f 57/75/62 58/76/63 59/46/42
f 59/46/42 58/76/63 60/77/64
f 43/58/50 60/77/64 61/68/55
f 22/32/30 24/31/29 37/2/2
f 22/79/30 4/9/8 7/10/9
f 62/30/28 7/10/9 66/12/11
f 65/22/21 18/24/23 62/30/28
f 64/81/66 63/80/65 66/12/11
f 65/22/21 63/80/65 64/81/66
f 66/12/11 6/11/10 69/84/69
f 6/11/10 9/13/12 70/86/71
f 70/86/71 9/13/12 12/15/14
f 12/15/14 15/18/17 72/88/73
f 72/88/73 15/18/17 17/21/20
f 17/21/20 65/22/21 74/83/68
