# Blender 4.0.2
# www.blender.org
mtllib Flower_Hands.mtl
o Hands
v 0.080070 0.145861 0.749100
v 0.080070 0.489576 -0.080663
v 0.080070 -0.558875 0.526544
v 0.080070 -0.363698 -0.350127
v 0.080070 0.421600 -0.506639
v 0.080070 -0.063401 -0.659803
v 0.080070 0.226543 -0.733456
v 0.080070 0.437047 0.371902
v 0.080070 -0.580614 0.050525
v 0.074636 -0.233871 0.724470
v -0.049598 0.121222 -0.399949
v -0.049598 -0.111442 0.336792
v -0.049598 0.001197 -0.019884
v -0.021836 0.129046 0.618618
v -0.021836 0.412282 -0.065140
v -0.021836 -0.451685 0.435223
v -0.021836 -0.290850 -0.287189
v -0.021836 0.356266 -0.416162
v -0.021836 -0.043395 -0.542375
v -0.021836 0.195532 -0.603068
v -0.021836 0.368995 0.307792
v -0.021836 -0.469599 0.042964
v -0.019664 -0.183868 0.598323
v -0.128687 0.108743 -0.328245
v -0.128688 -0.082981 0.278859
v -0.128687 0.009837 -0.015056
v 0.080095 0.485281 0.151980
v 0.015236 -0.121238 -0.375038
v 0.080095 -0.595931 0.301556
v 0.080095 -0.223132 -0.528932
v 0.080095 0.477197 -0.307768
v 0.080095 0.339550 -0.649379
v 0.080095 0.305412 0.586201
v 0.080095 -0.493793 -0.157213
v 0.015236 -0.289709 0.015320
v 0.077252 -0.045684 0.770703
v 0.015236 0.305399 -0.240306
v 0.015236 0.219122 0.176009
v -0.049598 0.061209 -0.209917
v 0.015236 0.028910 -0.529876
v 0.015236 0.271411 -0.453294
v 0.015236 -0.335158 0.431668
v 0.015236 0.017210 0.542946
v 0.015236 -0.346028 0.193658
v 0.015236 0.162803 0.354347
v 0.015236 0.245386 -0.050273
v 0.015236 -0.181250 -0.185005
v -0.049598 -0.055122 0.158454
v -0.021836 0.390639 0.121326
v -0.075262 -0.091054 -0.307717
v -0.021836 -0.460642 0.239094
v -0.021836 -0.167123 -0.414782
v -0.021836 0.384274 -0.240651
v -0.021836 0.275899 -0.509615
v -0.021836 0.249021 0.463205
v -0.021836 -0.380225 -0.122113
v -0.075262 -0.229881 0.013954
v -0.020750 -0.027411 0.608471
v -0.075262 0.260512 -0.196693
v -0.075262 0.189416 0.146368
v -0.128687 0.059290 -0.171650
v -0.075262 0.032674 -0.435310
v -0.075262 0.232504 -0.372204
v -0.075262 -0.267333 0.357041
v -0.075262 0.023032 0.448739
v -0.075262 -0.276290 0.160912
v -0.075262 0.143007 0.293326
v -0.075262 0.211060 -0.040098
v -0.075262 -0.140507 -0.151123
v -0.128688 -0.036572 0.131902
v -0.075262 0.152137 -0.465656
v -0.021836 0.076069 -0.572721
v 0.027486 -0.208869 0.661396
v 0.029117 0.137453 0.683860
v 0.029117 -0.053398 -0.601089
v 0.029117 0.211037 -0.668262
v 0.029117 0.388933 -0.461401
v 0.029117 0.403021 0.339847
v 0.029117 0.450929 -0.072901
v 0.029117 -0.327274 -0.318658
v 0.029117 -0.525106 0.046744
v 0.029117 -0.505280 0.480884
v -0.074176 -0.133425 0.438591
v -0.020750 -0.317776 0.516773
v 0.077252 -0.414478 0.654237
v 0.012519 -0.172656 0.530631
v 0.080095 0.085745 -0.729531
v 0.015236 0.173883 -0.566703
v 0.026400 -0.052412 0.671544
v 0.029117 0.091574 -0.637915
v 0.029117 0.291405 -0.574809
v 0.029117 0.429286 0.113565
v 0.029117 0.257428 0.528446
v 0.029117 -0.416648 -0.153582
v 0.029117 -0.514237 0.284754
v 0.029117 -0.177126 -0.473496
v 0.029117 0.416941 -0.285890
v 0.026400 -0.342778 0.579847
vn 0.9363 0.1539 0.3158
vn 0.9529 0.2579 0.1599
vn 0.9292 0.2046 0.3078
vn 0.9632 0.2552 0.0844
vn 0.9717 0.2252 0.0711
vn 0.9710 0.2201 0.0928
vn 0.9693 -0.2356 -0.0705
vn 0.9698 -0.2384 -0.0510
vn 0.9717 -0.2252 -0.0711
vn 0.9305 0.0388 0.3643
vn 0.9585 -0.2851 -0.0097
vn 0.9361 -0.3224 0.1408
vn 0.9515 -0.3073 -0.0151
vn 0.9226 -0.2838 0.2614
vn 0.9605 -0.2654 -0.0838
vn 0.9752 0.2210 0.0099
vn 0.9546 0.1591 -0.2518
vn 0.9707 0.2113 -0.1148
vn 0.9679 -0.0684 -0.2417
vn 0.9675 -0.1216 -0.2217
vn 0.9568 0.0395 -0.2881
vn 0.9640 0.2226 0.1455
vn 0.9636 0.2463 0.1042
vn 0.9691 0.2249 0.1017
vn 0.9698 0.2419 0.0306
vn 0.9708 -0.2129 -0.1109
vn 0.9649 -0.2566 -0.0555
vn 0.9605 0.2654 0.0838
vn -0.9363 -0.1539 -0.3158
vn -0.9257 -0.1889 -0.3277
vn -0.9463 -0.2711 -0.1758
vn -0.9632 -0.2552 -0.0844
vn -0.9688 -0.2278 -0.0979
vn -0.9717 -0.2252 -0.0711
vn -0.9693 0.2356 0.0705
vn -0.9717 0.2252 0.0711
vn -0.9688 0.2428 0.0506
vn -0.9166 -0.0984 -0.3875
vn -0.9585 0.2851 0.0097
vn -0.9460 0.3239 0.0105
vn -0.9257 0.3428 -0.1600
vn -0.9166 0.3031 -0.2607
vn -0.9605 0.2654 0.0838
vn -0.9756 -0.2195 -0.0060
vn -0.9652 -0.2191 0.1429
vn -0.9486 -0.1589 0.2736
vn -0.9667 0.0542 0.2501
vn -0.9486 -0.0270 0.3152
vn -0.9652 0.0972 0.2429
vn -0.8390 -0.4283 -0.3356
vn -0.8378 -0.4802 -0.2600
vn -0.9631 -0.2480 -0.1042
vn -0.9679 -0.2497 -0.0291
vn -0.9679 0.2212 0.1193
vn -0.9632 0.2628 0.0570
vn -0.9605 -0.2654 -0.0838
vn -0.8827 0.2360 0.4063
vn -0.8481 -0.0539 0.5270
vn -0.7614 0.3522 0.5443
vn -0.8429 -0.2902 -0.4531
vn -0.8182 -0.1148 -0.5634
vn -0.7302 -0.3907 -0.5605
vn -0.7550 0.4854 -0.4409
vn -0.7938 0.4366 -0.4235
vn -0.8424 0.4084 -0.3514
vn -0.6439 0.7651 0.0017
vn -0.6578 0.7490 0.0796
vn -0.7311 0.6803 0.0526
vn -0.7860 0.5704 0.2385
vn -0.7470 0.5115 0.4247
vn -0.6628 0.7085 0.2424
vn -0.7953 -0.5842 -0.1621
vn -0.7294 -0.5913 -0.3439
vn -0.7550 -0.6406 -0.1396
vn -0.8221 -0.5549 0.1275
vn -0.7782 -0.6270 0.0361
vn -0.8206 -0.5707 0.0299
vn -0.7494 -0.4580 -0.4782
vn -0.6884 -0.6037 -0.4021
vn -0.6954 0.6916 -0.1953
vn -0.6725 0.7287 -0.1298
vn -0.7284 0.6776 -0.1014
vn -0.8246 -0.2843 0.4891
vn -0.8511 -0.2472 0.4632
vn -0.8872 -0.2500 0.3878
vn -0.8890 -0.0358 0.4565
vn -0.8468 -0.1310 -0.5155
vn -0.7290 0.5190 -0.4463
vn -0.6294 0.7770 0.0065
vn -0.8373 0.4328 0.3341
vn -0.7989 -0.5597 0.2205
vn -0.8165 -0.4145 -0.4019
vn -0.6763 0.6978 -0.2360
vn -0.8177 -0.2945 0.4945
vn -0.8916 -0.2302 0.3899
vn -0.8685 -0.4304 0.2458
vn -0.9237 -0.1938 0.3305
vn -0.7650 0.6360 -0.1015
vn -0.7171 0.6969 -0.0115
vn -0.7947 0.5554 -0.2449
vn -0.7219 -0.4325 -0.5403
vn -0.8586 -0.5121 0.0234
vn -0.6951 -0.6180 -0.3672
vn -0.7510 0.4077 0.5194
vn -0.7808 0.6206 0.0720
vn -0.8302 0.4227 -0.3635
vn -0.8618 0.3845 -0.3307
vn -0.7588 -0.1603 -0.6312
vn -0.7852 -0.1319 -0.6051
vn -0.7975 -0.1485 -0.5848
vn -0.8084 -0.0437 0.5870
vn -0.8254 -0.0555 0.5618
vn -0.8446 -0.0405 0.5339
vn -0.8079 -0.4189 -0.4144
vn -0.7303 -0.6767 -0.0932
vn -0.7862 -0.5466 -0.2884
vn -0.8125 0.4579 0.3608
vn -0.6324 0.7441 0.2155
vn -0.8693 -0.0816 -0.4875
vn -0.8846 -0.0482 0.4639
vn 0.9679 -0.2505 -0.0221
vn 0.9693 -0.2370 -0.0655
vn 0.9555 -0.2949 -0.0013
vn 0.9665 -0.2145 -0.1413
vn 0.9654 -0.1705 -0.1972
vn 0.9661 0.2580 -0.0086
vn 0.9678 0.2493 0.0358
vn 0.9654 0.2533 -0.0625
vn 0.9634 -0.0011 -0.2679
vn 0.9559 0.0575 -0.2881
vn 0.9614 0.1820 -0.2062
vn 0.9559 0.1184 -0.2689
vn 0.9286 -0.3088 0.2059
vn 0.9262 -0.3585 0.1163
vn 0.9309 -0.2182 0.2930
vn 0.9362 -0.3492 0.0401
vn 0.9369 0.0889 0.3382
vn 0.9309 0.0103 0.3652
vn 0.9262 0.2284 0.2999
vn 0.9377 0.2674 0.2219
vt 0.750000 0.500000
vt 0.687500 0.500000
vt 0.250000 0.625000
vt 0.250000 0.687500
vt 0.312500 0.625000
vt 0.750000 0.625000
vt 0.812500 0.625000
vt 0.750000 0.687500
vt 0.250000 0.500000
vt 0.187500 0.500000
vt 0.812500 0.500000
vt 0.750000 0.562500
vt 0.250000 0.750000
vt 0.312500 0.750000
vt 0.750000 0.750000
vt 0.812500 0.750000
vt 0.625000 0.500000
vt 0.687500 0.562500
vt 0.625000 0.562500
vt 0.312500 0.687500
vt 0.812500 0.687500
vt 0.812500 0.562500
vt 0.875000 0.750000
vt 0.125000 0.500000
vt 0.875000 0.500000
vt 0.875000 0.562500
vt 0.875000 0.625000
vt 0.875000 0.687500
vt 0.625000 0.625000
vt 0.375000 0.750000
vt 0.375000 0.687500
vt 0.375000 0.625000
vt 0.687500 0.625000
s 1
f 11/1/1 28/2/2 40/2/3
f 13/3/4 48/4/5 35/5/6
f 13/6/7 38/7/8 48/8/9
f 11/1/1 40/2/3 88/2/10
f 11/9/11 41/10/12 37/10/13
f 11/9/11 88/10/14 41/10/12
f 11/1/11 37/11/13 39/12/15
f 12/13/16 86/14/17 42/14/18
f 12/15/19 43/16/20 86/16/21
f 4/17/22 47/18/23 34/19/24
f 12/13/16 42/14/18 44/20/25
f 12/15/19 45/21/26 43/16/20
f 13/6/7 46/22/27 38/7/8
f 13/6/4 47/18/23 39/12/28
f 24/1/29 62/2/30 50/2/31
f 26/3/32 57/5/33 70/4/34
f 26/6/35 70/8/36 60/7/37
f 24/1/29 71/1/38 62/2/30
f 24/9/39 59/10/40 63/10/41
f 24/9/39 63/10/41 71/9/42
f 24/1/39 61/12/43 59/11/40
f 25/13/44 64/14/45 83/13/46
f 25/15/47 83/15/48 65/16/49
f 17/17/50 56/19/51 69/18/52
f 25/13/44 66/20/53 64/14/45
f 25/15/47 65/16/49 67/21/54
f 26/6/35 60/7/37 68/22/55
f 26/6/32 61/12/56 69/18/52
f 14/23/57 89/23/58 74/23/59
f 19/17/60 90/17/61 75/17/62
f 7/24/63 91/24/64 32/24/65
f 2/25/66 92/26/67 27/26/68
f 21/27/69 93/28/70 78/27/71
f 22/29/72 94/19/73 81/29/74
f 3/30/75 95/31/76 29/31/77
f 17/17/50 96/17/78 80/17/79
f 5/24/80 97/24/81 31/24/82
f 10/30/83 98/30/84 85/30/85
f 14/23/57 58/23/86 89/23/58
f 19/17/60 72/17/87 90/17/61
f 7/24/63 76/24/88 91/24/64
f 2/25/66 79/25/89 92/26/67
f 21/27/69 55/28/90 93/28/70
f 22/29/72 56/19/51 94/19/73
f 3/30/75 82/30/91 95/31/76
f 17/17/50 52/17/92 96/17/78
f 5/24/80 77/24/93 97/24/81
f 10/30/83 73/30/94 98/30/84
f 98/30/84 84/30/95 16/30/96
f 98/30/84 73/30/94 84/30/95
f 73/30/94 23/30/97 84/30/95
f 97/24/81 53/24/98 15/24/99
f 97/24/81 77/24/93 53/24/98
f 77/24/93 18/24/100 53/24/98
f 96/17/78 75/17/62 6/17/101
f 96/17/78 52/17/92 75/17/62
f 52/17/92 19/17/60 75/17/62
f 95/31/76 51/31/102 22/32/72
f 95/31/76 82/30/91 51/31/102
f 82/30/91 16/30/96 51/31/102
f 94/19/73 80/17/79 4/17/103
f 94/19/73 56/19/51 80/17/79
f 56/19/51 17/17/50 80/17/79
f 93/28/70 74/23/59 1/23/104
f 93/28/70 55/28/90 74/23/59
f 55/28/90 14/23/57 74/23/59
f 92/26/67 49/26/105 21/27/69
f 92/26/67 79/25/89 49/26/105
f 79/25/89 15/25/99 49/26/105
f 91/24/64 54/24/106 18/24/100
f 91/24/64 76/24/88 54/24/106
f 76/24/88 20/24/107 54/24/106
f 90/17/61 76/17/108 7/17/109
f 90/17/61 72/17/87 76/17/108
f 72/17/87 20/17/110 76/17/108
f 89/23/58 73/23/111 10/23/112
f 89/23/58 58/23/86 73/23/111
f 58/23/86 23/23/113 73/23/111
f 85/30/85 82/30/91 3/30/75
f 85/30/85 98/30/84 82/30/91
f 98/30/84 16/30/96 82/30/91
f 31/24/82 79/24/89 2/24/66
f 31/24/82 97/24/81 79/24/89
f 97/24/81 15/24/99 79/24/89
f 80/17/79 30/17/114 4/17/103
f 80/17/79 96/17/78 30/17/114
f 96/17/78 6/17/101 30/17/114
f 29/31/77 81/32/74 9/32/115
f 29/31/77 95/31/76 81/32/74
f 95/31/76 22/32/72 81/32/74
f 81/29/74 34/19/116 9/29/115
f 81/29/74 94/19/73 34/19/116
f 94/19/73 4/17/103 34/19/116
f 78/27/71 33/28/117 8/27/118
f 78/27/71 93/28/70 33/28/117
f 93/28/70 1/23/104 33/28/117
f 27/26/68 78/27/71 8/27/118
f 27/26/68 92/26/67 78/27/71
f 92/26/67 21/27/69 78/27/71
f 32/24/65 77/24/93 5/24/80
f 32/24/65 91/24/64 77/24/93
f 91/24/64 18/24/100 77/24/93
f 75/17/62 87/17/119 6/17/101
f 75/17/62 90/17/61 87/17/119
f 90/17/61 7/17/109 87/17/119
f 74/23/59 36/23/120 1/23/104
f 74/23/59 89/23/58 36/23/120
f 89/23/58 10/23/112 36/23/120
f 69/18/52 50/2/31 17/17/50
f 69/18/52 61/12/56 50/2/31
f 61/12/56 24/1/29 50/2/31
f 68/22/55 49/26/105 15/25/99
f 68/22/55 60/7/37 49/26/105
f 60/7/37 21/27/69 49/26/105
f 67/21/54 55/28/90 21/27/69
f 67/21/54 65/16/49 55/28/90
f 65/16/49 14/23/57 55/28/90
f 64/14/45 51/31/102 16/30/96
f 64/14/45 66/20/53 51/31/102
f 66/20/53 22/32/72 51/31/102
f 69/18/52 57/33/33 26/6/32
f 69/18/52 56/19/51 57/33/33
f 56/19/51 22/29/72 57/33/33
f 65/16/49 58/16/86 14/23/57
f 65/16/49 83/15/48 58/16/86
f 83/15/48 23/15/113 58/16/86
f 83/13/46 84/14/95 23/13/97
f 83/13/46 64/14/45 84/14/95
f 64/14/45 16/30/96 84/14/95
f 59/11/40 68/22/55 15/25/99
f 59/11/40 61/12/43 68/22/55
f 61/12/43 26/6/35 68/22/55
f 71/9/42 54/10/106 20/9/107
f 71/9/42 63/10/41 54/10/106
f 63/10/41 18/24/100 54/10/106
f 63/10/41 53/24/98 18/24/100
f 63/10/41 59/10/40 53/24/98
f 59/10/40 15/24/99 53/24/98
f 62/2/30 72/2/87 19/17/60
f 62/2/30 71/1/38 72/2/87
f 71/1/38 20/1/110 72/2/87
f 60/7/37 67/21/54 21/27/69
f 60/7/37 70/8/36 67/21/54
f 70/8/36 25/15/47 67/21/54
f 70/4/34 66/20/53 25/13/44
f 70/4/34 57/5/33 66/20/53
f 57/5/33 22/32/72 66/20/53
f 50/2/31 52/17/92 17/17/50
f 50/2/31 62/2/30 52/17/92
f 62/2/30 19/17/60 52/17/92
f 39/12/28 28/2/2 11/1/1
f 39/12/28 47/18/23 28/2/2
f 47/18/23 4/17/22 28/2/2
f 38/7/8 27/26/121 8/27/122
f 38/7/8 46/22/27 27/26/121
f 46/22/27 2/25/123 27/26/121
f 43/16/20 33/28/124 1/23/125
f 43/16/20 45/21/26 33/28/124
f 45/21/26 8/27/122 33/28/124
f 44/20/25 29/31/126 9/32/127
f 44/20/25 42/14/18 29/31/126
f 42/14/18 3/30/128 29/31/126
f 34/19/24 35/33/6 9/29/127
f 34/19/24 47/18/23 35/33/6
f 47/18/23 13/6/4 35/33/6
f 86/16/21 36/23/129 10/23/130
f 86/16/21 43/16/20 36/23/129
f 43/16/20 1/23/125 36/23/129
f 42/14/18 85/30/131 3/30/128
f 42/14/18 86/14/17 85/30/131
f 86/14/17 10/30/132 85/30/131
f 39/12/15 46/22/27 13/6/7
f 39/12/15 37/11/13 46/22/27
f 37/11/13 2/25/123 46/22/27
f 41/10/12 32/24/133 5/24/134
f 41/10/12 88/10/14 32/24/133
f 88/10/14 7/24/135 32/24/133
f 37/10/13 31/24/136 2/24/123
f 37/10/13 41/10/12 31/24/136
f 41/10/12 5/24/134 31/24/136
f 88/2/10 87/17/137 7/17/138
f 88/2/10 40/2/3 87/17/137
f 40/2/3 6/17/139 87/17/137
f 48/8/9 45/21/26 12/15/19
f 48/8/9 38/7/8 45/21/26
f 38/7/8 8/27/122 45/21/26
f 35/5/6 44/20/25 9/32/127
f 35/5/6 48/4/5 44/20/25
f 48/4/5 12/13/16 44/20/25
f 40/2/3 30/17/140 6/17/139
f 40/2/3 28/2/2 30/17/140
f 28/2/2 4/17/22 30/17/140
