# Blender 4.0.2
# www.blender.org
o Cone
v 0.000257 2.458442 -0.820007
v 0.292959 2.454935 -0.710395
v 0.504584 2.441031 -0.497769
v 0.699944 2.460280 -0.265885
v 0.876504 2.500453 0.021390
v 0.859675 2.570526 0.387771
v 0.648642 2.534954 0.645804
v 0.349870 2.507722 0.817980
v 0.009649 2.487243 0.870491
v -0.326565 2.465363 0.788398
v -0.603414 2.465363 0.603414
v -0.788398 2.465363 0.326565
v -0.853356 2.465363 0.000000
v -0.788398 2.465363 -0.326565
v -0.532351 2.438261 -0.515249
v -0.284405 2.442724 -0.686779
v 0.000000 3.013900 0.000000
v -0.008939 1.813138 -1.425060
v 0.509774 1.792789 -1.230226
v 1.012388 1.810914 -0.999328
v 1.225407 1.808503 -0.494785
v 1.408897 1.853790 0.017328
v 1.395190 1.917375 0.605143
v 1.163888 1.958052 1.134245
v 0.566739 1.861549 1.323804
v 0.011950 1.796520 1.365042
v -0.519370 1.783146 1.253051
v -0.974183 1.778512 0.971530
v -1.354370 1.811067 0.575013
v -1.327545 1.751252 0.018383
v -1.208905 1.758239 -0.499796
v -1.037964 1.801829 -1.011971
v -0.521118 1.772808 -1.238675
v -0.000746 1.090507 -2.081397
v 0.736907 1.080882 -1.774602
v 1.347157 1.071260 -1.328351
v 1.765476 1.095418 -0.723678
v 1.955104 1.130851 0.017090
v 2.018111 1.184096 0.861665
v 1.530487 1.157152 1.545187
v 0.770124 1.121053 1.811825
v -0.000991 1.045604 1.986825
v -0.712526 1.054341 1.728395
v -1.281060 1.030905 1.279430
v -1.691328 1.021170 0.698055
v -1.876790 0.959207 -0.000000
v -1.660248 1.010510 -0.675409
v -1.315105 1.017174 -1.293063
v -0.743390 1.016740 -1.812856
v -0.007552 0.382764 -2.317378
v 0.825015 0.479225 -2.045362
v 1.532995 0.481512 -1.546182
v 2.075803 0.441692 -0.858916
v 2.138228 0.548468 0.037162
v 2.234008 0.340190 0.925127
v 1.750885 0.400870 1.785391
v 0.973298 0.393712 2.291902
v -0.012970 0.365990 2.444663
v -0.919088 0.342624 2.228293
v -1.681026 0.319926 1.681027
v -2.196367 0.319926 0.909765
v -2.175822 0.436283 -0.000010
v -2.195087 0.320720 -0.909235
v -1.580845 0.430774 -1.566915
v -0.884673 0.385971 -2.128777
v -0.002499 0.142376 -2.418560
v 0.832635 0.265444 -2.048212
v 1.674612 0.175504 -1.679008
v 2.153375 0.207761 -0.851789
v 2.259799 0.263618 0.068541
v 2.468398 0.022500 1.022444
v 1.899986 0.034331 1.904602
v 0.957922 0.151243 2.295974
v -0.003122 0.030586 2.683121
v -1.024683 0.028030 2.476110
v -1.889230 0.022500 1.889230
v -2.468398 0.022500 1.022444
v -2.384264 0.157203 -0.000012
v -2.468398 0.022500 -1.022444
v -1.657238 0.212824 -1.577227
v -0.925690 0.183317 -2.146206
vn -0.0320 0.7505 -0.6601
vn -0.0233 0.9977 -0.0634
vn 0.3960 0.7186 -0.5716
vn 0.5017 0.7238 -0.4737
vn 0.5269 0.7138 -0.4613
vn 0.6341 0.7298 -0.2553
vn 0.5853 0.7873 0.1939
vn 0.3468 0.7880 0.5087
vn 0.1667 0.7567 0.6322
vn -0.0845 0.7265 0.6819
vn -0.2973 0.7136 0.6344
vn -0.4873 0.7221 0.4911
vn -0.6357 0.7299 0.2513
vn -0.7157 0.6984 -0.0033
vn -0.5932 0.7316 -0.3359
vn -0.3516 0.7437 -0.5686
vn 0.7325 0.6727 0.1050
vn -0.3628 0.7263 -0.5839
vn 0.5250 0.6729 -0.5211
vn 0.4096 0.5181 -0.7509
vn 0.3033 0.6590 -0.6883
vn -0.3273 0.5742 0.7504
vn -0.5724 0.5844 -0.5752
vn -0.8173 0.5397 -0.2021
vn 0.6880 0.6513 -0.3201
vn 0.0860 0.6039 0.7924
vn 0.4481 0.6951 0.5622
vn -0.5168 0.5597 0.6478
vn -0.3400 0.6267 -0.7012
vn -0.0099 0.6753 -0.7375
vn -0.8336 0.5436 -0.0978
vn -0.7845 0.5627 0.2607
vn 0.7664 0.6189 -0.1720
vn -0.0920 0.5909 0.8015
vn 0.5565 0.4877 0.6726
vn 0.3248 0.2654 0.9078
vn 0.6499 0.4112 0.6392
vn -0.5942 0.5631 0.5743
vn -0.3836 0.6007 0.7014
vn 0.7891 0.5038 -0.3514
vn 0.6252 0.4831 -0.6129
vn -0.7910 0.5369 0.2934
vn 0.8780 0.4496 -0.1645
vn -0.7795 0.5561 -0.2882
vn -0.8485 0.5286 -0.0263
vn 0.8625 0.4499 0.2317
vn 0.1678 0.5780 0.7986
vn -0.6536 0.5251 -0.5451
vn -0.0161 0.5047 -0.8631
vn -0.4193 0.5381 -0.7312
vn -0.0661 0.6041 0.7942
vn -0.7119 0.6615 0.2359
vn -0.7853 0.6191 -0.0002
vn -0.6697 0.7031 0.2391
vn -0.6437 0.4176 -0.6413
vn 0.4391 0.2164 -0.8720
vn 0.0337 0.3623 -0.9315
vn -0.4045 0.3281 -0.8537
vn -0.3451 0.6230 0.7020
vn -0.0067 0.5573 0.8303
vn 0.5954 0.4697 -0.6518
vn -0.5427 0.6596 0.5200
vn 0.9337 0.3432 -0.1020
vn 0.8620 0.3841 -0.3308
vn -0.8151 0.5793 -0.0067
vn 0.8559 0.4696 0.2166
vn -0.6897 0.6630 -0.2910
vn -0.0599 -0.9972 -0.0458
vn -0.0122 -0.9961 -0.0879
vn 0.0901 -0.9955 -0.0286
vn 0.9097 0.4107 -0.0620
vn 0.6197 0.4836 0.6181
vn 0.7436 0.6230 0.2427
vn -0.6551 0.3218 -0.6836
vn -0.6545 0.7043 -0.2750
vn 0.3476 0.1162 0.9304
vn -0.4596 0.1727 -0.8712
vn 0.4353 0.1156 -0.8928
vn 0.0540 0.3702 -0.9274
vn -0.3200 0.6483 0.6909
vn 0.0294 0.5798 0.8143
vn 0.5718 0.5103 -0.6423
vn -0.5057 0.7035 0.4994
vn 0.9068 0.3004 -0.2957
vn 0.0395 -0.9917 0.1227
vn 0.0312 -0.9674 0.2512
vn -0.0069 -0.9988 0.0487
vn -0.1624 -0.9778 0.1321
vn -0.1154 -0.9901 0.0797
vn -0.2902 -0.9409 -0.1744
vn -0.2025 -0.9661 -0.1603
vn 0.0721 -0.9972 0.0184
vn 0.2924 -0.9509 0.1012
vn 0.0793 -0.9926 -0.0915
vn 0.1718 -0.9784 -0.1148
vn 0.0428 -0.9791 -0.1990
vn 0.0552 -0.9939 -0.0956
vt 0.333811 0.258567
vt 0.288571 0.277555
vt 0.321731 0.244895
vt 0.306355 0.236188
vt 0.289010 0.232217
vt 0.269703 0.231722
vt 0.252581 0.243569
vt 0.241797 0.259038
vt 0.239348 0.278508
vt 0.243541 0.297558
vt 0.254863 0.313901
vt 0.271150 0.324289
vt 0.290306 0.327995
vt 0.309207 0.323068
vt 0.324813 0.311732
vt 0.331371 0.294321
vt 0.215370 0.204778
vt 0.334378 0.276971
vt 0.330023 0.179745
vt 0.413449 0.152427
vt 0.360931 0.205387
vt 0.218690 0.354700
vt 0.386555 0.319179
vt 0.362099 0.349980
vt 0.290658 0.177314
vt 0.186181 0.281488
vt 0.189839 0.236830
vt 0.252476 0.375245
vt 0.393093 0.278102
vt 0.387092 0.237350
vt 0.330710 0.374414
vt 0.290769 0.384361
vt 0.251552 0.183117
vt 0.194319 0.322056
vt 0.118656 0.212200
vt 0.027825 0.282538
vt 0.043181 0.184733
vt 0.227311 0.444391
vt 0.167638 0.409404
vt 0.290721 0.101624
vt 0.356448 0.115308
vt 0.295857 0.457791
vt 0.223686 0.117702
vt 0.417742 0.402780
vt 0.365537 0.447736
vt 0.160264 0.153238
vt 0.113840 0.283660
vt 0.454266 0.344678
vt 0.457481 0.206759
vt 0.473336 0.275623
vt 0.120868 0.355942
vt 0.297756 0.552101
vt 0.408571 0.543085
vt 0.298592 0.602056
vt 0.521929 0.369087
vt 0.462559 0.108680
vt 0.526582 0.180550
vt 0.543772 0.275059
vt 0.102778 0.475486
vt 0.044181 0.389067
vt 0.385202 0.053420
vt 0.192299 0.534475
vt 0.199147 0.060845
vt 0.292231 0.028382
vt 0.391849 0.505901
vt 0.099192 0.089397
vt 0.488924 0.466191
vt 0.709333 0.425687
vt 0.567734 0.242962
vt 0.870094 0.042146
vt 0.182208 0.030036
vt 0.000102 0.165738
vt 0.063456 0.057509
vt 0.544450 0.382243
vt 0.525453 0.499937
vt 0.000589 0.284535
vt 0.566915 0.278530
vt 0.479445 0.090945
vt 0.554618 0.169079
vt 0.068430 0.510433
vt 0.000102 0.406091
vt 0.400444 0.013790
vt 0.174062 0.580241
vt 0.287779 0.000102
vt 0.999898 0.235020
vt 0.992549 0.320946
vt 0.932799 0.377858
vt 0.874187 0.436188
vt 0.789389 0.447914
vt 0.620299 0.412321
vt 0.567120 0.334875
vt 0.976829 0.155288
vt 0.959196 0.067436
vt 0.696308 0.019614
vt 0.787563 0.000102
vt 0.567120 0.149591
vt 0.618713 0.071849
s 1
f 1/1/1 17/2/2 2/3/3
f 2/3/3 17/2/2 3/4/4
f 3/4/4 17/2/2 4/5/5
f 4/5/5 17/2/2 5/6/6
f 5/6/6 17/2/2 6/7/7
f 6/7/7 17/2/2 7/8/8
f 7/8/8 17/2/2 8/9/9
f 8/9/9 17/2/2 9/10/10
f 9/10/10 17/2/2 10/11/11
f 10/11/11 17/2/2 11/12/12
f 11/12/12 17/2/2 12/13/13
f 12/13/13 17/2/2 13/14/14
f 13/14/14 17/2/2 14/15/15
f 14/15/15 17/2/2 15/16/16
f 7/8/8 23/17/17 6/7/7
f 15/16/16 17/2/2 16/18/18
f 16/18/18 17/2/2 1/1/1
f 20/19/19 35/20/20 19/21/21
f 11/12/12 27/22/22 10/11/11
f 14/15/15 32/23/23 31/24/24
f 3/4/4 21/25/25 20/19/19
f 7/8/8 25/26/26 24/27/27
f 12/13/13 28/28/28 11/12/12
f 15/16/16 33/29/29 32/23/23
f 5/6/6 21/25/25 4/5/5
f 1/1/1 19/21/21 18/30/30
f 9/10/10 25/26/26 8/9/9
f 12/13/13 30/31/31 29/32/32
f 1/1/1 33/29/29 16/18/18
f 5/6/6 23/17/17 22/33/33
f 10/11/11 26/34/34 9/10/10
f 13/14/14 31/24/24 30/31/31
f 3/4/4 19/21/21 2/3/3
f 40/35/35 57/36/36 56/37/37
f 27/22/22 44/38/38 43/39/39
f 20/19/19 37/40/40 36/41/41
f 29/32/32 44/38/38 28/28/28
f 22/33/33 37/40/40 21/25/25
f 30/31/31 45/42/42 29/32/32
f 23/17/17 38/43/43 22/33/33
f 30/31/31 47/44/44 46/45/45
f 24/27/27 39/46/46 23/17/17
f 32/23/23 47/44/44 31/24/24
f 24/27/27 41/47/47 40/35/35
f 33/29/29 48/48/48 32/23/23
f 26/34/34 41/47/47 25/26/26
f 18/30/30 35/20/20 34/49/49
f 18/30/30 49/50/50 33/29/29
f 26/34/34 43/39/39 42/51/51
f 61/52/52 78/53/53 77/54/54
f 49/50/50 64/55/55 48/48/48
f 42/51/51 57/36/36 41/47/47
f 34/49/49 51/56/56 50/57/57
f 49/50/50 50/57/57 65/58/58
f 42/51/51 59/59/59 58/60/60
f 35/20/20 52/61/61 51/56/56
f 43/39/39 60/62/62 59/59/59
f 37/40/40 52/61/61 36/41/41
f 45/42/42 60/62/62 44/38/38
f 37/40/40 54/63/63 53/64/64
f 45/42/42 62/65/65 61/52/52
f 39/46/46 54/63/63 38/43/43
f 47/44/44 62/65/65 46/45/45
f 40/35/35 55/66/66 39/46/46
f 47/44/44 64/55/55 63/67/67
f 70/68/68 73/69/69 78/70/70
f 55/66/66 70/71/71 54/63/63
f 63/67/67 78/53/53 62/65/65
f 55/66/66 72/72/72 71/73/73
f 63/67/67 80/74/74 79/75/75
f 56/37/37 73/76/76 72/72/72
f 64/55/55 81/77/77 80/74/74
f 58/60/60 73/76/76 57/36/36
f 50/57/57 67/78/78 66/79/79
f 65/58/58 66/79/79 81/77/77
f 58/60/60 75/80/80 74/81/81
f 52/61/61 67/78/78 51/56/56
f 60/62/62 75/80/80 59/59/59
f 53/64/64 68/82/82 52/61/61
f 60/62/62 77/54/54 76/83/83
f 54/63/63 69/84/84 53/64/64
f 7/8/8 24/27/27 23/17/17
f 20/19/19 36/41/41 35/20/20
f 11/12/12 28/28/28 27/22/22
f 14/15/15 15/16/16 32/23/23
f 3/4/4 4/5/5 21/25/25
f 7/8/8 8/9/9 25/26/26
f 12/13/13 29/32/32 28/28/28
f 15/16/16 16/18/18 33/29/29
f 5/6/6 22/33/33 21/25/25
f 1/1/1 2/3/3 19/21/21
f 9/10/10 26/34/34 25/26/26
f 12/13/13 13/14/14 30/31/31
f 1/1/1 18/30/30 33/29/29
f 5/6/6 6/7/7 23/17/17
f 10/11/11 27/22/22 26/34/34
f 13/14/14 14/15/15 31/24/24
f 3/4/4 20/19/19 19/21/21
f 40/35/35 41/47/47 57/36/36
f 27/22/22 28/28/28 44/38/38
f 20/19/19 21/25/25 37/40/40
f 29/32/32 45/42/42 44/38/38
f 22/33/33 38/43/43 37/40/40
f 30/31/31 46/45/45 45/42/42
f 23/17/17 39/46/46 38/43/43
f 30/31/31 31/24/24 47/44/44
f 24/27/27 40/35/35 39/46/46
f 32/23/23 48/48/48 47/44/44
f 24/27/27 25/26/26 41/47/47
f 33/29/29 49/50/50 48/48/48
f 26/34/34 42/51/51 41/47/47
f 18/30/30 19/21/21 35/20/20
f 18/30/30 34/49/49 49/50/50
f 26/34/34 27/22/22 43/39/39
f 61/52/52 62/65/65 78/53/53
f 49/50/50 65/58/58 64/55/55
f 42/51/51 58/60/60 57/36/36
f 34/49/49 35/20/20 51/56/56
f 49/50/50 34/49/49 50/57/57
f 42/51/51 43/39/39 59/59/59
f 35/20/20 36/41/41 52/61/61
f 43/39/39 44/38/38 60/62/62
f 37/40/40 53/64/64 52/61/61
f 45/42/42 61/52/52 60/62/62
f 37/40/40 38/43/43 54/63/63
f 45/42/42 46/45/45 62/65/65
f 39/46/46 55/66/66 54/63/63
f 47/44/44 63/67/67 62/65/65
f 40/35/35 56/37/37 55/66/66
f 47/44/44 48/48/48 64/55/55
f 81/85/85 66/86/86 67/87/87
f 67/87/87 68/88/88 69/89/89
f 70/68/68 71/90/90 72/91/91
f 67/87/87 69/89/89 70/68/68
f 80/92/92 81/85/85 67/87/87
f 78/70/70 79/93/93 80/92/92
f 76/94/94 77/95/95 78/70/70
f 74/96/96 75/97/97 73/69/69
f 75/97/97 76/94/94 78/70/70
f 72/91/91 73/69/69 70/68/68
f 70/68/68 78/70/70 80/92/92
f 67/87/87 70/68/68 80/92/92
f 75/97/97 78/70/70 73/69/69
f 55/66/66 71/73/73 70/71/71
f 63/67/67 79/75/75 78/53/53
f 55/66/66 56/37/37 72/72/72
f 63/67/67 64/55/55 80/74/74
f 56/37/37 57/36/36 73/76/76
f 64/55/55 65/58/58 81/77/77
f 58/60/60 74/81/81 73/76/76
f 50/57/57 51/56/56 67/78/78
f 65/58/58 50/57/57 66/79/79
f 58/60/60 59/59/59 75/80/80
f 52/61/61 68/82/82 67/78/78
f 60/62/62 76/83/83 75/80/80
f 53/64/64 69/84/84 68/82/82
f 60/62/62 61/52/52 77/54/54
f 54/63/63 70/71/71 69/84/84
